<svg xmlns="http://www.w3.org/2000/svg">
<symbol id="exclamation-mark" viewBox="0 0 2 8">
  <mask id="a" width="3" height="9" x="-.496" y="-.88" maskUnits="userSpaceOnUse">
    <path d="M-.496-.88h3v9h-3z"/>
    <path d="M.334 6.77c0-.127.043-.237.13-.33.093-.1.207-.15.34-.15.12 0 .227.05.32.15a.437.437 0 0 1 0 .66.482.482 0 0 1-.66 0 .469.469 0 0 1-.13-.33Zm.22-1.15L.314.3h.97l-.26 5.32h-.47Z"/>
  </mask>
  <path d="M.334 6.77c0-.127.043-.237.13-.33.093-.1.207-.15.34-.15.12 0 .227.05.32.15a.437.437 0 0 1 0 .66.482.482 0 0 1-.66 0 .469.469 0 0 1-.13-.33Zm.22-1.15L.314.3h.97l-.26 5.32h-.47Z"/>
  <path d="m.464 6.44-.22-.205.22.205Zm.66 0-.22.205.008.007.007.007.205-.219Zm0 .66.204.22-.204-.22Zm-.66 0-.22.204.008.008.008.008.204-.22Zm.09-1.48-.3.014.013.286h.287v-.3ZM.314.3V0H0l.014.314.3-.014Zm.97 0 .3.015L1.599 0h-.315v.3Zm-.26 5.32v.3h.286l.014-.285-.3-.015Zm-.69 1.15h.3a.17.17 0 0 1 .05-.126l-.22-.204-.22-.204a.769.769 0 0 0-.21.534h.3Zm.13-.33.22.205a.15.15 0 0 1 .12-.055v-.6a.747.747 0 0 0-.56.245l.22.205Zm.34-.15v.3c.025 0 .055.006.1.055l.22-.205.22-.205a.726.726 0 0 0-.54-.245v.3Zm.32.15-.205.22c.045.041.055.074.055.11h.6a.737.737 0 0 0-.245-.55l-.205.22Zm.15.33h-.3c0 .036-.01.069-.055.11l.205.22.205.22a.737.737 0 0 0 .245-.55h-.3Zm-.15.33L.92 6.88a.158.158 0 0 1-.116.05v.6c.2 0 .379-.075.524-.21l-.204-.22Zm-.32.13v-.3a.183.183 0 0 1-.136-.05l-.204.22-.204.22c.151.14.339.21.544.21v-.3Zm-.34-.13.22-.204a.17.17 0 0 1-.05-.126h-.6c0 .203.072.386.21.534l.22-.204Zm.09-1.48.3-.014-.24-5.32-.3.014-.3.014.24 5.32.3-.014ZM.314.3v.3h.97V0h-.97v.3Zm.97 0-.3-.015-.26 5.32.3.015.3.015.26-5.32-.3-.015Zm-.26 5.32v-.3h-.47v.6h.47v-.3Z" mask="url(#a)"/>
</symbol>
</svg>