<svg width="42" height="42" viewBox="0 0 42 42" fill="none" xmlns="http://www.w3.org/2000/svg">
<circle cx="21" cy="21" r="21" fill="black" fill-opacity="0.15"/>
<path d="M12 28H16.2632V16.4804H12M14.184 11C12.8637 11 12 11.8598 12 12.99C12 14.096 12.8387 14.9814 14.1328 14.9814H14.1586C15.5043 14.9814 16.3414 14.096 16.3414 12.99C16.316 11.8598 15.5043 11 14.184 11ZM30 21.4678V28H26.2105V21.8875C26.2105 20.3392 25.584 19.3053 24.1875 19.3053C23.1215 19.3053 22.4871 20.0174 22.2078 20.7061C22.1062 20.9525 21.9474 21.3076 21.9474 21.6525V28H18.1579C18.1579 28 18.1579 18.126 18.1579 16.4804H21.9474V18.2436L22.0801 18.2235V18.1862C22.5926 17.4024 23.5082 16.2825 25.5575 16.2825C28.0969 16.2825 30 17.9293 30 21.4678Z" fill="#F6F6F5"/>
</svg>
