<svg width="113" height="21" viewBox="0 0 113 21" fill="none" xmlns="http://www.w3.org/2000/svg">
<path d="M32.2119 18.5623L31.4016 20.9225H31.0372L30.3756 19.0383L29.714 20.9225H29.3434L28.5332 18.5623H28.8895L29.5429 20.4802L30.2249 18.5623H30.5425L31.2103 20.4901L31.878 18.5623H32.2057H32.2119Z" fill="white"/>
<path d="M33.0522 18.5623H33.3983V20.9225H33.0522V18.5623Z" fill="white"/>
<path d="M35.024 18.8558H34.1934V18.5623H36.1966V18.8558H35.366V20.9225H35.024V18.8558Z" fill="white"/>
<path d="M39.066 18.5623V20.9225H38.7199V19.8713H37.3295V20.9225H36.9834V18.5623H37.3295V19.5778H38.7199V18.5623H39.066Z" fill="white"/>
<path d="M43.4921 20.4842V20.9225H41.6172V18.5623H43.4474V19.0006H42.173V19.5123H43.2967V19.9368H42.173V20.4822H43.4921V20.4842Z" fill="white"/>
<path d="M44.3535 18.5623H44.9134V20.4782H46.1287V20.9225H44.3535V18.5623Z" fill="white"/>
<path d="M46.8584 18.5623H47.4182V20.9225H46.8584V18.5623Z" fill="white"/>
<path d="M50.3662 20.4785V20.9227H48.249V20.5697L49.5784 19.0088H48.2775V18.5645H50.3153V18.9196L48.99 20.4804H50.3683L50.3662 20.4785Z" fill="white"/>
<path d="M52.7456 20.4167H51.6218L51.4081 20.9225H50.834L51.9129 18.5623H52.4667L53.5497 20.9225H52.9614L52.7476 20.4167H52.7456ZM52.5685 20.0022L52.1837 19.0978L51.7989 20.0022H52.5664H52.5685Z" fill="white"/>
<path d="M56.4329 20.2801C56.4329 20.6887 56.1011 20.9247 55.4639 20.9247H54.2119V18.5645H55.3947C55.9993 18.5645 56.3108 18.8105 56.3108 19.1774C56.3108 19.4134 56.1866 19.5959 55.9891 19.697C56.2599 19.7823 56.4329 19.9826 56.4329 20.2801ZM54.7677 18.9751V19.5304H55.3255C55.5983 19.5304 55.7469 19.4352 55.7469 19.2508C55.7469 19.0663 55.5983 18.9751 55.3255 18.9751H54.7677ZM55.869 20.2226C55.869 20.0243 55.7123 19.9291 55.4232 19.9291H54.7697V20.5122H55.4232C55.7143 20.5122 55.869 20.4249 55.869 20.2226Z" fill="white"/>
<path d="M59.1445 20.4842V20.9225H57.2695V18.5623H59.0997V19.0006H57.8273V19.5123H58.9511V19.9368H57.8273V20.4822H59.1465L59.1445 20.4842Z" fill="white"/>
<path d="M60.5139 19.0088H59.7383V18.5645H61.8494V19.0088H61.0738V20.9247H60.5139V19.0088Z" fill="white"/>
<path d="M64.785 18.5623V20.9225H64.2252V19.9546H63.1238V20.9225H62.564V18.5623H63.1238V19.4925H64.2252V18.5623H64.785Z" fill="white"/>
<path d="M80.0889 18.7736V19.3845H81.347V19.9914H80.0889V20.9434H79.2827V18.1667H81.518V18.7736H80.0889Z" fill="white"/>
<path d="M84.4417 20.2078H84.002V20.9456H83.1958V18.1689H84.4987C85.2764 18.1689 85.765 18.5616 85.765 19.1963C85.765 19.6049 85.5614 19.9063 85.2072 20.0729L85.822 20.9456H84.9588L84.4417 20.2078ZM84.4498 18.7877H84.002V19.6009H84.4498C84.7837 19.6009 84.9506 19.4502 84.9506 19.1963C84.9506 18.9424 84.7837 18.7877 84.4498 18.7877Z" fill="white"/>
<path d="M87.519 18.1667H88.3252V20.9434H87.519V18.1667Z" fill="white"/>
<path d="M92.4899 20.3387V20.9456H90.2017V18.1689H92.4369V18.7758H90.9997V19.2439H92.2659V19.831H90.9997V20.3387H92.4899Z" fill="white"/>
<path d="M94.2397 18.1667H95.5874C96.532 18.1667 97.1794 18.7022 97.1794 19.555C97.1794 20.4079 96.532 20.9434 95.5874 20.9434H94.2397V18.1667ZM95.5549 20.3166C96.0394 20.3166 96.3651 20.035 96.3651 19.555C96.3651 19.0751 96.0394 18.7934 95.5549 18.7934H95.0459V20.3166H95.5549Z" fill="white"/>
<path d="M100.147 20.2078H99.7075V20.9456H98.9014V18.1689H100.204C100.982 18.1689 101.471 18.5616 101.471 19.1963C101.471 19.6049 101.267 19.9063 100.913 20.0729L101.528 20.9456H100.664L100.147 20.2078ZM100.155 18.7877H99.7075V19.6009H100.155C100.489 19.6009 100.656 19.4502 100.656 19.1963C100.656 18.9424 100.489 18.7877 100.155 18.7877Z" fill="white"/>
<path d="M103.215 18.1667H104.021V20.9434H103.215V18.1667Z" fill="white"/>
<path d="M105.756 19.5571C105.756 18.7122 106.42 18.1132 107.323 18.1132C107.849 18.1132 108.272 18.2997 108.549 18.6368L108.036 19.089C107.857 18.8788 107.637 18.7638 107.364 18.7638C106.896 18.7638 106.57 19.0811 106.57 19.5571C106.57 20.0331 106.896 20.3504 107.364 20.3504C107.637 20.3504 107.857 20.2354 108.036 20.0252L108.549 20.4774C108.272 20.8145 107.849 21.0009 107.323 21.0009C106.42 21.0009 105.756 20.402 105.756 19.5571Z" fill="white"/>
<path d="M112.915 18.1667V20.9434H112.109V19.8605H111.01V20.9434H110.204V18.1667H111.01V19.2099H112.109V18.1667H112.915Z" fill="white"/>
<path d="M112.203 4.83449V8.21408H111.81C111.81 8.21408 111.918 5.92135 110.106 5.18752C108.146 4.39419 107.075 6.24463 107.075 6.24463C107.075 6.24463 106.35 7.81741 108.054 8.96179C109.998 10.2688 112.594 10.9848 112.895 13.2517C113.243 15.8757 111.824 16.8654 110.422 16.8654C109.019 16.8654 107.616 17.1291 106.486 15.8955C106.486 15.8955 105.792 15.6635 105.792 16.8892H105.581V12.7083H106.002C106.002 12.7083 105.988 16.5718 109.237 16.5718C112.486 16.5718 112.335 13.6504 110.821 12.857C109.039 12.0855 106.425 10.3303 106.016 8.87254C105.579 7.31563 105.67 5.37594 107.675 4.83251C109.681 4.28907 110.57 4.97927 111.326 5.55245C111.326 5.55245 111.869 5.79045 111.869 4.83449H112.201H112.203Z" fill="white"/>
<path d="M54.4613 4.85653V8.23612H54.0683C54.0683 8.23612 54.1762 5.94339 52.3644 5.20956C50.4039 4.41623 49.3331 6.26667 49.3331 6.26667C49.3331 6.26667 48.6084 7.83945 50.3123 8.98383C52.2565 10.2908 55.1534 11.1437 55.1534 13.2738C55.1534 15.5367 54.0602 16.5165 52.6799 16.8874C51.4198 17.2265 50.1841 17.411 48.7448 15.9175C48.7448 15.9175 48.0506 15.6855 48.0506 16.9112H47.8389V12.413H48.2603C48.2603 12.413 48.246 16.2408 51.4951 16.2785C53.3355 16.3003 54.3758 13.7379 53.079 12.8771C52.7308 12.6451 48.6837 10.3503 48.2745 8.8926C47.8368 7.33569 47.9284 5.39599 49.9337 4.85256C51.9389 4.30913 52.8286 4.99933 53.5838 5.57251C53.5838 5.57251 54.1274 5.81051 54.1274 4.85454H54.4592L54.4613 4.85653Z" fill="white"/>
<path d="M45.619 4.85653V8.23612H45.2261C45.2261 8.23612 45.334 5.94339 43.5221 5.20956C41.5617 4.41623 40.4908 6.26667 40.4908 6.26667C40.4908 6.26667 39.7661 7.83945 41.4701 8.98383C43.4142 10.2908 46.3111 11.1437 46.3111 13.2738C46.3111 15.5367 45.2179 16.5165 43.8377 16.8874C42.5775 17.2265 41.3418 17.411 39.9025 15.9175C39.9025 15.9175 39.2083 15.6855 39.2083 16.9112H38.9966V12.413H39.418C39.418 12.413 39.4037 16.2408 42.6528 16.2785C44.4932 16.3003 45.5335 13.7379 44.2367 12.8771C43.8886 12.6451 39.8414 10.3503 39.4322 8.8926C38.9945 7.33569 39.0862 5.39599 41.0914 4.85256C43.0966 4.30913 43.9863 4.99933 44.7415 5.57251C44.7415 5.57251 45.2851 5.81051 45.2851 4.85454H45.6169L45.619 4.85653Z" fill="white"/>
<path d="M32.1725 4.52361C29.241 4.52361 26.8652 7.2963 26.8652 10.7175C26.8652 14.1388 29.241 16.9095 32.1725 16.9095C35.104 16.9095 37.4798 14.1368 37.4798 10.7175C37.4798 7.29829 35.104 4.52361 32.1725 4.52361ZM32.1725 16.13C30.2324 16.13 28.6588 13.7362 28.6588 10.783C28.6588 7.82982 30.2324 5.43594 32.1725 5.43594C34.1126 5.43594 35.6863 7.82982 35.6863 10.783C35.6863 13.7362 34.1126 16.13 32.1725 16.13Z" fill="white"/>
<path d="M76.0539 4.52361C73.1223 4.52361 70.7466 7.2963 70.7466 10.7175C70.7466 14.1388 73.1223 16.9095 76.0539 16.9095C78.9854 16.9095 81.3611 14.1368 81.3611 10.7175C81.3611 7.29829 78.9854 4.52361 76.0539 4.52361ZM76.0539 16.13C74.1138 16.13 72.5401 13.7362 72.5401 10.783C72.5401 7.82982 74.1138 5.43594 76.0539 5.43594C77.9939 5.43594 79.5676 7.82982 79.5676 10.783C79.5676 13.7362 77.9939 16.13 76.0539 16.13Z" fill="white"/>
<path d="M91.007 14.9029C90.7118 14.1314 87.1166 4.85341 87.1166 4.85341L86.2982 5.11125L82.6175 15.0715C82.6175 15.0715 82.1513 16.0116 81.4429 16.1306V16.4678H84.8508V16.0275C84.8508 16.0275 82.9901 16.1564 83.3117 15.1885C83.6883 14.058 84.3215 12.1481 84.3215 12.1481H88.0205L89.2318 14.8375C89.2318 14.8375 89.5819 16.081 88.1223 16.081V16.4678H92.2162V15.9938C92.2162 15.9938 91.3001 15.6744 91.007 14.9029ZM84.6167 11.4658L86.2107 7.33059L87.9187 11.4658H84.6167Z" fill="white"/>
<path d="M99.303 4.85341H93.7168V5.43651C93.7168 5.43651 95.0726 5.27189 95.0726 6.26356V15.2778C95.0726 15.2778 94.9383 15.9164 93.7168 15.9164V16.4678H99.4394C99.4394 16.4678 104.234 15.9382 104.234 10.6606C104.234 5.38296 99.303 4.85341 99.303 4.85341ZM97.8108 15.8946C96.6341 15.8946 96.6789 15.3432 96.6789 15.3432V6.04341C96.6789 6.04341 96.7236 5.43651 97.4708 5.43651C98.6251 5.43651 102.401 5.27189 102.401 10.6606C102.401 16.0493 98.9854 15.8946 97.8108 15.8946Z" fill="white"/>
<path d="M24.365 14.8837C22.9929 13.5469 21.515 10.7861 21.515 10.7861C21.515 10.7861 23.7462 10.1079 23.7462 7.92024C23.7462 5.73263 21.9058 4.76873 20.4279 4.76873H15.0371V5.33002C15.0371 5.33002 16.4316 5.2606 16.4316 6.3911V15.3676C16.4316 15.3676 16.0245 16.0301 15.0371 16.0301V16.5299H19.7357V15.9111H18.8908C18.8908 15.9111 18.0602 15.9567 18.0602 14.6933V11.1669H19.6298C19.6298 11.1669 22.1929 16.6608 24.3182 16.6608H26.6268V16.0578C26.6268 16.0578 25.7372 16.2205 24.365 14.8837ZM18.8908 10.4768H18.0908V6.08368C18.0908 6.08368 18.0155 5.4391 18.8298 5.4391C19.6441 5.4391 21.8916 5.11582 21.8916 7.95792C21.8916 10.8 18.8908 10.4768 18.8908 10.4768Z" fill="white"/>
<path d="M12.6666 0.440299H13.5257V5.9123H12.4182C12.4182 5.9123 12.7582 0.866714 7.50998 0.866714C2.26175 0.866714 2.76051 9.19669 2.76051 9.19669C2.76051 9.19669 3.01702 16.1324 7.72171 16.1324C12.4264 16.1324 12.6076 10.7853 12.6076 10.7853H13.5277V16.6599H12.7277C12.7277 16.6599 12.8478 15.3093 11.8828 15.3966C10.9179 15.4838 11.2192 17.0427 7.50998 17.0427C3.8008 17.0427 0 14.28 0 9.13719C0 3.99442 2.65465 0 7.50998 0C10.7367 0 11.9134 1.64616 11.9134 1.64616C11.9134 1.64616 12.6666 1.70566 12.6666 0.442282V0.440299Z" fill="white"/>
<path d="M71.942 18.1151C70.5536 16.5562 66.0159 9.84265 66.0159 9.84265C66.0159 9.84265 69.6497 8.36309 69.6497 5.43768C69.6497 2.51227 67.2964 0.735212 64.432 0.735212C61.5677 0.735212 56.2441 0.661829 56.2441 0.661829V1.05849H56.9221C56.9221 1.05849 58.4163 1.30641 58.4163 2.99621V15.1758C58.4163 15.1758 57.9033 16.4531 56.3337 16.4531V16.9112H63.3022V16.3797H62.0196C62.0196 16.3797 60.617 15.983 60.617 15.1024V10.3286H63.632C63.632 10.3286 67.3432 17.8493 70.857 19.7454H75.0323V19.4221C75.0323 19.4221 73.3284 19.672 71.942 18.1151ZM62.4573 9.90215H60.6781V2.23262C60.6781 2.23262 60.6312 1.18939 62.1703 1.18939C63.7093 1.18939 67.1457 0.753062 67.1457 5.43768C67.1457 10.1223 62.4573 9.90215 62.4573 9.90215Z" fill="white"/>
</svg>
