<svg width="77" height="49" viewBox="0 0 77 49" fill="none" xmlns="http://www.w3.org/2000/svg">
<g clip-path="url(#clip0_1013_29587)">
<path d="M7.34156 16.9778C7.48466 16.5582 7.44694 16.4277 7.16673 16.2184C5.72197 15.1396 4.27423 14.065 2.84205 12.9683C2.41096 12.6381 2.35228 12.1971 2.27504 11.7429C2.17506 11.1564 2.06549 10.5681 2.02597 9.97625C1.97089 9.14956 1.75893 8.35089 1.65475 7.53314C1.57871 6.93592 1.52423 6.33632 1.45477 5.7391C1.38113 5.10552 1.51285 4.50413 1.78588 3.93433C2.014 3.4575 2.26606 2.99201 2.57681 2.56287C2.65824 2.45022 2.68458 2.33578 2.68698 2.20048C2.69775 1.61816 2.75463 1.04061 2.92647 0.480347C2.9618 0.364718 3.01209 0.249089 3.07735 0.147168C3.13483 0.057168 3.23003 -0.0238917 3.34619 0.00650565C3.46953 0.0386911 3.52641 0.146572 3.52641 0.272334C3.52641 0.531606 3.56113 0.792666 3.51024 1.05075C3.46893 1.26293 3.48389 1.4781 3.47432 1.69147C3.46533 1.88816 3.54197 1.96446 3.74914 1.94777C4.08503 1.92154 4.42212 1.8828 4.7604 1.91022C5.07594 1.93585 5.36872 2.01154 5.55253 2.303C5.57708 2.34174 5.6166 2.38048 5.62019 2.42161C5.63935 2.66836 5.73335 2.91869 5.73096 3.14459C5.72856 3.34247 5.64474 3.56419 5.62498 3.78711C5.613 3.92419 5.44715 3.98618 5.29148 3.94446C5.17293 3.91287 5.05678 3.87115 4.93883 3.83658C4.57779 3.73108 4.26585 3.84254 4.10119 4.17452C3.89343 4.59174 3.75213 5.04234 3.44917 5.40949C3.39588 5.47446 3.433 5.54181 3.44498 5.60737C3.62639 6.57711 3.84912 7.53791 4.07724 8.49751C4.15328 8.81698 4.25207 9.13168 4.31853 9.45354C4.43589 10.0239 4.75382 10.4751 5.1418 10.8888C5.19449 10.9448 5.25197 10.9961 5.30226 11.0539C5.72138 11.5331 6.1854 11.9098 6.847 12.0522C7.6517 12.2263 8.38935 12.6065 9.12819 12.9665C9.47426 13.1352 9.84847 13.2324 10.2209 13.3265C10.4921 13.3951 10.5616 13.3247 10.5382 13.038C10.525 12.8706 10.5274 12.7013 10.528 12.5332C10.5286 12.3717 10.458 12.3288 10.3095 12.3842C10.1802 12.4325 10.0508 12.4843 9.91673 12.5165C9.71435 12.5648 9.6443 12.5004 9.67903 12.2936C9.78022 11.7 9.88499 11.1069 9.99696 10.5151C10.0221 10.3821 10.0149 10.279 9.90356 10.1872C9.7856 10.0901 9.68382 9.97327 9.56467 9.87672C9.40421 9.74678 9.39283 9.62877 9.54312 9.47797C10.1209 8.89506 10.6867 8.30082 11.2699 7.72327C11.4094 7.58499 11.4249 7.49738 11.289 7.35195C11.0795 7.12844 10.8903 6.88645 10.6933 6.65161C10.6358 6.58307 10.5382 6.51155 10.6113 6.41559C10.6897 6.31247 10.7927 6.38579 10.8831 6.42334C10.9897 6.46744 11.0974 6.50857 11.2004 6.55983C11.6812 6.79764 12.1626 6.81671 12.6955 6.70526C13.3804 6.56221 14.0845 6.54373 14.7527 6.8483C14.9713 6.94784 15.176 7.06645 15.3533 7.22857C15.4227 7.29175 15.4808 7.33347 15.5652 7.24466C16.0861 6.6981 16.7705 6.6081 17.471 6.59559C17.9386 6.58724 18.4098 6.62241 18.875 6.61645C19.7474 6.60512 20.6299 6.56161 21.4155 6.09552C21.4987 6.04605 21.5963 5.97035 21.6867 6.06512C21.7645 6.14678 21.6975 6.24214 21.6592 6.32141C21.473 6.71181 21.155 6.97108 20.782 7.17135C20.2743 7.44433 19.7228 7.57724 19.1576 7.65949C18.2332 7.79479 17.2902 7.77512 16.3747 7.98254C15.9718 8.07373 15.561 8.15301 15.2257 8.4236C15.1808 8.45996 15.1323 8.47665 15.0784 8.4391C15.0192 8.39738 15.018 8.34314 15.0305 8.27698C15.0701 8.07135 15.1407 7.87705 15.2455 7.69824C15.3108 7.58678 15.3137 7.50989 15.209 7.42287C14.5983 6.91148 13.8923 6.76367 13.117 6.8632C12.7823 6.90612 12.4542 6.98718 12.1231 7.04738C11.8608 7.09506 11.6183 6.93771 11.3645 6.88228C11.3232 6.87334 11.2878 6.82446 11.2118 6.88645C12.6398 8.56903 14.0672 10.2504 15.5413 11.9867C15.594 11.489 15.5975 11.0622 15.7035 10.6498C15.7179 10.5937 15.682 10.5651 15.6395 10.5419C15.2102 10.3059 15.0066 9.9399 15.0599 9.4589C15.1162 8.9493 15.482 8.66499 15.8957 8.43254C16.1699 8.27817 16.4765 8.24837 16.7824 8.21738C17.8662 8.10711 18.9493 7.99446 20.033 7.88718C20.1252 7.87824 20.2515 7.83413 20.3006 7.95274C20.3479 8.06777 20.2551 8.15539 20.1809 8.23168C19.9947 8.4242 19.8091 8.61791 19.5791 8.76453C19.154 9.03572 18.6996 9.06195 18.229 8.93261C17.8225 8.82115 17.4482 8.60837 17.0249 8.54698C16.828 8.51837 16.6316 8.51479 16.3891 8.54936C16.5926 8.68228 16.783 8.75857 16.919 8.92009C17.4183 9.51374 17.1016 10.4477 16.3412 10.6051C15.9095 10.6945 15.8718 10.7475 15.8442 11.2041C15.8233 11.5545 15.785 11.9044 15.7538 12.2543C15.7484 12.3157 15.7448 12.3836 15.6748 12.4063C15.6035 12.4295 15.5592 12.3729 15.5203 12.3282C15.2227 11.9878 14.924 11.6481 14.6342 11.3012C14.5168 11.1606 14.4683 11.1665 14.3977 11.3412C14.1588 11.9348 13.9959 12.5457 13.963 13.1847C13.9534 13.3724 13.9798 13.5691 14.0277 13.7515C14.1336 14.152 14.2432 14.2229 14.6617 14.2229C15.8999 14.2229 17.1387 14.2229 18.3769 14.2229C18.6575 14.2229 18.7978 14.3664 18.7978 14.6533C18.7978 14.9596 18.805 15.266 18.7954 15.5718C18.7906 15.7303 18.8756 15.7756 19.0062 15.8197C19.1636 15.8728 19.3031 15.8441 19.4151 15.7482C19.4935 15.6814 19.384 15.6308 19.3409 15.5902C19.0972 15.359 18.9415 15.0866 18.9271 14.7463C18.8972 14.0131 19.1948 13.5888 19.9324 13.3122C19.9324 13.2163 19.8426 13.199 19.7863 13.1573C19.1073 12.6572 18.8295 11.9884 18.9283 11.1582C18.9385 11.0741 18.9445 10.9674 19.0594 10.9812C19.1912 10.9967 19.1654 11.1099 19.1511 11.1999C19.0109 12.0504 19.5624 12.8092 20.2012 13.1233C20.4425 13.2419 20.4928 13.2139 20.5455 12.9635C20.6539 12.4474 20.7635 11.9318 20.8832 11.4186C20.9221 11.2506 20.9012 11.1439 20.7455 11.0324C20.4018 10.7863 20.321 10.3452 20.5156 9.96493C20.6922 9.61983 21.0946 9.46963 21.528 9.58764C21.846 9.67407 22.0968 10.0484 22.0765 10.406C22.0537 10.8155 21.7556 11.1427 21.343 11.1916C21.2137 11.2071 21.1514 11.2583 21.1251 11.3805C21.0006 11.9551 20.8718 12.529 20.7467 13.1036C20.7191 13.2288 20.7658 13.2848 20.903 13.2842C21.8106 13.2824 22.4764 12.8104 22.768 11.9604C22.7962 11.8782 22.7896 11.7178 22.9333 11.7631C23.0728 11.8072 23.0081 11.9473 22.9788 12.0421C22.7537 12.7591 22.283 13.2347 21.5556 13.4487C21.4023 13.4934 21.2448 13.5232 21.061 13.5661C21.352 13.8618 21.5418 14.1884 21.5358 14.6068C21.5274 15.1903 21.2472 15.6236 20.7036 15.834C20.5575 15.8906 20.5515 15.8996 20.6437 16.051C20.888 16.4503 21.2814 16.5981 21.6723 16.7704C22.0873 16.9533 22.4878 17.1679 22.8698 17.4093C23.0333 17.513 23.1219 17.4749 23.2392 17.3509C23.4811 17.0946 23.7428 16.8562 23.9853 16.5999C24.1104 16.4676 24.2014 16.4747 24.3265 16.6011C25.224 17.5035 26.1263 18.4017 27.0274 19.3005C27.5543 19.8256 28.0752 20.3567 28.6135 20.8698C28.7662 21.0153 28.7584 21.1041 28.6183 21.2382C28.3578 21.4873 28.1118 21.7508 27.8501 21.9993C27.7417 22.1024 27.731 22.1817 27.8088 22.3134C28.4452 23.3934 28.9596 24.5271 29.302 25.7352C29.3374 25.8604 29.3685 25.9867 29.4026 26.1125C29.4609 26.3291 29.6056 26.4375 29.8367 26.4379C30.1367 26.4379 30.4373 26.4493 30.7366 26.4344C30.9593 26.423 31.0294 26.5047 31.0282 26.724C31.0204 27.9262 31.0246 29.1284 31.0246 30.3306C31.0246 31.0887 31.0246 31.8469 31.0246 32.6044C31.0246 32.9305 31.0234 32.9311 30.6863 32.9316C30.363 32.9316 30.0403 32.9376 29.717 32.9299C29.5523 32.9257 29.4637 32.9829 29.423 33.148C29.0811 34.5224 28.5542 35.8224 27.8076 37.0305C27.7226 37.1682 27.7339 37.254 27.8507 37.3637C28.1195 37.6152 28.3722 37.884 28.638 38.1391C28.747 38.2434 28.7704 38.3215 28.6506 38.4401C27.1903 39.8879 25.7336 41.3392 24.278 42.7923C24.1757 42.8948 24.105 42.8811 24.0116 42.7852C23.7488 42.5164 23.4745 42.2589 23.2153 41.9865C23.1075 41.8732 23.0219 41.8512 22.8806 41.9364C21.8298 42.5712 20.709 43.0492 19.5324 43.3991C19.3708 43.4474 19.2085 43.5016 19.0427 43.5248C18.8475 43.5523 18.7894 43.65 18.7948 43.8354C18.805 44.1799 18.7918 44.5244 18.7996 44.8689C18.8038 45.0483 18.7301 45.1115 18.5535 45.1097C17.9308 45.1037 17.3075 45.1067 16.6843 45.1085C16.4166 45.1091 16.3549 45.1663 16.4142 45.4208C16.4651 45.6401 16.3909 45.7897 16.2394 45.9298C16.0238 46.1295 15.7772 46.2868 15.5299 46.4394C15.1216 46.6909 14.812 47.0331 14.6575 47.4765C14.4318 48.1226 13.9301 48.4695 13.3571 48.7299C12.8278 48.9701 12.2704 49.0947 11.68 48.9153C11.3274 48.808 11.1609 48.6489 11.1741 48.3598C11.1843 48.1333 11.304 47.9503 11.5166 47.9259C11.9488 47.8758 12.1734 47.585 12.3817 47.2715C12.6823 46.8191 12.9146 46.3387 12.8841 45.7737C12.8751 45.608 12.9421 45.459 12.9888 45.3058C13.029 45.1752 12.9781 45.1144 12.8487 45.1109C12.7027 45.1067 12.5566 45.1031 12.4105 45.1085C12.2524 45.1144 12.1895 45.0447 12.1913 44.8891C12.1955 44.5214 12.1883 44.1542 12.1931 43.7865C12.1949 43.6393 12.135 43.5689 11.9896 43.5332C10.6304 43.1964 9.34553 42.6761 8.14626 41.9555C7.98281 41.8572 7.88401 41.8679 7.75588 42.0074C7.5116 42.2726 7.24337 42.5152 6.99489 42.7756C6.88293 42.8931 6.80509 42.8853 6.69313 42.7738C5.24897 41.3309 3.80242 39.8903 2.35288 38.4532C2.23014 38.3317 2.23313 38.2494 2.35528 38.1338C2.62291 37.8811 2.87737 37.614 3.14381 37.3601C3.24739 37.2612 3.27434 37.1819 3.19351 37.046C2.75882 36.3141 2.37204 35.5577 2.07926 34.7567C1.89006 34.2393 1.69966 33.722 1.5829 33.1832C1.54339 33.0008 1.45777 32.9245 1.26857 32.9293C0.914714 32.9382 0.56086 32.9257 0.207006 32.934C0.0447484 32.9382 -0.00135439 32.8798 -0.00135439 32.7201C0.00343551 30.6989 0.00403425 28.6772 -0.00195312 26.6561C-0.00195312 26.4802 0.0531307 26.4308 0.221975 26.4349C0.583013 26.4445 0.94465 26.4349 1.30629 26.4385C1.45298 26.4403 1.53501 26.3807 1.56794 26.2377C1.76672 25.3698 2.07986 24.5414 2.44149 23.729C2.65345 23.2522 2.90252 22.7956 3.17076 22.3492C3.26236 22.1972 3.25159 22.0971 3.11986 21.9755C2.85522 21.7305 2.60914 21.4659 2.34869 21.2167C2.23613 21.1089 2.22894 21.0296 2.3445 20.9151C3.79404 19.4781 5.24119 18.0381 6.68474 16.5951C6.80928 16.4706 6.8973 16.4777 7.00327 16.6041C7.10506 16.7257 7.21463 16.8407 7.33857 16.979L7.34156 16.9778ZM3.26476 0.341473C3.16297 0.445182 3.14621 0.550083 3.11388 0.648427C2.94862 1.15267 2.9576 1.67359 2.96778 2.19333C2.97078 2.33578 2.93904 2.45677 2.85642 2.57956C2.50556 3.10048 2.19302 3.64108 1.92598 4.21386C1.66733 4.76936 1.65356 5.34453 1.69966 5.9179C1.76193 6.69274 1.87748 7.464 2.0104 8.23228C2.14272 8.99996 2.26427 9.77062 2.35707 10.5437C2.42353 11.0974 2.484 11.6505 2.60136 12.1971C2.65285 12.4367 2.78218 12.6077 2.97257 12.7555C4.41673 13.8737 5.87705 14.9704 7.35772 16.0402C7.62596 16.2345 7.69362 16.4473 7.68164 16.7543C7.66128 17.2877 7.64272 17.8241 7.81277 18.3451C8.01095 18.9524 8.35822 19.4006 9.01862 19.5461C9.13238 19.5711 9.34793 19.5032 9.32518 19.6855C9.30302 19.8667 9.10245 19.7696 8.97551 19.7714C8.91085 19.772 8.83122 19.7106 8.78811 19.7892C8.75578 19.8477 8.82463 19.8989 8.84918 19.9532C8.86175 19.9812 8.87912 20.0068 8.89468 20.033C9.67783 21.3324 10.4538 22.6359 11.2453 23.9304C11.889 24.9824 12.4865 26.0618 13.1804 27.084C13.475 27.5179 13.6193 27.9942 13.5846 28.5359C13.5594 28.9323 13.4936 29.3281 13.5032 29.7232C13.5271 30.6959 13.3984 31.6615 13.399 32.633C13.399 33.1289 13.3295 33.6242 13.3223 34.1201C13.3146 34.6512 13.2679 35.1822 13.4684 35.7062C13.6313 36.1317 13.7103 36.5883 13.8247 37.0317C14.0211 37.794 13.9953 38.5784 14.0474 39.3544C14.1043 40.202 14.0839 41.0513 14.0881 41.9007C14.0923 42.7876 14.0103 43.6548 13.5906 44.4612C13.32 44.9803 13.1876 45.534 13.0876 46.1164C12.9332 47.0152 12.6027 47.8538 11.5842 48.1548C11.483 48.1846 11.4208 48.2722 11.3998 48.3747C11.3764 48.4868 11.4651 48.5368 11.5423 48.5875C11.6603 48.6638 11.7878 48.7144 11.9303 48.7198C12.2919 48.7329 12.6601 48.7568 13.0014 48.6197C13.6014 48.3783 14.1486 48.0725 14.4138 47.4246C14.6084 46.949 14.903 46.5437 15.3569 46.2672C15.5922 46.1235 15.8125 45.9554 16.0352 45.7927C16.2346 45.6467 16.161 45.4315 16.1556 45.2396C16.1514 45.0793 15.9969 45.1234 15.9065 45.0918C15.5131 44.9523 15.2054 44.5494 15.2575 44.1834C15.3275 43.6917 15.5604 43.2858 15.9861 43.0105C16.4052 42.7393 16.8297 42.477 17.2543 42.2148C17.6853 41.9483 18.117 41.6837 18.5517 41.4232C18.6313 41.3756 18.7194 41.2844 18.8217 41.3714C18.9122 41.4489 18.8475 41.5401 18.8205 41.6259C18.8068 41.6694 18.8032 41.7177 18.7834 41.7582C18.6834 41.9627 18.8008 41.9573 18.9403 41.9168C19.1906 41.8434 19.4408 41.7689 19.6875 41.6843C20.8964 41.2695 22.0082 40.6693 23.0422 39.9254C23.2207 39.7967 23.3326 39.8205 23.4691 39.9737C23.638 40.1621 23.829 40.3301 24.0038 40.5131C24.1008 40.615 24.1751 40.6383 24.2876 40.525C24.9857 39.8229 25.6875 39.125 26.3916 38.4294C26.5 38.3227 26.491 38.2423 26.3844 38.1433C26.2162 37.9866 26.0599 37.8173 25.8928 37.6593C25.6396 37.4203 25.6336 37.4197 25.8324 37.136C26.4646 36.236 27.0143 35.2919 27.4052 34.2608C27.7345 33.393 27.977 32.5019 28.1231 31.5864C28.1591 31.3605 28.2668 31.2991 28.4788 31.3128C28.7165 31.3277 28.9554 31.3128 29.1937 31.3164C29.3332 31.3182 29.4104 31.2705 29.4098 31.1185C29.4074 30.1387 29.408 29.1582 29.4098 28.1783C29.4098 28.0329 29.3416 27.9697 29.1985 27.9715C29.0141 27.9739 28.829 27.9733 28.6446 27.9703C28.1327 27.962 28.1776 28.0544 28.0758 27.4857C28.0459 27.3183 27.9687 27.2551 27.8082 27.2312C27.3909 27.1704 26.9748 27.1013 26.5604 27.0244C26.3185 26.9797 26.3024 26.9851 26.3545 27.2277C26.6269 28.5014 26.7317 29.784 26.5455 31.0786C26.3209 32.6402 25.8431 34.1177 24.9977 35.4618C23.6296 37.6367 21.746 39.1893 19.3199 40.0768C19.2031 40.1197 19.1205 40.1901 19.0696 40.2985C18.8319 40.7992 18.435 41.158 17.9997 41.4793C17.3632 41.9495 16.6298 42.2702 16.0017 42.7542C15.6634 43.0152 15.2958 43.2483 15.0928 43.6464C15.0629 43.7048 15.0258 43.7555 14.9527 43.7388C14.8647 43.718 14.8372 43.6458 14.8282 43.5648C14.7425 42.8072 14.9024 42.1462 15.5826 41.6962C15.6868 41.6277 15.7365 41.5454 15.7604 41.4215C15.8604 40.9035 15.9508 40.385 16.0316 39.864C16.1298 39.2287 16.2083 38.5921 16.1693 37.9484C16.1364 37.4019 15.9526 36.8881 15.7999 36.3677C15.6514 35.8629 15.4796 35.3628 15.6023 34.8169C15.7538 34.1428 15.9706 33.4901 16.2214 32.8494C16.8447 31.258 17.3872 29.6452 17.6321 27.9453C17.6644 27.7224 17.6309 27.6908 17.4129 27.7236C17.0082 27.7844 16.8208 27.5471 16.9393 27.1585C16.9573 27.1007 16.9705 27.0346 17.0076 26.9899C17.0956 26.885 17.1022 26.7979 17.0088 26.6889C16.9058 26.5679 16.9034 26.4254 16.9663 26.2782C17.0627 26.0529 17.1573 25.827 17.3159 25.6345C17.5009 25.4098 17.6841 25.1833 17.865 24.9544C18.1092 24.6457 18.0913 24.2934 17.8117 24.0276C17.3506 23.5889 16.8866 23.1526 16.4178 22.7223C16.2933 22.6085 16.2472 22.4839 16.2502 22.3182C16.2717 21.0791 16.2873 19.8393 16.3053 18.6002C16.3064 18.5084 16.3023 18.4154 16.3142 18.3248C16.334 18.1716 16.4112 18.1019 16.5687 18.18C16.6304 18.2104 16.6962 18.2354 16.7543 18.2718C17.4375 18.6937 18.135 19.0681 18.9684 19.1104C19.1349 19.1187 19.2157 19.099 19.251 18.9435C19.3019 18.72 19.3426 18.4935 19.4049 18.273C19.4444 18.1323 19.3953 18.0655 19.2756 18.0006C18.7277 17.7037 18.4954 17.2144 18.6379 16.616C18.681 16.4354 18.6128 16.3907 18.4691 16.3436C17.9727 16.1809 17.4716 16.0331 16.986 15.8406C16.1436 15.5062 15.2952 15.1897 14.5228 14.7016C14.0121 14.3785 13.7439 13.9386 13.7301 13.3414C13.7157 12.746 13.8079 12.1547 14.0576 11.6243C14.3091 11.0902 14.2163 10.732 13.8151 10.3076C13.0894 9.53996 12.4344 8.70612 11.7549 7.89552C11.6441 7.7632 11.5621 7.7495 11.4441 7.88181C11.3112 8.03022 11.1669 8.1685 11.0214 8.30499C10.9214 8.39917 10.9154 8.47546 11.0226 8.56963C11.2298 8.75201 11.4321 8.94036 11.6327 9.12989C11.6926 9.18592 11.7722 9.25268 11.686 9.34208C11.6016 9.4297 11.5303 9.35519 11.4687 9.30036C11.2801 9.13168 11.0867 8.96718 10.9112 8.78539C10.7813 8.65069 10.6861 8.634 10.5586 8.78539C10.4209 8.9493 10.2646 9.09831 10.1137 9.25089C9.71615 9.65261 9.71376 9.6538 10.1227 10.0573C10.2388 10.1718 10.3137 10.2689 10.2424 10.4549C10.1478 10.7022 10.1993 10.7594 10.4759 10.8351C10.5376 10.8518 10.6011 10.8739 10.6071 10.9454C10.6137 11.03 10.546 11.0658 10.4777 11.0831C10.4191 11.098 10.3562 11.0992 10.2951 11.101C10.1987 11.1033 10.1377 11.1379 10.1173 11.241C10.0646 11.511 10.0011 11.7786 9.95086 12.0492C9.92571 12.1839 9.96283 12.2561 10.1269 12.2006C10.549 12.0588 10.9747 11.9271 11.3986 11.7918C11.962 11.6123 12.5254 11.4329 13.09 11.2553C13.1727 11.2297 13.2703 11.2094 13.3026 11.3197C13.3313 11.418 13.2391 11.4455 13.1691 11.4759C13.1337 11.4908 13.0966 11.5009 13.0601 11.5122C12.344 11.7423 11.6285 11.9747 10.9112 12.2012C10.7945 12.2382 10.6987 12.29 10.7382 12.4223C10.819 12.6935 10.7753 12.9683 10.7903 13.2413C10.8059 13.5381 10.6634 13.6746 10.3688 13.6084C9.81255 13.4839 9.26231 13.3241 8.75638 13.0655C8.04088 12.7001 7.29845 12.417 6.52967 12.1905C6.24707 12.1071 5.93872 12.0731 5.71838 11.8359C5.44656 11.5438 5.16335 11.2631 4.88973 10.9728C4.53288 10.5937 4.26106 10.1676 4.12394 9.65797C3.77249 8.35148 3.50246 7.02711 3.20608 5.7081C3.17734 5.58115 3.10609 5.42916 3.20907 5.30936C3.51443 4.95294 3.6707 4.51903 3.86948 4.10598C4.0958 3.63572 4.49396 3.47002 4.9987 3.62141C5.06516 3.64108 5.12863 3.67088 5.19628 3.68459C5.25556 3.69711 5.3322 3.70903 5.36812 3.65419C5.40824 3.5928 5.34717 3.53916 5.30705 3.49744C5.17952 3.36452 5.02504 3.29062 4.83584 3.2924C4.44367 3.29598 4.0521 3.29777 3.65992 3.29836C3.58329 3.29836 3.50485 3.30015 3.43061 3.28466C3.34858 3.26737 3.28571 3.21254 3.31984 3.11956C3.34678 3.04505 3.41265 3.01883 3.48988 3.05518C3.6234 3.11836 3.75872 3.10168 3.89583 3.07307C4.28381 2.99081 4.6682 2.99499 5.05857 3.08141C5.18371 3.10942 5.40644 3.23638 5.44536 3.08677C5.48667 2.92823 5.26394 2.83525 5.10348 2.77446C5.08911 2.76909 5.07414 2.76492 5.05917 2.76075C4.80291 2.68863 4.54426 2.68088 4.28321 2.72797C4.05569 2.76909 3.82697 2.7983 3.59586 2.77684C3.50365 2.7685 3.42881 2.7232 3.4342 2.6183C3.44019 2.50446 3.52461 2.5277 3.60484 2.5277C3.78865 2.5277 3.97246 2.51459 4.15628 2.50803C4.50115 2.49611 4.84662 2.46333 5.1879 2.54975C5.24897 2.56525 5.3304 2.62366 5.37531 2.5432C5.41662 2.46929 5.33699 2.41982 5.29208 2.37154C5.05678 2.12061 4.74304 2.12121 4.43649 2.12777C4.15328 2.13373 3.87128 2.17187 3.58808 2.19214C3.40786 2.20465 3.30308 2.13253 3.27254 1.94002C3.24081 1.74094 3.24739 1.54724 3.25937 1.34757C3.27853 1.02452 3.26476 0.700281 3.26476 0.342665V0.341473ZM13.3122 28.865C13.3122 28.7809 13.308 28.6963 13.3128 28.6122C13.3427 28.0973 13.275 27.6145 12.9583 27.177C12.3733 26.3694 11.9099 25.4849 11.3872 24.6379C10.9082 23.8625 10.4448 23.0775 9.98259 22.292C9.87721 22.1132 9.78381 22.0631 9.61437 22.2181C9.34254 22.466 9.04197 22.6847 8.78452 22.9458C7.91515 23.8267 7.22421 24.8269 6.72785 25.9659C6.10517 27.394 5.90279 28.8858 5.99201 30.4212C6.02853 31.0524 6.15905 31.6752 6.33628 32.2885C6.73564 33.6654 7.41221 34.8908 8.3636 35.9565C9.74788 37.5068 11.4681 38.5057 13.5032 38.9617C13.7498 39.0171 13.8091 38.976 13.8049 38.7203C13.7918 37.8411 13.572 36.9977 13.3529 36.1538C13.2212 35.646 12.9936 35.1554 13.0667 34.6101C13.102 34.3442 13.1188 34.0784 13.1164 33.8102C13.1128 33.4055 13.1092 32.9978 13.1409 32.5973C13.2391 31.3546 13.2128 30.1071 13.3128 28.865H13.3122ZM1.59009 29.6148C1.59009 30.1047 1.59428 30.5946 1.58769 31.0846C1.5859 31.2497 1.64457 31.3248 1.81581 31.317C1.98466 31.3093 2.1541 31.3158 2.32354 31.3158C2.63848 31.3158 2.83087 31.4662 2.90072 31.767C2.9109 31.8117 2.92887 31.8546 2.93665 31.8999C3.151 33.1373 3.55215 34.3138 4.12275 35.432C4.41493 36.0054 4.75561 36.5525 5.13162 37.0758C5.28809 37.2936 5.27452 37.4956 5.09091 37.682C4.93464 37.8399 4.78016 38.0009 4.6173 38.1522C4.51133 38.2506 4.49816 38.3251 4.60892 38.4348C5.31364 39.1297 6.01476 39.8283 6.71348 40.5298C6.81407 40.6311 6.88712 40.6246 6.97992 40.525C7.11045 40.385 7.25055 40.2532 7.38646 40.118C7.73912 39.7681 7.74152 39.7651 8.15165 40.0542C9.16172 40.767 10.2484 41.3273 11.4232 41.7195C12.1386 41.9585 12.8697 42.1283 13.6121 42.2529C13.7187 42.2708 13.8235 42.2893 13.8229 42.1349C13.8217 41.6921 13.8151 41.2486 13.8121 40.8058C13.8109 40.6776 13.7546 40.6192 13.6211 40.5983C12.8218 40.4738 12.047 40.2527 11.301 39.9445C10.1496 39.4689 9.09346 38.8347 8.15824 38.0098C7.05177 37.0341 6.16085 35.8921 5.51062 34.5701C5.01786 33.5682 4.69993 32.5132 4.50893 31.4106C4.37302 30.628 4.3371 29.8395 4.37961 29.0628C4.44367 27.8887 4.68556 26.7342 5.13282 25.6315C5.65971 24.3328 6.3758 23.1568 7.34934 22.1412C7.81696 21.6536 8.29595 21.1786 8.84978 20.7852C8.91504 20.7387 9.00844 20.6916 8.94438 20.5849C8.71985 20.2106 8.51089 19.8268 8.25344 19.4728C8.15644 19.3398 8.04627 19.3279 7.92653 19.44C7.78642 19.5711 7.67506 19.5294 7.55471 19.403C7.36431 19.2034 7.15595 19.0204 6.96675 18.8195C6.87275 18.72 6.81707 18.7319 6.72725 18.8225C6.02374 19.5294 5.31663 20.2333 4.60713 20.9342C4.50953 21.0308 4.49816 21.1035 4.60234 21.1994C4.73765 21.324 4.86698 21.4557 4.99451 21.5887C5.41003 22.0214 5.41482 21.8587 5.05438 22.376C3.91439 24.0127 3.17794 25.8079 2.87917 27.7778C2.85702 27.9244 2.79295 27.9739 2.65464 27.9721C2.38521 27.9685 2.11578 27.9816 1.84695 27.9685C1.63978 27.9584 1.58171 28.0418 1.5859 28.2373C1.59668 28.6963 1.58949 29.1558 1.58949 29.6154L1.59009 29.6148ZM25.0295 29.5325C25.048 28.8387 24.9127 28.0287 24.7103 27.2253C24.6762 27.0906 24.6097 27.0578 24.4858 27.0566C24.2619 27.0548 24.1379 27.1985 24.0236 27.3552C23.3099 28.3327 22.6351 29.337 21.9657 30.3449C21.4107 31.1799 20.8425 32.006 20.3497 32.8816C20.1875 33.1701 19.9695 33.4204 19.7205 33.6397C19.3606 33.9562 18.9625 34.1124 18.4715 33.9604C17.7937 33.75 17.2441 33.3381 16.7124 32.8947C16.525 32.7385 16.5196 32.7397 16.4292 32.9734C16.2544 33.4222 16.1011 33.8787 15.9718 34.3418C15.8448 34.7966 15.7077 35.2496 15.8604 35.7342C16.0232 36.2515 16.1663 36.776 16.3029 37.3011C16.4382 37.8221 16.5028 38.3507 16.4023 38.8889C16.3633 39.0964 16.413 39.1446 16.6358 39.1136C17.1752 39.0379 17.7105 38.9342 18.2296 38.7733C20.5707 38.0462 22.392 36.6377 23.6679 34.5564C24.5834 33.0628 25.0414 31.4285 25.0289 29.5337L25.0295 29.5325ZM28.0668 26.8301C28.0279 26.6191 27.8543 26.4832 27.6789 26.364C27.1149 25.9802 26.4958 25.7525 25.803 25.7591C25.4665 25.762 25.1761 25.6655 24.9199 25.4348C24.6576 25.1988 24.3577 25.0087 24.0409 24.8471C23.935 24.7935 23.8452 24.7661 23.7703 24.899C23.3266 25.6816 22.7297 26.3575 22.2256 27.0977C21.8172 27.6979 21.2724 28.0979 20.6024 28.3619C20.0785 28.5687 19.6414 28.8995 19.3241 29.3769C19.1337 29.6636 18.9277 29.9414 18.7176 30.2144C18.4954 30.5028 18.2338 30.5261 17.9691 30.2769C17.8422 30.1571 17.7476 30.0046 17.635 29.8693C17.6039 29.8317 17.5931 29.7554 17.5237 29.7751C17.4758 29.7888 17.4776 29.8484 17.4656 29.8925C17.286 30.5732 17.0866 31.2473 16.8297 31.9035C16.6757 32.2969 16.7651 32.6267 17.098 32.8929C17.5063 33.2213 17.9296 33.5265 18.429 33.7041C18.7822 33.8299 19.1151 33.8048 19.4271 33.5628C19.736 33.3232 19.9893 33.0342 20.1791 32.7028C20.6096 31.9512 21.085 31.2288 21.5664 30.5094C22.3118 29.3948 23.0363 28.2659 23.8457 27.1949C23.9978 26.994 24.1481 26.817 24.4391 26.8319C24.5894 26.8397 24.7427 26.7967 24.8941 26.7729C25.36 26.7002 25.83 26.6751 26.2952 26.7371C26.8263 26.8081 27.3526 26.9153 27.88 27.0125C28.0207 27.0381 28.0615 26.9732 28.0662 26.8295L28.0668 26.8301ZM17.6147 29.3096C17.6171 29.4687 18.0697 30.1047 18.2368 30.1756C18.3523 30.2245 18.4332 30.1714 18.4984 30.0916C18.6194 29.9432 18.7499 29.7989 18.8457 29.635C19.2995 28.8542 19.9528 28.319 20.7982 28.0025C21.0796 27.897 21.3556 27.7569 21.5514 27.5269C21.8639 27.1597 22.1471 26.7675 22.4447 26.3879C22.5189 26.2931 22.5052 26.2305 22.3974 26.1715C21.7891 25.8383 21.2418 25.374 20.5054 25.3204C20.4371 25.3156 20.3389 25.3132 20.3288 25.2083C20.3186 25.1028 20.406 25.0647 20.4808 25.0295C20.8269 24.8668 21.1832 24.9026 21.54 24.9836C22.0106 25.0903 22.41 25.3645 22.8489 25.5451C22.9698 25.5946 23.047 25.5981 23.1141 25.4748C23.2009 25.3162 23.0536 25.3102 22.9794 25.2739C22.5172 25.0492 22.0507 24.831 21.5867 24.6099C21.525 24.5807 21.449 24.5533 21.4484 24.4722C21.4484 24.3787 21.5304 24.353 21.6023 24.325C22.1196 24.1224 22.5423 24.2434 22.8866 24.6838C22.9854 24.8102 23.0991 24.9246 23.2099 25.042C23.2512 25.0855 23.2967 25.135 23.3686 25.0975C23.4931 25.0331 23.5925 24.6731 23.517 24.5521C23.3632 24.3047 23.1841 24.0753 23.0069 23.844C22.5369 23.2331 21.9897 22.6996 21.3891 22.2192C21.1963 22.0649 21.1784 22.0714 21.0736 22.3021C21.0012 22.4618 20.9299 22.6228 20.8539 22.7813C20.5401 23.4381 20.0905 23.9984 19.5929 24.5235C19.5121 24.6093 19.4504 24.7023 19.4193 24.8161C19.3504 25.0665 19.2834 25.318 19.2073 25.5659C19.0409 26.1101 18.8762 26.6751 18.4517 27.0679C18.0925 27.4005 17.8422 27.7295 17.8201 28.2385C17.8045 28.5926 17.6883 28.9418 17.6141 29.3102L17.6147 29.3096ZM27.7531 26.0821C27.6244 25.7102 27.5286 25.3979 27.41 25.0945C26.9939 24.0264 26.4275 23.0388 25.7569 22.1102C25.6647 21.9826 25.6779 21.8986 25.7863 21.7967C25.9868 21.6071 26.1748 21.4045 26.3754 21.2149C26.4868 21.11 26.5035 21.026 26.3862 20.9104C25.6773 20.2106 24.972 19.5073 24.2679 18.8022C24.1828 18.717 24.1206 18.7188 24.0385 18.8028C23.8619 18.984 23.6805 19.1598 23.4991 19.3363C23.256 19.5735 23.2524 19.5765 22.9692 19.3732C22.5195 19.0514 22.0489 18.7635 21.5694 18.4893C21.5179 18.4601 21.4622 18.4053 21.4017 18.4375C21.3263 18.4774 21.3766 18.5495 21.3915 18.602C21.531 19.0859 21.5388 19.5824 21.5226 20.0789C21.5167 20.2661 21.5753 20.3847 21.7364 20.4937C23.5404 21.7174 24.8774 23.3285 25.739 25.3269C25.7976 25.4634 25.8803 25.523 26.0341 25.5272C26.3742 25.5373 26.7029 25.6136 27.0155 25.7513C27.2388 25.8497 27.4609 25.951 27.7531 26.0821ZM21.3299 19.8435C21.2993 19.3869 21.2394 18.9101 21.0999 18.4464C21.0179 18.174 20.615 17.9392 20.3395 18.0149C20.1611 18.0637 19.9857 18.1192 19.8007 18.1359C19.7246 18.143 19.6642 18.1681 19.6468 18.2479C19.5857 18.5239 19.5259 18.8004 19.4672 19.0776C19.4504 19.1563 19.4708 19.2206 19.5612 19.2278C19.7947 19.2475 19.8067 19.4096 19.818 19.5896C19.8396 19.9293 19.76 20.2589 19.7312 20.5933C19.6342 21.7299 19.3223 22.804 18.7768 23.8035C18.4751 24.3566 18.132 24.9008 18.0805 25.5332C18.0332 26.1191 17.6871 26.5071 17.3638 26.9285C17.3219 26.9833 17.2788 27.0375 17.2411 27.0948C17.1734 27.1979 17.0824 27.3147 17.1758 27.4291C17.2722 27.5471 17.4171 27.5018 17.5387 27.4518C17.8356 27.3296 18.0805 27.1347 18.2889 26.8933C18.7553 26.3527 18.9325 25.6851 19.1139 25.02C19.1972 24.7154 19.3073 24.4341 19.5414 24.1987C20.7323 23.0018 21.2496 21.5243 21.3293 19.8441L21.3299 19.8435ZM16.5094 22.19C16.4699 22.3706 16.5286 22.4702 16.6238 22.5602C17.074 22.9869 17.5219 23.4167 17.9709 23.844C18.014 23.8851 18.0566 23.9471 18.1254 23.9203C18.1931 23.8947 18.1829 23.8202 18.1955 23.7612C18.3122 23.2087 18.4248 22.6549 18.5475 22.1036C18.7313 21.2769 18.9211 20.452 19.1109 19.6265C19.154 19.44 19.1127 19.3404 18.8972 19.3226C18.6535 19.3023 18.4128 19.2486 18.1715 19.2051C17.6752 19.1163 17.2662 18.8392 16.8441 18.59C16.5699 18.4279 16.5477 18.4434 16.5412 18.751C16.5166 19.912 16.5639 21.0737 16.5094 22.1894V22.19ZM20.2294 13.5369C19.6486 13.5369 19.1301 14.0435 19.1301 14.6127C19.1301 15.1808 19.6522 15.6939 20.2276 15.691C20.7964 15.6886 21.3215 15.1843 21.3251 14.6372C21.3293 14.0471 20.8215 13.5369 20.2294 13.5369ZM21.2568 6.47221C21.1676 6.49784 21.1173 6.50976 21.0688 6.52704C20.5012 6.73327 19.9162 6.834 19.3121 6.83221C18.6056 6.82983 17.8991 6.82387 17.1932 6.83757C16.6471 6.84771 16.1508 7.01102 15.7556 7.40857C15.5916 7.57367 15.4604 7.76201 15.3688 7.99267C15.4245 7.99625 15.4413 8.00221 15.4538 7.99744C16.4909 7.62433 17.5818 7.56711 18.6631 7.47592C19.3678 7.41632 20.042 7.27983 20.6718 6.95618C20.8874 6.84532 21.091 6.71539 21.2562 6.47281L21.2568 6.47221ZM20.779 16.9098C20.8215 16.467 20.3455 15.927 19.8091 15.9622C19.2732 15.9973 18.8289 16.371 18.8325 16.8544C18.8373 17.4439 19.2552 17.8903 19.8049 17.8921C20.3419 17.8939 20.7802 17.4516 20.7784 16.9098H20.779ZM15.0216 43.2304C15.2976 43.0039 15.5269 42.8036 15.7694 42.6195C16.313 42.2052 16.9249 41.8965 17.5003 41.5305C18.0146 41.2033 18.4888 40.8296 18.8014 40.2908C18.8505 40.2068 18.9128 40.1233 18.9068 39.9648C18.2745 40.6627 17.468 40.9917 16.6872 41.366C16.3352 41.5347 15.9754 41.6944 15.6628 41.934C15.2509 42.2493 15.0264 42.66 15.0216 43.2304ZM16.0873 10.4084C16.5256 10.4137 16.9405 10.0108 16.9381 9.58228C16.9357 9.17817 16.5352 8.77943 16.1184 8.76632C15.7053 8.7538 15.2838 9.15672 15.2712 9.57691C15.2587 9.99652 15.658 10.403 16.0879 10.4084H16.0873ZM16.8519 44.2228C16.8531 43.8413 16.5675 43.5451 16.1939 43.5403C15.8412 43.5356 15.5113 43.8473 15.5107 44.1846C15.5101 44.5935 15.8023 44.9023 16.1903 44.9029C16.5591 44.9029 16.8507 44.6036 16.8519 44.2228ZM18.4481 23.7874C19.2001 22.5578 19.548 21.2179 19.533 19.7851C19.5318 19.6897 19.6085 19.521 19.4732 19.5079C19.3271 19.4936 19.3355 19.6742 19.3073 19.7869C19.3037 19.8018 19.3031 19.8173 19.3001 19.8322C19.1696 20.4359 19.0385 21.0397 18.908 21.6435C18.7541 22.3581 18.6008 23.0728 18.4475 23.7874H18.4481ZM21.8352 10.3661C21.834 10.0317 21.57 9.76884 21.2394 9.77122C20.9215 9.7736 20.6449 10.0591 20.6497 10.3792C20.6551 10.7112 20.9341 10.9627 21.2897 10.9561C21.5897 10.9508 21.8364 10.6837 21.8346 10.3655L21.8352 10.3661ZM17.5237 8.38128C18.5775 8.95347 19.457 8.87241 19.8522 8.15837C19.0582 8.1834 18.2949 8.32347 17.5237 8.38128ZM17.7752 40.5304C17.6003 40.5602 17.4943 40.5775 17.3896 40.5972C17.0734 40.6562 16.7555 40.6943 16.4322 40.7027C16.313 40.7056 16.1532 40.6955 16.1053 40.8552C16.0688 40.978 16.055 41.108 16.037 41.2349C16.0173 41.3714 16.0705 41.4 16.1933 41.3392C16.3855 41.2444 16.5831 41.161 16.7747 41.065C17.0938 40.9041 17.4303 40.7748 17.7758 40.5304H17.7752ZM18.5128 41.7308C17.9488 42.0753 17.4375 42.3882 16.8782 42.7303C17.7662 42.815 18.323 42.4806 18.5128 41.7308ZM21.0784 25.1684C21.4544 25.3383 21.819 25.526 22.1627 25.7519C22.2902 25.8359 22.4267 25.9069 22.5585 25.9849C22.662 26.0457 22.7381 26.004 22.7896 25.9146C22.8542 25.8026 22.7578 25.7668 22.6836 25.7299C22.4776 25.6285 22.2717 25.526 22.0615 25.4324C21.749 25.2936 21.4352 25.1559 21.0784 25.1678V25.1684ZM16.1532 43.2751C16.3963 43.3335 16.6064 43.3925 16.7992 43.5052C16.8639 43.5427 16.9657 43.5326 17.0471 43.5213C17.2351 43.495 17.1704 43.3395 17.1764 43.2298C17.1812 43.1374 17.2034 42.995 17.0567 43.0045C16.7489 43.0242 16.4358 43.048 16.1532 43.2757V43.2751ZM17.7955 25.4366C17.5345 25.7281 17.3327 25.982 17.2165 26.2919C17.1854 26.3748 17.1489 26.4874 17.2483 26.5387C17.3447 26.5881 17.3878 26.4779 17.4393 26.4177C17.6662 26.1554 17.7692 25.8461 17.7949 25.4366H17.7955Z" fill="#D8D4D4"/>
<path d="M50.9138 33.3532C50.9138 32.986 50.9078 32.6183 50.9162 32.2517C50.9204 32.0759 50.8581 31.9847 50.6767 32.0127C50.4563 32.0467 50.4342 31.9203 50.4509 31.7546C50.4665 31.6015 50.3827 31.394 50.6701 31.4012C50.9772 31.4089 51.285 31.403 51.5921 31.403C51.6987 31.403 51.7951 31.4137 51.8035 31.5532C51.8143 31.7332 51.9059 31.6766 52.0023 31.6199C52.3256 31.4292 52.6681 31.3285 53.0519 31.344C53.3153 31.3547 53.5368 31.4238 53.7021 31.6259C53.7895 31.7326 53.85 31.7284 53.9673 31.6593C54.3469 31.434 54.7445 31.2772 55.2091 31.3386C55.6606 31.3982 55.9396 31.6658 56.0018 32.1218C56.0767 32.6707 56.0402 33.2215 56.0425 33.771C56.0437 33.9736 56.0779 34.1006 56.3174 34.072C56.4209 34.0595 56.4617 34.1101 56.4706 34.2192C56.5054 34.6412 56.4838 34.6686 56.0401 34.7264C55.8881 34.7461 55.7384 34.7735 55.5827 34.7437C55.2325 34.6764 55.1187 34.5577 55.1145 34.2079C55.1085 33.7108 55.1121 33.2131 55.1115 32.716C55.1109 32.1242 54.8666 31.9489 54.2906 32.1266C53.9751 32.2237 53.9589 32.2607 53.9625 32.5849C53.9703 33.2197 53.9625 33.855 53.9673 34.4898C53.9685 34.6442 53.9098 34.7169 53.7512 34.7121C53.5901 34.7074 53.4279 34.7056 53.2668 34.7127C53.0848 34.7211 53.0255 34.6382 53.0285 34.4642C53.0357 34.0207 53.0309 33.5767 53.0309 33.1332C53.0309 33.0182 53.0387 32.9032 53.0291 32.7893C53.0087 32.5515 53.068 32.2583 52.7938 32.1403C52.5202 32.0222 52.2364 32.1051 51.9765 32.2446C51.8538 32.3107 51.846 32.421 51.8466 32.5396C51.8478 33.1672 51.8394 33.7942 51.8508 34.4219C51.855 34.6394 51.7855 34.7199 51.5622 34.7151C50.8084 34.7002 50.9227 34.786 50.9132 34.0875C50.9102 33.8425 50.9132 33.5975 50.9126 33.3532H50.9138Z" fill="#D8D4D4"/>
<path d="M49.7706 24.5955C50.0514 24.4244 50.3232 24.3004 50.6232 24.2569C50.9932 24.2027 51.3507 24.2128 51.6141 24.5347C51.7105 24.6527 51.7925 24.5979 51.8925 24.54C52.3236 24.2915 52.7786 24.1526 53.2822 24.273C53.6055 24.3505 53.7941 24.5579 53.8809 24.8732C54.0342 25.4311 53.948 26.0003 53.9641 26.5642C53.9701 26.7811 53.9438 26.9873 54.2659 26.9677C54.3767 26.9611 54.3916 27.069 54.3827 27.1554C54.3683 27.2967 54.4563 27.4797 54.2509 27.5524C53.9785 27.6489 53.6941 27.6763 53.4097 27.6304C53.1541 27.5893 53.0313 27.4075 53.0289 27.1363C53.0229 26.563 53.0684 25.9878 53.0038 25.4156C52.9619 25.0455 52.8469 24.9585 52.4739 24.9745C52.4128 24.9775 52.3506 24.9823 52.2907 24.9948C51.8967 25.0795 51.8488 25.1385 51.8488 25.5378C51.8482 26.135 51.8434 26.7322 51.8518 27.3295C51.8548 27.5232 51.7955 27.6161 51.589 27.5995C51.4513 27.5881 51.3117 27.5881 51.174 27.5995C50.9663 27.6167 50.9094 27.522 50.9118 27.3289C50.9196 26.709 50.916 26.0885 50.9142 25.4687C50.913 25.1057 50.7453 24.9549 50.3825 24.9775C50.2574 24.9853 50.1424 25.027 50.0269 25.0693C49.8161 25.1468 49.7185 25.2803 49.7245 25.5205C49.7401 26.1404 49.7233 26.7608 49.7341 27.3807C49.7371 27.5583 49.6766 27.6114 49.5089 27.6001C49.3485 27.5887 49.1856 27.5899 49.0246 27.5995C48.8312 27.6108 48.7947 27.5065 48.7953 27.3432C48.7994 26.6387 48.7929 25.9342 48.7988 25.2302C48.8006 25.0276 48.7988 24.8553 48.5186 24.884C48.427 24.8935 48.3797 24.8303 48.3773 24.7397C48.3749 24.6479 48.3761 24.5561 48.3743 24.4644C48.3719 24.3416 48.4288 24.2802 48.5546 24.2808C48.9006 24.282 49.2467 24.2826 49.5928 24.2808C49.8095 24.2796 49.7299 24.456 49.7718 24.5961L49.7706 24.5955Z" fill="#D8D4D4"/>
<path d="M44.5875 33.3671C44.5875 32.9994 44.5833 32.6322 44.5893 32.2645C44.5917 32.0976 44.5444 32.01 44.3564 32.007C44.0785 32.0028 44.0821 31.9808 44.0767 31.6428C44.0731 31.4193 44.1911 31.3955 44.3671 31.3996C44.6593 31.4068 44.9515 31.4026 45.2437 31.4014C45.3592 31.4014 45.4628 31.411 45.4694 31.5624C45.476 31.7191 45.5598 31.6643 45.6365 31.619C45.9747 31.4205 46.3328 31.3156 46.7327 31.343C46.9668 31.3591 47.183 31.411 47.3201 31.6023C47.4345 31.7626 47.5201 31.7233 47.6548 31.6386C48.0128 31.4122 48.3996 31.2804 48.8343 31.3335C49.3384 31.3955 49.6468 31.7024 49.6654 32.2108C49.6845 32.7461 49.6803 33.2825 49.6773 33.8183C49.6761 33.9852 49.7168 34.0836 49.9078 34.071C50.006 34.0645 50.1336 34.0609 50.133 34.2016C50.1324 34.3565 50.2306 34.5639 50.0114 34.645C49.6899 34.7636 49.354 34.8101 49.0199 34.6927C48.881 34.6438 48.8134 34.5276 48.787 34.3768C48.7062 33.9196 48.7649 33.4601 48.7469 33.0024C48.7397 32.8265 48.7469 32.6501 48.7343 32.4749C48.7134 32.1924 48.5439 32.0469 48.2613 32.066C48.1547 32.0731 48.047 32.0928 47.944 32.122C47.6021 32.221 47.5596 32.2818 47.5596 32.6376C47.5596 33.2426 47.5548 33.8469 47.5626 34.4519C47.565 34.6361 47.5057 34.7159 47.3123 34.7124C46.5376 34.6981 46.6801 34.8012 46.6687 34.0919C46.6615 33.6175 46.6585 33.1424 46.6693 32.668C46.6824 32.0964 46.3903 32.01 45.8783 32.1399C45.5209 32.2305 45.5209 32.2692 45.5215 32.6364C45.5221 33.2336 45.5161 33.8308 45.5245 34.4275C45.5275 34.6343 45.455 34.7165 45.2437 34.7124C44.4599 34.6963 44.603 34.8053 44.5893 34.0782C44.5845 33.841 44.5887 33.6037 44.5887 33.3665L44.5875 33.3671Z" fill="#D8D4D4"/>
<path d="M76.1924 31.9132C76.3924 31.9132 76.5924 31.918 76.7918 31.9114C76.9786 31.9055 77.0085 32.0151 76.9983 32.1629C76.9894 32.3 77.0421 32.4818 76.8038 32.4669C76.6325 32.4562 76.5499 32.5313 76.5188 32.6928C76.4355 33.1202 76.202 33.47 75.9182 33.7871C75.82 33.8968 75.832 33.9606 75.9338 34.0476C76.1272 34.2133 76.3361 34.3569 76.5613 34.472C76.7014 34.5435 76.7337 34.6144 76.6517 34.7581C76.4301 35.1449 76.4385 35.1431 76.0463 34.9083C75.8224 34.7741 75.5931 34.6466 75.3961 34.4755C75.2776 34.3724 75.177 34.3778 75.0435 34.4475C74.6028 34.6782 74.134 34.7986 73.6316 34.7986C72.9311 34.7986 72.2869 34.3575 72.1605 33.7675C72.0234 33.1255 72.2731 32.6332 72.773 32.2422C72.8156 32.2094 72.8611 32.1802 72.906 32.1504C73.0828 32.0344 73.1211 31.8854 73.0209 31.7034C72.7317 31.1783 72.8557 30.4953 73.2922 30.2169C73.7161 29.9463 74.6202 29.9809 74.9459 30.4792C75.1686 30.8195 75.1572 31.2927 74.8794 31.6086C74.7273 31.7821 74.5627 31.9442 74.3525 32.0485C74.2136 32.1171 74.204 32.1975 74.2992 32.3161C74.5866 32.6749 74.8758 33.0314 75.1878 33.3705C75.2662 33.4557 75.3273 33.4623 75.3913 33.3753C75.5548 33.1541 75.723 32.936 75.8033 32.6648C75.8488 32.5104 75.7829 32.4765 75.6476 32.4681C75.556 32.4628 75.4207 32.5241 75.3835 32.4002C75.3452 32.2714 75.3518 32.126 75.3931 31.9931C75.4183 31.9138 75.5009 31.9156 75.5698 31.9144C75.7775 31.912 75.9847 31.9138 76.1924 31.9132ZM73.8765 34.1608C74.11 34.1739 74.3591 34.0834 74.5974 33.9492C74.6818 33.9016 74.7118 33.8586 74.6339 33.7758C74.2938 33.4128 73.9849 33.023 73.6736 32.6362C73.6245 32.5754 73.5646 32.5098 73.4808 32.5712C73.2329 32.7524 72.9754 32.93 72.9401 33.2733C72.8856 33.7984 73.2508 34.1608 73.8771 34.1608H73.8765ZM73.5945 31.0549C73.576 31.2439 73.6993 31.3988 73.7885 31.5657C73.828 31.6396 73.8867 31.6533 73.9609 31.6075C74.1112 31.5145 74.2681 31.4245 74.3621 31.2713C74.4639 31.105 74.4842 30.9226 74.3633 30.7563C74.2406 30.5877 74.0597 30.5435 73.8705 30.6109C73.6795 30.6788 73.579 30.8267 73.5945 31.0549Z" fill="#D8D4D4"/>
<path d="M45.1785 21.2596C44.9324 21.2596 44.6863 21.253 44.4408 21.2614C44.2348 21.2685 44.2181 21.1404 44.2289 20.9914C44.239 20.8447 44.1654 20.6337 44.4348 20.651C44.6516 20.6647 44.6869 20.5581 44.6857 20.3727C44.6791 19.3934 44.6791 18.4141 44.6857 17.4355C44.6869 17.2465 44.6402 17.1428 44.43 17.1583C44.3007 17.1679 44.2396 17.0999 44.2271 16.9664C44.1887 16.5557 44.2169 16.5206 44.6312 16.5206C44.839 16.5206 45.0461 16.5182 45.2539 16.5212C45.394 16.5229 45.5485 16.4836 45.5832 16.7053C45.6018 16.8222 45.691 16.7339 45.7449 16.7083C46.0514 16.5617 46.3628 16.4449 46.7136 16.4627C47.2004 16.4878 47.5812 16.6892 47.7776 17.1386C48.0686 17.8026 48.0392 18.4863 47.7728 19.1479C47.5513 19.6986 46.9843 19.9668 46.3466 19.8679C46.158 19.8386 45.9646 19.8291 45.7856 19.7486C45.664 19.6938 45.6161 19.7516 45.6173 19.8726C45.6191 20.0485 45.6233 20.2249 45.6155 20.4001C45.6078 20.5735 45.6742 20.6487 45.855 20.651C46.1149 20.6546 46.1167 20.6808 46.1221 21.0045C46.1257 21.2101 46.0388 21.2727 45.8455 21.2632C45.6233 21.2518 45.4 21.2608 45.1773 21.2602L45.1785 21.2596ZM45.6185 18.1853C45.6185 18.3921 45.6179 18.5983 45.6185 18.8051C45.6185 18.8808 45.6167 18.9565 45.6784 19.0191C46.0203 19.3678 46.7753 19.1979 46.9328 18.7336C47.0226 18.4696 47.0549 18.1966 47.0304 17.9188C46.9914 17.4718 46.8028 17.2143 46.4681 17.1452C46.2502 17.1005 46.0622 17.1941 45.87 17.2716C45.6844 17.3461 45.5952 17.4712 45.6149 17.6804C45.6305 17.8473 45.6179 18.0166 45.6185 18.1853Z" fill="#D8D4D4"/>
<path d="M46.9003 39.1052C46.9003 39.7251 46.9057 40.345 46.8967 40.9649C46.8943 41.1305 46.9303 41.2056 47.1105 41.1931C47.3985 41.1729 47.3093 41.3952 47.3248 41.5466C47.3422 41.7141 47.2841 41.8041 47.0949 41.7981C46.7955 41.7886 46.495 41.7945 46.1956 41.7963C46.095 41.7963 46.0154 41.7892 46.0118 41.6545C46.0082 41.5192 45.9256 41.5621 45.8537 41.6032C45.5334 41.788 45.1903 41.8607 44.8185 41.8488C44.3802 41.8345 44.021 41.6628 43.8396 41.2772C43.4869 40.528 43.5145 39.7466 43.8821 39.0182C44.1719 38.4449 44.7419 38.3823 45.3232 38.446C45.4747 38.4627 45.6268 38.4979 45.7717 38.5456C45.91 38.5915 45.934 38.5349 45.9328 38.4192C45.9304 38.2124 45.9256 38.0056 45.934 37.7994C45.9405 37.6319 45.8741 37.5699 45.7046 37.5687C45.431 37.5669 45.434 37.5472 45.425 37.229C45.419 37.0126 45.5077 36.9494 45.7124 36.9572C46.0196 36.9697 46.3279 36.9691 46.6351 36.9572C46.8357 36.9494 46.9069 37.0245 46.9045 37.223C46.8967 37.8506 46.9015 38.4782 46.9015 39.1058L46.9003 39.1052ZM45.9316 40.1334C45.9316 40.0035 45.9334 39.8735 45.9316 39.7436C45.9232 39.2525 46.0286 39.2638 45.4298 39.1112C45.1203 39.0325 44.8443 39.1535 44.6964 39.436C44.5299 39.7537 44.5263 40.0958 44.5527 40.4409C44.6036 41.1073 45.0466 41.3648 45.6615 41.0972C45.8525 41.0143 45.9591 40.9064 45.9358 40.6829C45.9172 40.5017 45.9322 40.3164 45.9322 40.1334H45.9316Z" fill="#D8D4D4"/>
<path d="M55.1108 25.3658C55.1108 24.7919 55.1054 24.2179 55.1138 23.6439C55.1168 23.4502 55.0551 23.3513 54.8504 23.3739C54.5965 23.4019 54.6139 23.2285 54.6121 23.0622C54.6103 22.8971 54.6121 22.7546 54.8468 22.7636C55.1539 22.7755 55.4617 22.7731 55.7694 22.7636C55.9556 22.7582 56.0083 22.8417 56.0047 23.0127C55.9975 23.4031 56.0017 23.7935 56.0029 24.1839C56.0035 24.4694 56.0041 24.467 56.2652 24.3681C56.613 24.2364 56.9615 24.147 57.3429 24.2376C57.8297 24.3532 58.1225 24.6566 58.2458 25.1203C58.3751 25.6054 58.3919 26.0954 58.2692 26.5925C58.1231 27.1831 57.6656 27.5986 57.0537 27.6433C56.4873 27.6844 55.9365 27.6015 55.3946 27.4352C55.1898 27.3727 55.0994 27.2701 55.106 27.0425C55.1228 26.484 55.1114 25.9249 55.1114 25.3664L55.1108 25.3658ZM56.0023 25.9929V26.3135C56.0023 26.9501 56.0628 27.0079 56.7076 26.9924C56.7154 26.9924 56.7232 26.9924 56.7304 26.9924C57.0298 26.9972 57.2279 26.8529 57.3207 26.5752C57.4573 26.1663 57.4471 25.7485 57.3405 25.339C57.2513 24.9957 56.9669 24.83 56.6166 24.9003C56.4604 24.9313 56.3119 24.9999 56.1616 25.0559C56.0478 25.0982 55.9993 25.1823 56.0023 25.3056C56.0077 25.5345 56.0035 25.764 56.0029 25.9935L56.0023 25.9929Z" fill="#D8D4D4"/>
<path d="M40.6662 25.4833C40.6662 24.8634 40.6608 24.2436 40.6692 23.6237C40.6716 23.4354 40.6087 23.3507 40.4165 23.3734C40.265 23.3912 40.1716 23.3418 40.2058 23.1725C40.2369 23.0175 40.0956 22.7684 40.4159 22.7636C40.7159 22.7595 41.0158 22.7684 41.3152 22.7601C41.4936 22.7547 41.5625 22.8232 41.5595 23.002C41.5523 23.4383 41.5559 23.874 41.5583 24.3103C41.5595 24.5678 41.5828 24.5791 41.8199 24.4647C42.1834 24.2895 42.5528 24.1536 42.9695 24.237C43.4629 24.336 43.7503 24.6572 43.7611 25.1644C43.7718 25.6615 43.7718 26.1592 43.7617 26.6563C43.7575 26.8637 43.8096 26.9787 44.0425 26.9579C44.1562 26.9477 44.2712 26.9746 44.267 27.1224C44.2622 27.2785 44.3472 27.4722 44.1161 27.5521C43.8575 27.6415 43.5904 27.6731 43.321 27.635C43.009 27.5909 42.842 27.3668 42.8348 26.9829C42.827 26.5395 42.8348 26.0954 42.8312 25.6514C42.83 25.5215 42.8234 25.3909 42.8061 25.2628C42.7845 25.103 42.6917 24.9856 42.5277 24.9689C42.2576 24.9409 41.9936 24.9683 41.7481 25.1084C41.6128 25.1859 41.5529 25.2807 41.5547 25.4392C41.5613 26.0817 41.5505 26.7248 41.5619 27.3673C41.5649 27.5509 41.508 27.6016 41.3284 27.6022C40.6656 27.6034 40.6656 27.6087 40.6656 26.9531C40.6656 26.4632 40.6656 25.9738 40.6656 25.4839L40.6662 25.4833Z" fill="#D8D4D4"/>
<path d="M36.2387 32.451C36.2016 31.8645 36.28 31.3174 36.6063 30.8316C36.9656 30.2976 37.4906 30.0389 38.1187 29.9865C38.5558 29.9501 38.9929 29.9698 39.424 30.0776C39.6227 30.1277 39.7305 30.2118 39.7144 30.4376C39.6958 30.6969 39.7042 30.958 39.712 31.2184C39.7167 31.3829 39.6551 31.4646 39.4844 31.4527C39.4461 31.4503 39.4078 31.4527 39.3689 31.4527C39.133 31.4531 39.0146 31.3337 39.0138 31.0945C39.0126 30.7434 38.9965 30.7249 38.6468 30.6844C37.9601 30.6045 37.3697 31.0623 37.2649 31.7459C37.1991 32.1733 37.1991 32.5976 37.2673 33.0244C37.3625 33.6139 37.8229 33.9894 38.4995 34.0168C38.848 34.0311 39.1899 33.9673 39.5293 33.9077C39.6677 33.8833 39.6988 33.9184 39.7329 34.0347C39.87 34.5097 39.8706 34.5294 39.391 34.6504C38.8049 34.7988 38.2121 34.8506 37.6182 34.6849C36.7279 34.4364 36.3369 33.8416 36.2417 32.9642C36.2225 32.7902 36.2387 32.6125 36.2387 32.4522V32.451Z" fill="#D8D4D4"/>
<path d="M42.1105 19.0851C42.259 18.6351 42.4069 18.1887 42.5535 17.7411C42.5847 17.6463 42.6128 17.551 42.6404 17.4556C42.6829 17.3054 42.7745 17.1409 42.4817 17.1421C42.3602 17.1421 42.3829 17.008 42.3799 16.9198C42.3707 16.6527 42.4973 16.519 42.7595 16.5186C43.0673 16.5186 43.375 16.5264 43.6822 16.5157C43.878 16.5085 43.9654 16.5735 43.954 16.7779C43.9432 16.9669 43.9947 17.1743 43.6929 17.179C43.5936 17.1808 43.581 17.2971 43.5534 17.3722C43.3169 18.0272 43.0864 18.684 42.8499 19.3396C42.6865 19.7926 42.5236 20.2462 42.3482 20.695C42.1979 21.0788 41.9075 21.2666 41.489 21.2612C41.2196 21.2577 40.9525 21.2612 40.6897 21.182C40.5759 21.1474 40.5364 21.0937 40.5556 20.9865C40.5789 20.8589 40.6053 20.732 40.6298 20.605C40.6585 20.453 40.7789 20.4953 40.8687 20.5043C41.0351 20.5216 41.1974 20.5758 41.3674 20.5114C41.5237 20.453 41.8321 19.9732 41.7991 19.823C41.7812 19.7408 41.7105 19.739 41.653 19.7461C41.4447 19.7729 41.377 19.6526 41.3225 19.4797C41.1052 18.7865 40.8723 18.0975 40.6543 17.4043C40.6082 17.2571 40.5574 17.151 40.3783 17.1647C40.2646 17.1737 40.2101 17.1081 40.2101 16.9961C40.2101 16.8965 40.2101 16.797 40.2095 16.6974C40.2083 16.5717 40.2753 16.518 40.3963 16.5198C40.4424 16.5204 40.4885 16.5186 40.5346 16.5186C41.2974 16.5145 41.2884 16.5169 41.489 17.2535C41.6417 17.8138 41.8195 18.3675 41.9883 18.9236C42.0051 18.9796 42.0159 19.0452 42.1105 19.0845V19.0851Z" fill="#D8D4D4"/>
<path d="M36.2368 25.2854C36.2087 24.864 36.2548 24.4271 36.4458 24.0123C36.7344 23.3847 37.2259 23.0348 37.9067 22.9186C38.4396 22.828 38.9593 22.8786 39.4802 22.9943C39.6388 23.0294 39.7185 23.0998 39.7125 23.2738C39.7023 23.5718 39.7059 23.871 39.7107 24.1696C39.7131 24.3145 39.6526 24.3848 39.5059 24.3776C39.4832 24.3764 39.4598 24.3776 39.4365 24.3782C39.1559 24.3834 39.015 24.2481 39.0138 23.9723C39.0126 23.6255 38.9958 23.6064 38.6503 23.6058C38.4516 23.6058 38.2492 23.5819 38.0552 23.6439C37.6702 23.7673 37.4439 24.0462 37.3331 24.4188C37.1559 25.013 37.1469 25.6132 37.3589 26.1985C37.5307 26.6723 37.96 26.8988 38.4701 26.8744C38.8365 26.8565 39.206 26.9 39.5676 26.8011C39.6335 26.7832 39.6879 26.8005 39.7107 26.8768C39.7538 27.024 39.7993 27.1694 39.8095 27.3244C39.8149 27.4066 39.7855 27.4555 39.7047 27.4764C39.0587 27.6433 38.4037 27.7219 37.7426 27.5992C36.7757 27.4198 36.3129 26.7248 36.238 25.795C36.2254 25.6353 36.2362 25.4737 36.2362 25.2848L36.2368 25.2854Z" fill="#D8D4D4"/>
<path d="M36.2379 17.5918C36.2253 17.1817 36.2307 16.8325 36.3433 16.4904C36.6241 15.6357 37.2911 15.1404 38.2491 15.0962C38.6568 15.0778 39.0603 15.1106 39.4597 15.2047C39.6345 15.2458 39.7231 15.3269 39.7136 15.5194C39.7004 15.7864 39.7046 16.0553 39.7124 16.3229C39.7178 16.4945 39.6609 16.5702 39.4765 16.5738C39.0232 16.5815 39.0148 16.5887 39.0184 16.1369C39.0202 15.9355 38.9418 15.8544 38.7466 15.8198C38.0191 15.6899 37.3971 16.1059 37.2731 16.8313C37.2055 17.2241 37.1875 17.6192 37.2528 18.018C37.3947 18.8828 37.8515 19.0741 38.5353 19.1319C38.852 19.1588 39.1615 19.0825 39.4699 19.0312C39.6202 19.0062 39.6884 19.0199 39.7357 19.1778C39.8722 19.6356 39.8698 19.6618 39.41 19.7661C38.8436 19.8949 38.2694 19.9282 37.6958 19.8192C36.875 19.6636 36.2804 18.9406 36.2391 18.0627C36.2307 17.8868 36.2379 17.711 36.2379 17.5924V17.5918Z" fill="#D8D4D4"/>
<path d="M63.0692 41.0992C63.1542 40.8274 63.2303 40.5735 63.3129 40.3214C63.4177 40.0019 63.5296 39.6848 63.635 39.366C63.6757 39.2426 63.7099 39.1359 63.5021 39.1198C63.2249 39.0984 63.3608 38.8665 63.338 38.7229C63.3153 38.5792 63.3973 38.5184 63.5434 38.5202C63.9428 38.5244 64.3427 38.5244 64.7421 38.5202C64.8708 38.519 64.9235 38.5661 64.9139 38.6966C64.9073 38.7795 64.9169 38.8647 64.9271 38.9482C64.9415 39.0632 64.8989 39.1317 64.7798 39.1246C64.611 39.1144 64.5595 39.2223 64.5128 39.354C64.1368 40.4126 63.7458 41.4658 63.3835 42.5285C63.1848 43.1114 62.7824 43.3313 62.1238 43.2437C61.9717 43.2235 61.8196 43.2038 61.6676 43.1853C61.5562 43.1716 61.5173 43.1162 61.5209 42.9993C61.5346 42.5851 61.6209 42.4951 62.034 42.4957C62.4615 42.4957 62.6992 42.2835 62.7567 41.8562C62.7734 41.7328 62.7034 41.7006 62.6094 41.7101C62.3914 41.7328 62.325 41.6106 62.2687 41.4264C62.0621 40.7547 61.8358 40.0895 61.6233 39.4196C61.5748 39.267 61.5131 39.155 61.3269 39.1627C61.2251 39.1669 61.176 39.0984 61.1724 39.0006C61.1694 38.9088 61.1712 38.817 61.1682 38.7252C61.1634 38.581 61.2281 38.516 61.376 38.5208C61.5682 38.5262 61.7616 38.5351 61.952 38.5178C62.1639 38.4993 62.2489 38.5983 62.304 38.7866C62.5124 39.4977 62.7315 40.2058 62.9495 40.9138C62.9668 40.9693 62.962 41.039 63.0686 41.0992H63.0692Z" fill="#D8D4D4"/>
<path d="M54.9815 17.8695C54.9815 18.2295 54.9857 18.5889 54.9797 18.9489C54.9773 19.1075 55.024 19.1992 55.2006 19.1903C55.3126 19.1849 55.4072 19.2201 55.3964 19.3548C55.3844 19.5032 55.479 19.6999 55.2623 19.7714C54.9599 19.8716 54.6468 19.89 54.333 19.8197C54.2372 19.7982 54.163 19.7309 54.1324 19.6433C54.0708 19.4651 53.9888 19.4967 53.86 19.5789C53.4696 19.828 53.0607 19.989 52.5793 19.8507C52.1638 19.7315 51.9309 19.4603 51.9273 19.0228C51.9225 18.4792 51.9219 17.9357 51.9279 17.3927C51.9297 17.2222 51.8902 17.1292 51.695 17.1584C51.5291 17.1835 51.4519 17.1024 51.4657 16.9337C51.4723 16.8503 51.4687 16.7657 51.4693 16.681C51.4699 16.5773 51.5244 16.5249 51.6261 16.5243C51.98 16.5225 52.3332 16.5225 52.6871 16.5231C52.8547 16.5231 52.8589 16.6411 52.8589 16.7621C52.8589 17.3593 52.8823 17.9571 52.8529 18.5525C52.8218 19.1855 53.09 19.2553 53.6768 19.0633C53.9085 18.9876 54.0516 18.8422 54.0241 18.5484C53.9894 18.1765 54.0121 17.7992 54.0169 17.4243C54.0187 17.2651 53.9864 17.1674 53.7942 17.1555C53.4882 17.1364 53.6235 16.8884 53.6014 16.7299C53.5786 16.5696 53.6744 16.5171 53.8247 16.5195C54.1324 16.5243 54.4402 16.5272 54.7474 16.5183C54.933 16.5129 54.9874 16.5964 54.9845 16.768C54.9773 17.1352 54.9821 17.5029 54.9827 17.8701L54.9815 17.8695Z" fill="#D8D4D4"/>
<path d="M51.1102 39.8522C51.1102 40.2045 51.1143 40.5567 51.1084 40.9084C51.1054 41.0669 51.1491 41.1575 51.3281 41.1468C51.4616 41.139 51.6047 41.1385 51.6053 41.3316C51.6059 41.5092 51.6598 41.7023 51.3963 41.7714C51.1461 41.8376 50.8964 41.8531 50.6425 41.8382C50.4875 41.8292 50.3557 41.7655 50.2965 41.6123C50.236 41.4561 50.1659 41.471 50.0444 41.5575C49.687 41.8126 49.2882 41.924 48.8469 41.8519C48.3578 41.7714 48.1069 41.4907 48.0985 40.9877C48.0895 40.4596 48.0907 39.9315 48.0985 39.4034C48.1009 39.2192 48.0644 39.103 47.8476 39.1251C47.668 39.1435 47.6327 39.0375 47.6309 38.8831C47.6273 38.5207 47.6219 38.5207 47.9835 38.5207C48.2374 38.5207 48.4913 38.5279 48.7445 38.5189C48.923 38.513 48.9912 38.5809 48.9888 38.7597C48.9816 39.28 48.9864 39.8004 48.9864 40.3213C48.9864 40.3904 48.981 40.4596 48.9876 40.5281C49.011 40.7606 48.9846 41.0246 49.269 41.1271C49.5145 41.2153 50.0342 41.033 50.1725 40.8315C50.2144 40.7701 50.2162 40.7022 50.2162 40.6336C50.2168 40.2051 50.2132 39.7765 50.2186 39.348C50.2204 39.1948 50.1665 39.1233 50.0055 39.1245C49.7163 39.1269 49.8241 38.9028 49.8055 38.7555C49.7851 38.5952 49.8522 38.5147 50.0264 38.5195C50.3108 38.5273 50.5952 38.5267 50.8796 38.5195C51.0485 38.5153 51.1131 38.5833 51.1102 38.7502C51.1036 39.1173 51.1084 39.4851 51.1084 39.8522H51.109H51.1102Z" fill="#D8D4D4"/>
<path d="M39.604 40.4548C39.604 40.0876 39.5986 39.7198 39.6058 39.3527C39.6094 39.1763 39.5615 39.0696 39.3615 39.0863C39.1166 39.1071 39.1484 38.9325 39.1424 38.7793C39.1358 38.6196 39.1681 38.5129 39.3657 38.5195C39.6729 38.529 39.9806 38.5212 40.2884 38.523C40.3722 38.523 40.474 38.5165 40.4865 38.6309C40.5069 38.8157 40.5967 38.7698 40.7051 38.7126C40.9021 38.6089 41.1014 38.5123 41.323 38.4658C42.1786 38.2858 42.6917 38.684 42.7019 39.547C42.7073 39.9982 42.7102 40.45 42.6995 40.9012C42.6953 41.0824 42.7336 41.1771 42.939 41.1491C43.0623 41.1324 43.1886 41.1599 43.1671 41.3232C43.1461 41.4835 43.2844 41.7034 43.0054 41.7815C42.7641 41.8489 42.5193 41.856 42.2744 41.8375C42.0439 41.8203 41.8942 41.6879 41.8223 41.4704C41.784 41.353 41.7774 41.2308 41.778 41.1074C41.7786 40.6252 41.7846 40.143 41.7738 39.6614C41.7654 39.2991 41.6223 39.1703 41.2619 39.1542C41.0787 39.1459 40.9152 39.2144 40.753 39.2818C40.6051 39.3432 40.5356 39.4487 40.538 39.6209C40.547 40.2485 40.532 40.8761 40.5458 41.5032C40.5512 41.7404 40.4656 41.8036 40.2387 41.8006C39.6058 41.7928 39.6058 41.8012 39.6058 41.1664C39.6058 40.9292 39.6058 40.692 39.6058 40.4548H39.604Z" fill="#D8D4D4"/>
<path d="M42.0476 31.3232C43.2798 31.3327 43.7414 32.1982 43.678 33.2412C43.6187 34.2217 42.9319 34.8034 41.8644 34.7605C40.8609 34.72 40.2903 34.0363 40.3466 32.9426C40.3987 31.9264 41.0806 31.2767 42.0476 31.3226V31.3232ZM41.3273 33.1202C41.3273 33.2132 41.3147 33.3515 41.3297 33.4874C41.3662 33.8134 41.6051 34.0727 41.8847 34.1072C42.2422 34.1513 42.5236 33.997 42.6338 33.6793C42.781 33.2537 42.7816 32.8228 42.62 32.4008C42.4458 31.9466 41.9266 31.8471 41.5734 32.185C41.3105 32.436 41.3082 32.7519 41.3273 33.1208V33.1202Z" fill="#D8D4D4"/>
<path d="M67.0167 25.9713C66.9843 25.4217 67.1244 24.9365 67.5633 24.5742C68.2279 24.0258 69.4685 24.1397 69.9954 24.778C70.4181 25.29 70.4624 26.6978 69.8499 27.2539C68.9536 28.0663 67.3813 27.6652 67.0538 26.5184C67.0017 26.3372 67.025 26.1536 67.0161 25.9713H67.0167ZM69.3733 25.9581C69.3799 25.7477 69.3721 25.5576 69.3104 25.3728C69.2074 25.0647 68.9817 24.8871 68.6895 24.8871C68.371 24.8871 68.1369 25.0504 68.0399 25.3681C67.9195 25.762 67.9082 26.162 68.0369 26.5583C68.1291 26.8432 68.3662 27.0167 68.6554 27.0209C68.929 27.025 69.1691 26.8564 69.2745 26.5893C69.3577 26.3795 69.3924 26.1632 69.3739 25.9569L69.3733 25.9581Z" fill="#D8D4D4"/>
<path d="M47.5589 25.933C47.5589 26.1929 47.5679 26.4533 47.5559 26.7126C47.5475 26.8986 47.602 26.9886 47.802 26.9522C48.0241 26.9123 48.1289 27.0142 48.1463 27.2341C48.16 27.4046 48.1056 27.5095 47.9295 27.5536C47.6823 27.6156 47.4356 27.6651 47.1793 27.6424C46.9937 27.6257 46.8267 27.5757 46.7752 27.3677C46.7428 27.2359 46.6782 27.2806 46.6117 27.3301C46.2842 27.5745 45.919 27.6692 45.5094 27.6502C45.0161 27.6269 44.7341 27.3909 44.6155 26.8598C44.5371 26.5082 44.7706 26.0719 45.1328 25.8978C45.4148 25.762 45.7202 25.7286 46.0267 25.7065C46.1261 25.6994 46.2279 25.7149 46.3261 25.7006C46.4554 25.6809 46.6339 25.7608 46.683 25.5492C46.7422 25.2953 46.6554 25.0771 46.462 24.9764C46.2531 24.8673 46.0303 24.8757 45.8088 24.9013C45.6489 24.9198 45.4861 24.943 45.3352 24.9943C45.1508 25.0574 45.0514 25.033 45.0029 24.8256C44.9233 24.4865 44.9125 24.4817 45.1837 24.4048C45.7052 24.257 46.2333 24.1884 46.7758 24.279C47.2542 24.3589 47.5439 24.6712 47.5565 25.1534C47.5631 25.4133 47.5577 25.6731 47.5577 25.9336H47.5595L47.5589 25.933ZM46.7093 26.4349C46.677 26.3323 46.7812 26.1094 46.5955 26.1106C46.3141 26.1124 46.01 26.0898 45.7537 26.2668C45.5226 26.4265 45.5376 26.8968 45.7771 27.0124C46.1836 27.2085 46.7093 26.8932 46.7093 26.4349Z" fill="#D8D4D4"/>
<path d="M68.9118 33.2911C68.6352 33.2911 68.358 33.2971 68.0813 33.2893C67.8832 33.2834 67.8425 33.3847 67.873 33.5504C67.9323 33.874 68.2077 34.0862 68.5975 34.1089C68.9178 34.1274 69.2237 34.0523 69.5261 33.9623C69.6435 33.9271 69.7548 33.9038 69.7758 34.0523C69.7973 34.2042 70.0326 34.4015 69.7758 34.51C69.0872 34.8003 68.3777 34.9308 67.6622 34.5863C67.2988 34.4111 67.1036 34.1059 67.0072 33.7191C66.8935 33.2607 66.9 32.8083 67.0336 32.3601C67.2443 31.6497 67.9113 31.2468 68.6789 31.3201C69.1782 31.3677 69.5842 31.534 69.8261 31.9989C70.0195 32.3709 69.9943 32.7696 69.9764 33.1666C69.971 33.2929 69.8572 33.2887 69.765 33.2893C69.4806 33.2917 69.1962 33.2899 68.9112 33.2899V33.2911H68.9118ZM68.4855 32.6826C68.631 32.6826 68.7771 32.6778 68.922 32.6838C69.101 32.6915 69.1501 32.6093 69.1208 32.4436C69.0633 32.1193 68.8058 31.9322 68.4502 31.9662C68.1873 31.9912 67.8712 32.3345 67.882 32.5777C67.8868 32.6784 67.9562 32.6808 68.0263 32.6814C68.1795 32.6838 68.3328 32.682 68.4861 32.6826H68.4855Z" fill="#D8D4D4"/>
<path d="M58.8979 33.2906C58.6284 33.2906 58.3596 33.2882 58.0902 33.2912C57.8501 33.2942 57.807 33.3598 57.8848 33.5898C58.0022 33.9343 58.2087 34.0839 58.5883 34.109C58.9015 34.1292 59.199 34.0565 59.4936 33.9665C59.6289 33.9254 59.7487 33.8926 59.7852 34.0893C59.8163 34.2562 60.0163 34.4439 59.7002 34.5512C59.0416 34.7747 58.3836 34.9136 57.7082 34.6102C57.4028 34.4731 57.1771 34.249 57.0753 33.9439C56.8388 33.2328 56.8472 32.5319 57.2759 31.8792C57.7256 31.1944 59.1769 31.0889 59.6978 31.7976C59.9277 32.1105 59.972 32.4711 59.972 32.8436C59.972 33.1412 59.8217 33.29 59.5212 33.29C59.3134 33.29 59.1056 33.29 58.8979 33.29V33.2906ZM58.4883 32.6833C58.5955 32.6833 58.7027 32.6833 58.8099 32.6833C59.147 32.6827 59.2026 32.5986 59.0613 32.2893C59.0308 32.2219 58.9811 32.1588 58.9278 32.1063C58.7668 31.9478 58.5057 31.9138 58.2872 32.0151C58.0854 32.1087 57.8692 32.4162 57.8776 32.5909C57.8818 32.6809 57.9429 32.6821 58.0058 32.6827C58.1668 32.6845 58.3273 32.6827 58.4883 32.6839V32.6833Z" fill="#D8D4D4"/>
<path d="M60.9127 26.1321C60.6361 26.1321 60.3595 26.1369 60.0828 26.1303C59.9212 26.1268 59.8661 26.1995 59.8685 26.3521C59.8739 26.6948 60.0613 26.9177 60.4008 26.9648C60.7714 27.016 61.1378 26.9892 61.4899 26.8652C61.6491 26.8092 61.7228 26.8366 61.7809 26.9976C61.9144 27.3671 61.8946 27.3969 61.5096 27.5161C61.0833 27.6484 60.6492 27.6669 60.211 27.6425C59.5751 27.6067 59.1201 27.1889 58.9794 26.5637C58.8441 25.9635 58.8854 25.3937 59.2093 24.8626C59.6859 24.0812 61.1025 23.9691 61.6623 24.6641C61.9772 25.0551 61.9814 25.526 61.9856 25.9927C61.9868 26.116 61.8862 26.1303 61.7874 26.1303C61.4953 26.1303 61.2037 26.1303 60.9115 26.1303V26.1321H60.9127ZM60.4816 25.6082V25.61C60.6043 25.61 60.7265 25.6112 60.8492 25.61C61.1055 25.607 61.1719 25.5099 61.0869 25.2655C60.9804 24.9585 60.7385 24.8262 60.3756 24.8769C60.1541 24.9079 59.9056 25.1833 59.8811 25.4205C59.8679 25.545 59.9146 25.61 60.0445 25.6088C60.19 25.6076 60.3355 25.6088 60.481 25.6088L60.4816 25.6082Z" fill="#D8D4D4"/>
<path d="M71.7612 27.5977C71.5229 27.5977 71.284 27.5906 71.0463 27.6001C70.8631 27.6073 70.7931 27.528 70.808 27.3539C70.8122 27.3086 70.8116 27.2622 70.808 27.2163C70.7931 27.0351 70.8643 26.9308 71.0571 26.9558C71.2385 26.979 71.2786 26.8974 71.2762 26.7335C71.2684 26.2054 71.2684 25.6773 71.2762 25.1492C71.2786 24.9686 71.2265 24.8721 71.0284 24.8888C70.9146 24.8983 70.802 24.8816 70.8074 24.7272C70.8128 24.5854 70.7398 24.3994 70.9751 24.3649C71.2098 24.3303 71.2936 24.2033 71.2786 23.9691C71.2678 23.8034 71.2942 23.6323 71.3253 23.4678C71.4092 23.0292 71.7085 22.7925 72.2582 22.7282C72.5893 22.6894 72.918 22.7312 73.2455 22.7776C73.3898 22.7979 73.4503 22.8712 73.3856 23.0161C73.3796 23.0298 73.3754 23.0453 73.3718 23.0602C73.3155 23.3077 73.1589 23.415 72.9018 23.382C72.4096 23.3188 72.1288 23.5876 72.1552 24.0865C72.1624 24.2194 72.2085 24.2838 72.3474 24.2802C72.5318 24.2755 72.7168 24.2838 72.9012 24.279C73.0533 24.2749 73.1353 24.3297 73.1257 24.4912C73.1215 24.5675 73.1209 24.645 73.1275 24.7207C73.1401 24.856 73.0724 24.8941 72.9491 24.8918C72.7569 24.8876 72.5647 24.8935 72.3725 24.8918C72.2276 24.89 72.1594 24.9591 72.1588 25.0998C72.1582 25.666 72.1588 26.2328 72.1564 26.799C72.1558 26.9343 72.2234 26.9606 72.3462 26.9594C72.6701 26.9558 72.827 27.2139 72.6928 27.5113C72.6521 27.6019 72.5731 27.5929 72.4983 27.5983C72.4827 27.5995 72.4677 27.5989 72.4522 27.5989C72.2216 27.5989 71.9905 27.5989 71.76 27.5989L71.7612 27.5977Z" fill="#D8D4D4"/>
<path d="M53.2866 41.8375C52.8992 41.8733 52.5244 41.8059 52.1544 41.6861C52.0328 41.6468 51.9729 41.5836 51.9747 41.4579C51.9765 41.282 51.9783 41.1056 51.9735 40.9298C51.9699 40.7933 52.0316 40.7325 52.1663 40.7367C52.243 40.739 52.3202 40.739 52.3968 40.7367C52.5483 40.7313 52.6393 40.7939 52.6178 40.953C52.5914 41.1473 52.7273 41.1932 52.8639 41.22C53.083 41.263 53.3075 41.2636 53.5285 41.232C53.7135 41.2057 53.8823 41.1241 53.9027 40.9173C53.9224 40.7081 53.762 40.6002 53.5919 40.5382C53.362 40.4541 53.1219 40.3969 52.8884 40.3224C52.7645 40.2831 52.6423 40.2348 52.5226 40.1841C52.1556 40.028 51.9855 39.7634 52.0131 39.3533C52.0394 38.9688 52.2286 38.7149 52.5711 38.5844C53.2027 38.3442 53.838 38.4032 54.4661 38.6166C54.6014 38.6625 54.6601 38.7567 54.6529 38.8973C54.6493 38.9659 54.6529 39.035 54.6529 39.1041C54.6529 39.5124 54.6529 39.5094 54.2463 39.5029C54.1086 39.5005 54.008 39.4814 53.9907 39.3145C53.9739 39.1506 53.8643 39.0803 53.7021 39.0839C53.5716 39.0863 53.4398 39.0749 53.3105 39.0881C53.1489 39.1047 53.0016 39.1775 52.9668 39.3461C52.9291 39.5285 53.0626 39.634 53.2153 39.6841C53.4919 39.7753 53.7781 39.8379 54.0547 39.929C54.4517 40.0596 54.7702 40.2688 54.8589 40.7241C54.9385 41.1348 54.7589 41.5163 54.3727 41.6826C54.026 41.8322 53.662 41.8715 53.2866 41.8399V41.8375Z" fill="#D8D4D4"/>
<path d="M55.8042 19.1958C55.8042 19.1803 55.8042 19.1654 55.8042 19.1499C55.8042 18.7345 55.8036 18.7387 56.2245 18.7655C56.3592 18.7738 56.4245 18.8257 56.4179 18.9598C56.4095 19.1261 56.5155 19.1958 56.655 19.2179C56.9143 19.259 57.1777 19.2519 57.4346 19.2107C57.5795 19.1875 57.7112 19.1064 57.7345 18.9336C57.7567 18.7691 57.6459 18.6803 57.5286 18.604C57.3579 18.4931 57.1555 18.4675 56.9645 18.4103C56.6562 18.3179 56.3383 18.2446 56.0874 18.0252C55.6827 17.6724 55.7527 16.9607 56.2149 16.6842C56.5077 16.5089 56.8322 16.4493 57.1639 16.4428C57.5328 16.435 57.8986 16.4773 58.2488 16.6115C58.3812 16.6621 58.4506 16.7414 58.4416 16.885C58.4374 16.9536 58.4416 17.0227 58.4416 17.0913C58.4422 17.512 58.4428 17.5085 58.0237 17.4977C57.8968 17.4948 57.8124 17.4721 57.8273 17.3207C57.8327 17.2671 57.8189 17.2146 57.7788 17.1723C57.6172 17.0024 56.9669 17.0543 56.8388 17.2486C56.7382 17.4006 56.7771 17.5377 56.961 17.6479C57.2094 17.7969 57.5058 17.7987 57.771 17.8989C58.0519 18.0044 58.3554 18.0848 58.5249 18.353C58.826 18.8311 58.8099 19.6119 57.8662 19.8068C57.3292 19.9176 56.7819 19.9081 56.2473 19.7704C55.8018 19.656 55.8042 19.6464 55.8042 19.1952V19.1958Z" fill="#D8D4D4"/>
<path d="M37.0756 39.4648C37.0756 38.9981 37.0708 38.5314 37.078 38.0647C37.081 37.8883 37.0373 37.7828 36.8355 37.7989C36.6942 37.8102 36.6463 37.7262 36.6505 37.5981C36.6523 37.5367 36.6559 37.4753 36.6487 37.4145C36.6259 37.2124 36.7175 37.1445 36.9151 37.1487C37.3684 37.1582 37.8222 37.16 38.2754 37.1487C38.5137 37.1427 38.5598 37.2613 38.5509 37.4616C38.5425 37.641 38.5754 37.8371 38.291 37.8013C38.094 37.7763 38.0431 37.8734 38.0443 38.0552C38.0503 39.0118 38.0503 39.9679 38.0443 40.9245C38.0431 41.0955 38.0761 41.1867 38.2742 41.1492C38.4868 41.1093 38.5569 41.2136 38.5521 41.421C38.5437 41.7768 38.5437 41.7935 38.2808 41.7953C37.8276 41.7977 37.3737 41.7869 36.9205 41.8C36.7038 41.806 36.6397 41.7226 36.6451 41.5181C36.6505 41.3071 36.6325 41.1158 36.9421 41.1355C37.0798 41.1444 37.0732 41.0103 37.0732 40.9114C37.0744 40.4292 37.0738 39.9476 37.0738 39.4654L37.0756 39.4648Z" fill="#D8D4D4"/>
<path d="M66.2941 31.9617C66.2941 32.0076 66.2941 32.0535 66.2941 32.0994C66.2941 32.4784 66.2875 32.4779 65.9079 32.4719C65.7397 32.4695 65.6631 32.4063 65.681 32.2406C65.7008 32.0529 65.6044 32.0088 65.4343 32.0076C64.9314 32.0034 64.6632 32.2156 64.5668 32.7043C64.5249 32.9171 64.5225 33.1305 64.5494 33.3433C64.6171 33.8815 65.0134 34.1795 65.5559 34.0967C65.7523 34.0669 65.9475 34.0228 66.1403 33.9733C66.245 33.9465 66.3025 33.9733 66.3336 34.0716C66.3612 34.1592 66.3911 34.2457 66.4163 34.3339C66.448 34.4453 66.4163 34.5359 66.3019 34.5741C65.6529 34.7898 64.9967 34.8667 64.3482 34.589C63.989 34.4352 63.7752 34.1438 63.6884 33.7581C63.5627 33.2002 63.5591 32.6483 63.801 32.1214C64.0249 31.6327 64.4464 31.3979 64.9637 31.3353C65.3463 31.2888 65.7271 31.3382 66.1031 31.4223C66.2384 31.4527 66.2995 31.5272 66.2947 31.6637C66.2911 31.7632 66.2941 31.8622 66.2941 31.9617Z" fill="#D8D4D4"/>
<path d="M62.874 25.9028C62.874 25.6274 62.8639 25.352 62.8782 25.0773C62.886 24.9336 62.8441 24.877 62.7034 24.8901C62.3915 24.9187 62.4693 24.6911 62.4549 24.52C62.4382 24.3221 62.5393 24.2703 62.719 24.2756C62.995 24.2846 63.2722 24.2881 63.5482 24.2744C63.7638 24.2637 63.8673 24.3328 63.844 24.5587C63.8386 24.613 63.8111 24.697 63.8853 24.7185C63.9212 24.7292 63.9787 24.6797 64.0212 24.6499C64.3068 24.452 64.6056 24.2852 64.9552 24.2238C65.1941 24.182 65.3271 24.2965 65.3013 24.5373C65.2905 24.6356 65.2672 24.7328 65.2408 24.8287C65.1343 25.2126 65.1109 25.2269 64.7139 25.215C64.4763 25.2084 64.238 25.212 63.9997 25.2078C63.8655 25.2054 63.8039 25.2632 63.8051 25.3997C63.8081 25.8587 63.8081 26.317 63.8051 26.776C63.8039 26.9124 63.8536 26.9697 63.9967 26.9577C64.0984 26.9494 64.238 26.9172 64.2763 27.0495C64.323 27.2093 64.332 27.3827 64.2631 27.543C64.2362 27.6056 64.1577 27.5961 64.0967 27.5961C63.6207 27.5973 63.1441 27.5943 62.6681 27.5979C62.525 27.5991 62.4627 27.5442 62.4549 27.397C62.437 27.0555 62.4358 27.0454 62.7776 26.9542C62.8872 26.925 62.8698 26.8457 62.8704 26.7736C62.8728 26.4833 62.8716 26.1924 62.8716 25.9022C62.8728 25.9022 62.874 25.9022 62.8752 25.9022L62.874 25.9028Z" fill="#D8D4D4"/>
<path d="M55.7101 40.2103C55.7101 39.9195 55.7053 39.6292 55.7113 39.3383C55.7149 39.1697 55.661 39.0755 55.4748 39.0856C55.3401 39.0934 55.2036 39.0952 55.2084 38.8967C55.212 38.7364 55.1784 38.5689 55.4227 38.545C55.6616 38.5218 55.8131 38.3883 55.846 38.1385C55.8538 38.0783 55.8778 38.0205 55.8951 37.9621C55.9831 37.6689 56.1544 37.5652 56.4621 37.6063C56.5741 37.6212 56.5986 37.6885 56.5998 37.7809C56.6016 37.9413 56.6088 38.1028 56.5998 38.2625C56.5903 38.4467 56.6603 38.5331 56.8531 38.5218C57.0142 38.5128 57.1764 38.5283 57.3369 38.5182C57.5081 38.5075 57.6063 38.5528 57.5728 38.7459C57.5662 38.7828 57.5662 38.8234 57.5728 38.8603C57.6057 39.0528 57.5087 39.0987 57.3369 39.0886C57.1686 39.0785 56.9986 39.0904 56.8298 39.0862C56.6801 39.0827 56.5998 39.1375 56.601 39.2984C56.6052 39.7496 56.5915 40.2014 56.607 40.652C56.6214 41.0877 56.8154 41.2093 57.3201 41.1336C57.6315 41.0865 57.7458 41.1926 57.7518 41.5204C57.7542 41.639 57.7069 41.7093 57.5949 41.7403C57.1746 41.8554 56.7483 41.8983 56.3208 41.7934C55.9185 41.6944 55.7167 41.4238 55.7095 41.0138C55.7095 40.9983 55.7095 40.9834 55.7095 40.9679C55.7095 40.7158 55.7095 40.4631 55.7095 40.2109L55.7101 40.2103Z" fill="#D8D4D4"/>
<path d="M59.5421 40.2979C59.5421 40.5273 59.5511 40.7574 59.5391 40.9863C59.5308 41.1394 59.5888 41.1931 59.7361 41.1913C59.8301 41.1901 59.9606 41.1538 59.9954 41.2789C60.0367 41.4249 60.0409 41.5841 59.9864 41.7307C59.9583 41.8058 59.8702 41.7939 59.8026 41.7945C59.326 41.7957 58.8494 41.7915 58.3728 41.7975C58.2081 41.7992 58.1429 41.7218 58.165 41.574C58.186 41.4297 58.0626 41.1979 58.3512 41.1949C58.541 41.1931 58.5835 41.1049 58.5818 40.9386C58.5758 40.4028 58.5752 39.8669 58.5818 39.3311C58.5841 39.1577 58.5285 39.0796 58.3453 39.0826C58.1064 39.0867 58.1758 38.896 58.1656 38.7637C58.1555 38.629 58.18 38.5187 58.3578 38.5211C58.6883 38.5253 59.0188 38.5265 59.3493 38.5199C59.5092 38.5163 59.5176 38.6063 59.514 38.7267C59.5122 38.7983 59.4805 38.8966 59.5685 38.9318C59.6361 38.9586 59.6936 38.8871 59.7481 38.8483C60.0139 38.6606 60.2965 38.5086 60.6199 38.4454C60.9055 38.3894 60.9881 38.4561 60.9851 38.7422C60.9839 38.8561 60.9803 38.9741 60.951 39.0832C60.8588 39.4253 60.7498 39.4807 60.3995 39.439C60.172 39.4116 59.9397 39.4175 59.7098 39.4074C59.581 39.4014 59.5343 39.4581 59.5385 39.5874C59.5469 39.8246 59.5409 40.0618 59.5409 40.299C59.5409 40.299 59.5409 40.299 59.5415 40.299L59.5421 40.2979Z" fill="#D8D4D4"/>
<path d="M49.8155 18.3128C49.8155 18.5345 49.8221 18.7568 49.8131 18.9779C49.8059 19.1478 49.8568 19.2455 50.0454 19.2241C50.1993 19.2062 50.2538 19.2777 50.237 19.4255C50.2286 19.5012 50.2328 19.5781 50.2334 19.655C50.2352 19.7808 50.1706 19.8338 50.0484 19.8332C49.5718 19.832 49.0958 19.8314 48.6192 19.8338C48.4797 19.8344 48.4354 19.7647 48.427 19.6353C48.4043 19.2992 48.4139 19.2759 48.727 19.2217C48.845 19.2014 48.8791 19.1341 48.8791 19.031C48.8791 18.457 48.8791 17.8836 48.8809 17.3096C48.8809 17.197 48.848 17.1326 48.7198 17.1535C48.5288 17.1845 48.4618 17.0998 48.4624 16.9097C48.4636 16.5145 48.4558 16.5145 48.8492 16.5139C49.0797 16.5139 49.3102 16.5199 49.5407 16.5122C49.7071 16.5068 49.7832 16.5694 49.773 16.7392C49.7694 16.8036 49.7431 16.8924 49.8143 16.9288C49.8975 16.9711 49.9514 16.8871 50.0113 16.8441C50.2825 16.6498 50.5717 16.4967 50.9088 16.4531C51.1806 16.418 51.2429 16.4698 51.2507 16.7363C51.2531 16.812 51.2549 16.8906 51.2387 16.9639C51.1375 17.4199 51.0256 17.495 50.5029 17.4563C50.3652 17.4461 50.2286 17.4247 50.0915 17.405C49.9035 17.3776 49.7988 17.4294 49.8125 17.6464C49.8263 17.8675 49.8155 18.0898 49.8155 18.3116V18.3128Z" fill="#D8D4D4"/>
<path d="M61.3867 34.7112C61.1561 34.7112 60.9256 34.7058 60.6951 34.713C60.5269 34.7178 60.452 34.6492 60.467 34.4817C60.4718 34.4287 60.4718 34.3745 60.467 34.3214C60.452 34.1706 60.4981 34.086 60.67 34.108C60.858 34.1325 60.9304 34.0449 60.928 33.8565C60.9208 33.3213 60.9226 32.7855 60.9268 32.2502C60.928 32.0911 60.8771 32.0094 60.7035 32.0076C60.4137 32.0047 60.5335 31.7764 60.5125 31.6321C60.4886 31.4676 60.5676 31.3961 60.737 31.4003C61.0059 31.4074 61.2753 31.4098 61.5435 31.3991C61.7333 31.3919 61.8405 31.4438 61.8183 31.6548C61.8124 31.7114 61.7956 31.7877 61.8633 31.8199C61.9291 31.8509 61.9752 31.7907 62.0249 31.7573C62.3183 31.5594 62.6141 31.3681 62.9793 31.3288C63.2266 31.3019 63.3451 31.408 63.32 31.6536C63.3014 31.8366 63.2392 32.0094 63.1613 32.1781C63.0937 32.3253 62.9883 32.3813 62.8314 32.3664C62.5716 32.3414 62.3117 32.3235 62.0525 32.2949C61.898 32.2776 61.8177 32.3265 61.8183 32.4904C61.8201 32.9571 61.8219 33.4238 61.8171 33.8905C61.8154 34.0663 61.907 34.1253 62.0626 34.108C62.3476 34.0764 62.3111 34.269 62.3219 34.4478C62.3339 34.6492 62.2542 34.7237 62.0543 34.7136C61.8321 34.7023 61.6088 34.7112 61.3861 34.7106L61.3867 34.7112Z" fill="#D8D4D4"/>
<path d="M14.4381 19.52C14.1064 19.489 13.8046 19.4425 13.5262 19.3013C13.4424 19.2589 13.3472 19.2077 13.4029 19.0938C13.4669 18.9621 13.5543 19.0497 13.6328 19.0891C14.0692 19.3078 14.5315 19.2536 14.9853 19.188C15.1649 19.1624 15.3505 19.1493 15.5284 19.098C15.5942 19.0789 15.6763 19.0849 15.6912 19.1773C15.7056 19.2649 15.6349 19.2971 15.5673 19.3168C15.1907 19.4264 14.8003 19.4562 14.4381 19.52Z" fill="#D8D4D4"/>
</g>
<defs>
<clipPath id="clip0_1013_29587">
<rect width="77" height="49" fill="white"/>
</clipPath>
</defs>
</svg>
