<svg width="306" height="28" viewBox="0 0 306 28" fill="none" xmlns="http://www.w3.org/2000/svg">
<path d="M26.7316 26.4062C25.6313 26.0132 24.4313 25.59 23.5903 24.8336C20.4019 21.9629 18.2237 18.3188 15.9199 14.6543C16.3921 14.3816 16.7698 14.1803 17.1315 13.9531C19.2945 12.5819 20.7689 10.7572 20.8821 8.10833C21.0799 3.53499 17.658 0.765856 12.8241 0.518167C8.5604 0.298098 4.2753 0.452235 0 0.440653V1.92323C0.822276 2.35624 1.9332 2.58522 2.41872 3.25879C4.85259 6.63912 7.12343 10.1362 9.59471 13.8079C7.75684 13.8079 6.13545 13.864 4.52029 13.7892C3.25792 13.7312 2.86149 14.256 2.88554 15.4464C2.9381 18.1567 2.90603 20.8679 2.90068 23.5782C2.89534 26.1745 2.69044 26.3777 0 26.5149V27.9974H11.3604C11.9056 26.963 11.4602 26.5888 10.4161 26.4703C8.30027 26.2333 8.04013 25.9081 8.03835 23.7448C8.03657 21.047 8.03835 18.3482 8.03835 15.6976C9.89315 15.0953 10.9631 15.6691 11.9128 17.2212C13.993 20.6184 16.2896 23.8901 18.4865 27.2178C18.6424 27.4531 18.7217 27.7373 18.8366 27.9983H27.5075C28.0153 27.0958 27.6376 26.7305 26.7307 26.4071M14.1961 12.0651C11.9181 8.60727 9.78357 5.37217 7.50383 1.91253C8.99961 1.91253 10.2388 1.79938 11.4486 1.94104C13.1716 2.1424 14.4036 3.08861 14.7627 4.84917C15.2402 7.19509 15.3649 9.53745 14.197 12.0651" fill="white"/>
<path d="M304.784 7.59059C303.266 3.58034 300.043 1.28164 295.891 0.877143C291.299 0.431659 286.646 0.602725 282.021 0.542139C281.605 0.536793 281.188 0.807647 280.46 1.05534C281.004 1.36361 281.186 1.53468 281.397 1.57655C283.753 2.05055 284.099 2.44347 284.101 4.80097C284.107 11.0707 284.108 17.3405 284.101 23.612C284.098 25.8109 283.763 26.2885 281.592 26.75C280.608 26.9585 280.83 27.4138 281.072 27.9991H294.23C294.7 27.8771 295.166 27.7301 295.644 27.6383C299.547 26.897 302.875 25.2469 304.484 21.4265C306.394 16.8932 306.529 12.2014 304.784 7.59059ZM299.948 20.5382C298.597 25.3503 294.593 26.8133 290.477 26.75C289.215 26.7313 288.769 25.9677 288.786 24.7934C288.81 23.0177 288.788 21.2402 288.788 19.4628C288.786 17.7343 288.788 16.0049 288.788 14.2782C288.788 10.8711 288.778 7.46497 288.792 4.0579C288.801 2.14856 289.357 1.62199 291.303 1.59705C295.316 1.54626 298.614 3.83338 299.789 7.91936C300.98 12.0677 301.135 16.3132 299.947 20.5382" fill="white"/>
<path d="M53.1872 27.998H33.4917C33.3697 27.074 33.6138 26.5118 34.7051 26.4236C36.0503 26.3123 36.6668 25.5523 36.6347 24.1365C36.5635 21.076 36.6445 18.0138 36.5991 14.9524C36.5822 13.7086 37.0053 13.1259 38.3372 13.199C38.9073 13.2293 39.4766 13.2382 40.0735 13.2382L41.825 15.2099V20.6822C41.825 21.8672 41.8686 23.054 41.816 24.2372C41.7483 25.6823 42.5323 26.3853 43.8472 26.4379C45.2807 26.4958 46.7479 26.4905 48.1582 26.2588C49.1533 26.0949 50.0201 25.7527 50.7479 25.252L53.1872 27.9962V27.998Z" fill="white"/>
<path d="M258.051 27.9984H251.942L254.705 24.8158C255.232 25.681 256.131 26.2343 257.551 26.6815C258.451 26.9658 258.602 27.2892 258.051 27.9984Z" fill="white"/>
<path d="M270.067 7.11779L271.475 5.49622C271.472 5.52295 271.47 5.54879 271.468 5.5773C271.301 8.42929 271.275 11.292 271.25 14.1493C271.216 18.1979 271.255 22.2473 271.228 26.2959C271.224 26.8643 271.019 27.4301 270.906 27.9985H269.71C266.997 24.3055 264.283 20.6151 261.564 16.9149L264.774 13.2147C265.886 14.6875 266.996 16.162 268.107 17.6357C268.662 18.3689 269.23 19.0933 270.089 20.207C270.089 18.5614 270.091 17.3568 270.089 16.1549C270.082 13.1416 270.104 10.1293 270.067 7.11779Z" fill="white"/>
<path d="M275.849 1.30146C275.46 1.47431 275.086 1.69616 274.68 1.8111C274.68 1.8111 274.678 1.81169 274.676 1.81288L275.429 0.944183H275.732C275.771 1.06446 275.811 1.18296 275.85 1.30146" fill="white"/>
<path d="M45.059 1.89198H41.2372C43.2122 4.88296 45.0403 7.64853 47.0777 10.7331C47.1944 10.0274 47.1454 9.64163 47.3165 9.43136C47.5873 9.09992 48.0069 8.88431 48.3642 8.62058C48.5824 8.95736 48.9851 9.29059 48.9904 9.63094C49.0394 12.5934 49.0448 15.5568 48.9851 18.5192C48.9771 18.8801 48.5031 19.2338 48.2457 19.5893C47.9258 19.2748 47.4216 19.0102 47.3165 18.636C46.5699 15.9782 45.0047 14.8547 41.8278 14.9919V15.2102L40.0764 13.2385C40.9681 13.2385 41.9178 13.2162 43.0029 13.2162C40.4862 9.55164 38.1708 6.14101 35.7948 2.77404C35.5106 2.36954 34.8843 2.21362 34.4496 1.89733C34.1075 1.64518 33.8153 1.32354 33.5017 1.0322C33.9008 0.825492 34.2973 0.44683 34.6999 0.439702C37.589 0.388917 40.4799 0.404063 43.3708 0.412973C46.4595 0.424556 49.5481 0.492269 52.6359 0.450394C53.6631 0.437029 54.0542 0.76847 54.0827 1.77883C54.1299 3.45296 54.3294 5.12353 54.3517 6.79766C54.3571 7.22443 53.9375 7.65566 53.7138 8.08422C53.353 7.77238 52.8069 7.52736 52.6591 7.13622C51.1847 3.22933 49.2844 1.89198 45.0581 1.89198" fill="white"/>
<path d="M54.3786 19.4717C54.6717 19.8575 55.2214 20.2486 55.2134 20.6291C55.1697 22.4502 54.9746 24.2651 54.8392 26.0845C54.792 26.7224 54.7581 27.3595 54.7189 27.9992H53.184L50.7448 25.2541C52.0543 24.3587 52.914 22.9607 53.2597 21.1984C53.3158 20.9106 53.3408 20.5836 53.4984 20.3591C53.7354 20.0241 54.0802 19.7631 54.3786 19.4708" fill="white"/>
<path d="M85.9977 10.1306C84.9384 4.99861 81.929 1.40623 76.5758 0.82977C71.6083 0.293407 66.5543 0.545551 61.536 0.49833C61.2919 0.496548 61.0416 0.950051 60.7948 1.19239C61.1334 1.42405 61.4443 1.79469 61.814 1.86419C63.757 2.22681 64.0314 2.4941 64.0332 4.46047C64.0385 10.8772 64.0367 17.2913 64.0332 23.7081C64.0332 25.7716 63.8452 26.029 61.7703 26.4603C60.7735 26.6688 60.4759 27.1 60.9935 27.9972H75.945C76.3664 27.8653 76.7842 27.7192 77.2092 27.6025C81.1513 26.5307 84.0823 24.305 85.3785 20.3473C86.4716 17.0098 86.7059 13.568 85.9977 10.1306ZM79.5629 21.4735C78.3005 24.8841 73.9334 27.2167 70.378 26.4603C69.3134 26.2331 69.2439 25.4936 69.2421 24.6792C69.235 21.1768 69.2385 17.6762 69.2385 14.1747H69.2234C69.2234 10.8202 69.2011 7.46838 69.2305 4.11477C69.2492 2.19206 69.5913 1.89715 71.5174 1.89091C75.5388 1.87577 78.3771 3.78868 79.5851 7.55659C81.0676 12.1763 81.2778 16.8423 79.5629 21.4735Z" fill="white"/>
<path d="M132.073 11.434C131.736 5.29251 126.945 0.87865 120.721 0.775297C116.741 0.709366 112.759 0.717384 108.777 0.709366C108.293 0.707584 107.809 0.810936 107.325 0.865285C107.547 1.35799 107.769 1.53886 108.014 1.57806C110.06 1.91306 110.513 2.32469 110.522 4.31155C110.554 10.8709 110.553 17.4302 110.522 23.9886C110.513 25.8659 109.986 26.4869 108.154 26.7711C107.116 26.9315 107.133 27.3092 107.643 27.998H118.407C119.491 27.8741 120.574 27.7529 121.657 27.6255C126.896 27.001 130.622 23.9405 131.656 18.9234C132.157 16.4964 132.21 13.9215 132.073 11.4349M126.052 21.3932C124.728 25.0765 120.358 27.5017 116.498 26.7675C115.185 26.5172 115.11 25.5033 115.105 24.4929C115.086 21.0876 115.098 17.6814 115.098 14.2744C115.096 10.9181 115.083 7.5627 115.101 4.20464C115.113 2.09037 115.638 1.57271 117.746 1.59944C121.51 1.64845 124.815 3.44642 126.006 7.3159C127.451 12.0095 127.737 16.7049 126.053 21.3923" fill="white"/>
<path d="M145.614 27.9973H136.643C136.029 27.4102 135.844 26.9139 136.963 26.8106C138.336 26.6832 138.85 25.8439 138.852 24.6063C138.862 17.6986 138.867 10.7909 138.845 3.88414C138.841 2.54323 138.269 1.6095 136.727 1.56851C136.517 1.56138 136.311 1.303 135.747 0.921669H145.912C145.936 1.00809 145.963 1.0963 145.987 1.1854C145.778 1.32082 145.574 1.5694 145.364 1.57119C143.694 1.58633 143.231 2.6849 143.223 4.02046C143.188 10.8284 143.19 17.638 143.216 24.4477C143.22 25.7494 143.694 26.75 145.272 26.8239C146.369 26.8765 145.976 27.469 145.615 28" fill="white"/>
<path d="M175.233 26.7675C174.697 26.5813 174.165 26.0832 173.866 25.5843C173.309 24.663 172.876 23.658 172.478 22.6557C169.792 15.895 167.131 9.12274 164.452 2.3585C164.229 1.79451 163.922 1.26172 163.675 0.759209C162.095 1.68314 160.681 2.51085 159.199 3.37598C159.844 3.93997 160.989 4.13955 160.446 5.47956C157.924 11.7039 155.49 17.9647 152.984 24.197C152.444 25.5379 151.436 26.469 149.959 26.7933C148.737 27.0606 149.205 27.5177 149.809 27.9988H158.48C158.997 27.278 158.92 26.951 157.93 26.7648C155.665 26.3416 154.849 25.1112 155.154 22.8445C155.2 22.5042 155.276 22.1638 155.387 21.8404C155.837 20.5503 156.305 19.2655 156.785 17.9273C159.6 17.9273 162.334 17.8934 165.065 17.9629C165.471 17.9745 166.055 18.3897 166.229 18.7684C166.927 20.2768 167.535 21.8324 168.108 23.3961C168.853 25.4239 168.575 26.0333 166.594 26.8254C165.616 27.2183 166.253 27.5988 166.553 27.9988H175.523C175.739 27.523 176.159 27.0882 175.233 26.7684M157.303 16.6986C158 14.9399 158.672 13.2595 159.336 11.5765C159.981 9.93441 160.62 8.29057 161.382 6.34113C162.799 9.90055 164.121 13.2185 165.507 16.6986H157.302H157.303Z" fill="white"/>
<path d="M213.494 27.9978H203.328C202.626 27.3598 202.434 26.9313 203.679 26.7709C205.551 26.5321 206.046 25.9361 206.049 24.0437C206.061 18.2666 206.056 12.4896 206.049 6.71253C206.049 6.42297 205.974 6.13162 205.907 5.63803C205.064 7.76566 204.312 9.6358 203.58 11.5131C201.597 16.6076 199.631 21.7093 197.63 26.7959C197.488 27.1594 197.107 27.432 196.838 27.7456C196.566 27.4374 196.185 27.1754 196.038 26.8164C193.858 21.5507 191.719 16.2664 189.545 10.9981C188.756 9.08697 187.899 7.20168 187.074 5.30569C186.848 11.1068 186.805 16.833 186.869 22.5575C186.895 24.8019 188.04 26.1357 190.389 26.7371C191.503 27.0213 191.266 27.3937 190.772 27.9978H181.801C181.077 27.3696 180.913 27.0142 182.121 26.7415C184.559 26.1945 185.714 24.6762 185.721 22.1851C185.74 16.2165 185.708 10.247 185.745 4.28019C185.757 2.76376 185.104 2.01713 183.609 1.8425C183.169 1.79171 182.761 1.47987 182.338 1.28564C182.375 1.1217 182.412 0.958657 182.451 0.794718C184.947 0.794718 187.447 0.75908 189.94 0.845504C190.225 0.855304 190.565 1.51908 190.746 1.93872C193.337 7.95098 195.905 13.9739 198.48 19.9942C198.55 20.1564 198.634 20.3123 198.847 20.7489C200.12 17.4585 201.3 14.4212 202.471 11.3768C203.706 8.16927 204.908 4.94931 206.187 1.76053C206.351 1.35425 206.881 0.834812 207.265 0.816102C209.152 0.724332 211.046 0.776899 212.936 0.800955C213.094 0.802737 213.251 0.968457 213.395 1.04954C213.343 1.21882 213.337 1.37474 213.284 1.39345C211.436 2.03079 210.511 3.34824 210.51 5.34579C210.51 11.5122 210.506 17.6786 210.513 23.8432C210.515 26.0082 210.916 26.4885 213.126 26.7852C214.301 26.9429 214.006 27.4062 213.497 27.9987" fill="white"/>
<path d="M241.757 5.42823C237.201 -0.591161 229.886 -1.82515 224.197 2.83996C218.544 7.47656 217.322 15.7162 221.32 21.8096C224.603 26.8133 230.591 29.0594 235.515 27.1349C240.924 25.0171 244.502 19.8094 244.522 14.0181C244.531 11.0529 243.563 7.81424 241.757 5.42912M235.313 25.467C232.336 27.7301 228.905 27.1073 226.871 23.8998C224.345 19.9118 223.922 15.5078 224.351 10.9522C224.407 10.3392 224.539 9.73161 224.69 8.78718C226.448 10.9406 228.043 12.858 229.597 14.8066C231.63 17.3574 233.616 19.9457 235.649 22.4983C236.776 23.9114 236.744 24.3774 235.312 25.467M238.911 18.3303C238.892 18.6386 238.683 18.9362 238.51 19.3683C234.475 14.2702 230.528 9.27988 226.607 4.32342C229.127 0.0360807 233.736 -0.214281 236.582 3.70064C238.284 6.04299 239.051 8.74798 239.19 11.5634C239.302 13.8096 239.04 16.0744 238.91 18.3295" fill="white"/>
<path d="M254.041 6.67985C254.041 8.03413 254.039 9.24763 254.041 10.4611C254.046 14.3101 254.007 18.1609 254.073 22.0072C254.095 23.2189 254.28 24.1197 254.705 24.8155L251.941 27.9981H248.781C248.289 27.4189 247.999 27.0296 249.116 26.7302C251.757 26.0192 252.703 24.8984 252.743 22.2157C252.826 16.6382 252.882 11.0572 252.73 5.4815C252.681 3.71471 251.172 2.63931 249.587 1.89179C249.184 1.70201 248.812 1.45165 248.426 1.2298C248.48 1.07744 248.535 0.926866 248.59 0.774511C250.707 0.774511 252.828 0.733526 254.944 0.813713C255.324 0.82886 255.768 1.28949 256.042 1.65122C258.961 5.49843 261.869 9.35632 264.775 13.2142L261.564 16.9144C259.063 13.5118 256.558 10.103 254.041 6.67896" fill="white"/>
<path d="M275.418 0.944183L274.665 1.81377C272.809 2.34211 271.612 3.56898 271.47 5.49525L270.061 7.11682C270.06 6.82102 270.054 6.5261 270.05 6.23119C270.006 3.61085 269.026 2.41963 266.491 1.68101C266.158 1.58301 265.836 1.44224 265.511 1.32374C265.535 1.19811 265.558 1.07159 265.582 0.945965H275.417L275.418 0.944183Z" fill="white"/>
</svg>
