<svg width="1509" height="242" viewBox="0 0 1509 242" fill="none" xmlns="http://www.w3.org/2000/svg">
<path d="M1498.45 67.3271C1485.38 33.0041 1457.63 13.3299 1421.87 9.86791C1382.34 6.05509 1342.27 7.51921 1302.44 7.00067C1298.86 6.95491 1295.27 9.27311 1289 11.393C1293.68 14.0315 1295.25 15.4956 1297.06 15.854C1317.35 19.9109 1320.34 23.2738 1320.35 43.4512C1320.4 97.1129 1320.41 150.774 1320.35 204.451C1320.32 223.271 1317.44 227.359 1298.74 231.309C1290.27 233.093 1292.18 236.99 1294.27 242H1407.57C1411.62 240.955 1415.63 239.697 1419.75 238.912C1453.36 232.567 1482.01 218.444 1495.87 185.746C1512.31 146.946 1513.47 106.79 1498.45 67.3271ZM1456.81 178.143C1445.18 219.329 1410.7 231.85 1375.25 231.309C1364.38 231.149 1360.55 224.614 1360.7 214.563C1360.9 199.365 1360.71 184.152 1360.71 168.939C1360.7 154.145 1360.71 139.344 1360.71 124.565C1360.71 95.4047 1360.63 66.2519 1360.74 37.0914C1360.83 20.7497 1365.61 16.2429 1382.37 16.0294C1416.92 15.5948 1445.32 35.1698 1455.44 70.141C1465.69 105.646 1467.03 141.982 1456.8 178.143" fill="black" fill-opacity="0.1"/>
<path d="M1130.25 238H1078L1101.63 210C1106.14 217.611 1113.82 222.479 1125.97 226.414C1133.67 228.915 1134.96 231.76 1130.25 238Z" fill="black" fill-opacity="0.1"/>
<path d="M1232.92 58.908L1245 45C1244.97 45.2293 1244.95 45.4509 1244.94 45.6954C1243.5 70.1566 1243.28 94.7096 1243.07 119.217C1242.78 153.941 1243.11 188.673 1242.88 223.397C1242.85 228.272 1241.09 233.125 1240.12 238H1229.86C1206.59 206.325 1183.32 174.673 1160 142.937L1187.53 111.2C1197.07 123.832 1206.59 136.479 1216.11 149.119C1220.87 155.408 1225.74 161.621 1233.11 171.173C1233.11 157.059 1233.13 146.727 1233.11 136.418C1233.05 110.574 1233.24 84.7371 1232.92 58.908Z" fill="black" fill-opacity="0.1"/>
<path d="M1282.99 9.87897C1279.68 11.2718 1276.49 13.0595 1273.03 13.9856C1273.03 13.9856 1273.02 13.9904 1273 14L1279.41 7H1281.99C1282.32 7.96923 1282.67 8.9241 1283 9.87897" fill="black" fill-opacity="0.1"/>
<path d="M211.443 96.5706C208.568 44.1327 167.67 6.4456 114.543 5.56314C80.5651 5.00019 46.5796 5.06866 12.5863 5.00019C8.45697 4.98498 4.31995 5.86744 0.190571 6.33149C2.08415 10.5384 3.97772 12.0827 6.06903 12.4174C23.5371 15.2778 27.408 18.7924 27.484 35.757C27.7578 91.7627 27.7426 147.768 27.484 203.767C27.408 219.795 22.906 225.098 7.27064 227.525C-1.5965 228.894 -1.452 232.119 2.90552 238H94.7936C104.041 236.943 113.288 235.908 122.536 234.82C167.252 229.487 199.062 203.356 207.891 160.519C212.165 139.796 212.614 117.81 211.443 96.5782M160.05 181.606C148.749 213.055 111.448 233.763 78.4967 227.494C67.2873 225.356 66.6485 216.699 66.6029 208.072C66.4432 178.997 66.542 149.914 66.542 120.823C66.5268 92.1659 66.4127 63.5164 66.5724 34.8441C66.6713 16.7917 71.1505 12.3718 89.1509 12.6C121.281 13.0184 149.487 28.3702 159.655 61.4091C171.989 101.485 174.431 141.576 160.058 181.599" fill="black" fill-opacity="0.1"/>
<path d="M297.725 237.977H219.787C214.446 232.947 212.844 228.695 222.566 227.809C234.494 226.718 238.96 219.527 238.975 208.924C239.061 149.74 239.107 90.5573 238.914 31.3817C238.883 19.8931 233.913 11.8931 220.514 11.542C218.688 11.4809 216.9 9.26718 212 6H300.318C300.527 6.74046 300.76 7.49618 300.969 8.25954C299.157 9.41985 297.377 11.5496 295.558 11.5649C281.045 11.6947 277.027 21.1069 276.958 32.5496C276.648 90.8779 276.664 149.221 276.896 207.565C276.927 218.718 281.045 227.29 294.761 227.924C304.289 228.374 300.876 233.45 297.733 238" fill="black" fill-opacity="0.1"/>
<path d="M534.057 227.468C529.443 225.875 524.866 221.615 522.291 217.347C517.5 209.467 513.774 200.87 510.348 192.296C487.236 134.467 464.339 76.5393 441.288 18.6799C439.364 13.8557 436.727 9.2983 434.604 5C421.005 12.9031 408.84 19.9831 396.084 27.3832C401.634 32.2073 411.492 33.9145 406.816 45.3766C385.115 98.6176 364.172 152.171 342.609 205.481C337.963 216.951 329.286 224.915 316.584 227.689C306.067 229.975 310.091 233.885 315.289 238H389.898C394.352 231.835 393.685 229.038 385.168 227.445C365.682 223.825 358.661 213.3 361.282 193.912C361.673 191.001 362.332 188.089 363.291 185.323C367.162 174.288 371.186 163.298 375.318 151.851C399.534 151.851 423.059 151.561 446.562 152.156C450.058 152.255 455.079 155.806 456.581 159.045C462.583 171.948 467.811 185.254 472.748 198.629C479.156 215.975 476.765 221.188 459.716 227.963C451.299 231.324 456.788 234.578 459.364 238H536.549C538.412 233.93 542.022 230.211 534.057 227.475M379.772 141.342C385.774 126.297 391.554 111.924 397.265 97.5278C402.814 83.4821 408.318 69.4212 414.872 52.7462C427.061 83.1925 438.437 111.574 450.364 141.342H379.764H379.772Z" fill="black" fill-opacity="0.1"/>
<path d="M824.139 237.992H736.796C730.772 232.535 729.119 228.868 739.819 227.496C755.899 225.453 760.147 220.354 760.178 204.164C760.277 154.74 760.239 105.315 760.178 55.8911C760.178 53.4138 759.535 50.9212 758.953 46.6983C751.713 64.9008 745.253 80.9005 738.962 96.961C721.932 140.546 705.041 184.193 687.851 227.71C686.626 230.82 683.358 233.152 681.047 235.835C678.705 233.198 675.437 230.957 674.166 227.885C655.438 182.836 637.062 137.627 618.387 92.5553C611.613 76.205 604.251 60.0758 597.156 43.8552C595.219 93.4852 594.844 142.475 595.395 191.449C595.625 210.651 605.46 222.061 625.642 227.207C635.209 229.638 633.174 232.824 628.926 237.992H551.862C545.639 232.619 544.231 229.577 554.609 227.245C575.55 222.564 585.476 209.576 585.537 188.263C585.698 137.2 585.423 86.1295 585.744 35.0817C585.844 22.1082 580.234 15.7205 567.391 14.2265C563.61 13.792 560.104 11.1242 556.469 9.46247C556.79 8.05993 557.112 6.66502 557.441 5.26248C578.886 5.26248 600.363 4.95758 621.785 5.69696C624.227 5.78081 627.15 11.4596 628.704 15.0498C650.968 66.4863 673.026 118.014 695.152 169.52C695.749 170.907 696.477 172.241 698.306 175.976C709.243 147.826 719.376 121.841 729.433 95.7948C740.049 68.3538 750.373 40.8062 761.364 13.5253C762.772 10.0494 767.326 5.60549 770.625 5.44542C786.835 4.6603 803.107 5.11003 819.348 5.31584C820.702 5.33108 822.049 6.74887 823.289 7.44251C822.838 8.89079 822.792 10.2247 822.333 10.3848C806.454 15.8374 798.509 27.1085 798.499 44.1982C798.499 96.9534 798.469 149.709 798.53 202.449C798.545 220.971 801.989 225.08 820.978 227.618C831.073 228.967 828.54 232.931 824.162 238" fill="black" fill-opacity="0.1"/>
<path d="M1023.29 46.4395C984.234 -5.05749 921.523 -15.6145 872.75 24.2964C824.29 63.9634 813.811 134.455 848.081 186.585C876.233 229.392 927.564 248.608 969.777 232.144C1016.15 214.026 1046.82 169.473 1047 119.927C1047.08 94.5597 1038.77 66.8523 1023.29 46.4471M968.051 217.875C942.526 237.236 913.114 231.908 895.678 204.467C874.018 170.349 870.39 132.672 874.071 93.6984C874.553 88.4541 875.683 83.2557 876.973 75.1759C892.05 93.5993 905.721 110.003 919.041 126.673C936.47 148.496 953.501 170.639 970.93 192.477C980.591 204.566 980.316 208.553 968.043 217.875M998.891 156.819C998.731 159.457 996.936 162.003 995.454 165.7C960.864 122.084 927.03 79.3911 893.409 36.9877C915.016 0.308677 954.525 -1.83322 978.926 31.6596C993.522 51.6989 1000.1 74.8405 1001.29 98.9273C1002.24 118.143 999.998 137.52 998.883 156.812" fill="black" fill-opacity="0.1"/>
<path d="M1095.88 55.6126C1095.88 67.199 1095.87 77.5811 1095.88 87.9632C1095.93 120.893 1095.59 153.838 1096.16 186.745C1096.35 197.112 1097.93 204.819 1101.58 210.772L1077.86 238H1050.74C1046.52 233.045 1044.03 229.714 1053.62 227.153C1076.28 221.07 1084.4 211.481 1084.74 188.529C1085.45 140.811 1085.94 93.0627 1084.63 45.3601C1084.21 30.2444 1071.26 21.0438 1057.66 14.6484C1054.2 13.0248 1051 10.8828 1047.69 8.98478C1048.16 7.6813 1048.63 6.39307 1049.1 5.0896C1067.27 5.0896 1085.47 4.73896 1103.63 5.42499C1106.89 5.55458 1110.7 9.4955 1113.05 12.5903C1138.11 45.5049 1163.06 78.5111 1188 111.517L1160.45 143.174C1138.98 114.063 1117.48 84.8989 1095.88 55.605" fill="black" fill-opacity="0.1"/>
<path d="M1280 7L1273.54 14.3256C1257.61 18.7766 1247.35 29.112 1246.13 45.3395L1234.04 59C1234.03 56.5081 1233.98 54.0237 1233.94 51.5393C1233.57 29.4648 1225.16 19.4296 1203.41 13.2073C1200.55 12.3816 1197.79 11.1957 1195 10.1975C1195.21 9.13915 1195.4 8.07333 1195.61 7.01501H1279.99L1280 7Z" fill="black" fill-opacity="0.1"/>
</svg>
