<svg width="77" height="49" viewBox="0 0 77 49" fill="none" xmlns="http://www.w3.org/2000/svg">
<g clip-path="url(#clip0_883_1626)">
<path d="M7.34156 16.9778C7.48466 16.5582 7.44694 16.4277 7.16673 16.2185C5.72197 15.1397 4.27423 14.0651 2.84205 12.9684C2.41096 12.6382 2.35228 12.1971 2.27504 11.7429C2.17506 11.1564 2.06549 10.5682 2.02597 9.97631C1.97089 9.14962 1.75893 8.35095 1.65475 7.5332C1.57871 6.93598 1.52423 6.33638 1.45477 5.73916C1.38113 5.10558 1.51285 4.50419 1.78588 3.93439C2.014 3.45756 2.26606 2.99207 2.57681 2.56293C2.65824 2.45028 2.68458 2.33584 2.68698 2.20054C2.69775 1.61822 2.75463 1.04067 2.92647 0.480408C2.9618 0.364779 3.01209 0.24915 3.07735 0.147229C3.13483 0.057229 3.23003 -0.0238307 3.34619 0.00656669C3.46953 0.0387522 3.52641 0.146633 3.52641 0.272395C3.52641 0.531667 3.56113 0.792727 3.51024 1.05081C3.46893 1.26299 3.48389 1.47816 3.47432 1.69154C3.46533 1.88822 3.54197 1.96452 3.74914 1.94783C4.08503 1.9216 4.42212 1.88286 4.7604 1.91028C5.07594 1.93591 5.36872 2.0116 5.55253 2.30306C5.57708 2.3418 5.6166 2.38054 5.62019 2.42167C5.63935 2.66842 5.73335 2.91876 5.73096 3.14465C5.72856 3.34253 5.64474 3.56425 5.62498 3.78717C5.613 3.92425 5.44715 3.98624 5.29148 3.94452C5.17293 3.91293 5.05678 3.87121 4.93883 3.83664C4.57779 3.73114 4.26585 3.8426 4.10119 4.17459C3.89343 4.5918 3.75213 5.0424 3.44917 5.40955C3.39588 5.47452 3.433 5.54187 3.44498 5.60744C3.62639 6.57717 3.84912 7.53797 4.07724 8.49757C4.15328 8.81704 4.25207 9.13174 4.31853 9.4536C4.43589 10.024 4.75382 10.4752 5.1418 10.8888C5.19449 10.9449 5.25197 10.9961 5.30226 11.0539C5.72138 11.5331 6.1854 11.9098 6.847 12.0523C7.6517 12.2263 8.38935 12.6066 9.12819 12.9666C9.47426 13.1353 9.84847 13.2324 10.2209 13.3266C10.4921 13.3951 10.5616 13.3248 10.5382 13.0381C10.525 12.8706 10.5274 12.7014 10.528 12.5333C10.5286 12.3717 10.458 12.3288 10.3095 12.3843C10.1802 12.4325 10.0508 12.4844 9.91673 12.5166C9.71435 12.5649 9.6443 12.5005 9.67903 12.2937C9.78022 11.7 9.88499 11.107 9.99696 10.5151C10.0221 10.3822 10.0149 10.2791 9.90356 10.1873C9.7856 10.0902 9.68382 9.97333 9.56467 9.87678C9.40421 9.74684 9.39283 9.62883 9.54312 9.47804C10.1209 8.89512 10.6867 8.30088 11.2699 7.72333C11.4094 7.58505 11.4249 7.49744 11.289 7.35201C11.0795 7.1285 10.8903 6.88651 10.6933 6.65167C10.6358 6.58313 10.5382 6.51161 10.6113 6.41565C10.6897 6.31254 10.7927 6.38585 10.8831 6.4234C10.9897 6.4675 11.0974 6.50863 11.2004 6.55989C11.6812 6.7977 12.1626 6.81677 12.6955 6.70532C13.3804 6.56227 14.0845 6.54379 14.7527 6.84836C14.9713 6.9479 15.176 7.06651 15.3533 7.22863C15.4227 7.29181 15.4808 7.33353 15.5652 7.24472C16.0861 6.69816 16.7705 6.60817 17.471 6.59565C17.9386 6.5873 18.4098 6.62247 18.875 6.61651C19.7474 6.60519 20.6299 6.56167 21.4155 6.09558C21.4987 6.04611 21.5963 5.97042 21.6867 6.06518C21.7645 6.14684 21.6975 6.2422 21.6592 6.32148C21.473 6.71187 21.155 6.97115 20.782 7.17141C20.2743 7.44439 19.7228 7.5773 19.1576 7.65956C18.2332 7.79485 17.2902 7.77519 16.3747 7.9826C15.9718 8.0738 15.561 8.15307 15.2257 8.42366C15.1808 8.46002 15.1323 8.47671 15.0784 8.43916C15.0192 8.39744 15.018 8.3432 15.0305 8.27704C15.0701 8.07141 15.1407 7.87711 15.2455 7.6983C15.3108 7.58684 15.3137 7.50995 15.209 7.42293C14.5983 6.91154 13.8923 6.76373 13.117 6.86326C12.7823 6.90618 12.4542 6.98724 12.1231 7.04744C11.8608 7.09512 11.6183 6.93777 11.3645 6.88234C11.3232 6.8734 11.2878 6.82452 11.2118 6.88651C12.6398 8.56909 14.0672 10.2505 15.5413 11.9867C15.594 11.489 15.5975 11.0623 15.7035 10.6498C15.7179 10.5938 15.682 10.5652 15.6395 10.5419C15.2102 10.3059 15.0066 9.93996 15.0599 9.45896C15.1162 8.94936 15.482 8.66505 15.8957 8.4326C16.1699 8.27823 16.4765 8.24843 16.7824 8.21744C17.8662 8.10717 18.9493 7.99452 20.033 7.88724C20.1252 7.8783 20.2515 7.83419 20.3006 7.9528C20.3479 8.06783 20.2551 8.15545 20.1809 8.23174C19.9947 8.42426 19.8091 8.61797 19.5791 8.76459C19.154 9.03578 18.6996 9.06201 18.229 8.93267C17.8225 8.82121 17.4482 8.60843 17.0249 8.54704C16.828 8.51843 16.6316 8.51486 16.3891 8.54943C16.5926 8.68234 16.783 8.75863 16.919 8.92015C17.4183 9.5138 17.1016 10.4478 16.3412 10.6051C15.9095 10.6945 15.8718 10.7476 15.8442 11.2041C15.8233 11.5546 15.785 11.9045 15.7538 12.2543C15.7484 12.3157 15.7448 12.3837 15.6748 12.4063C15.6035 12.4296 15.5592 12.3729 15.5203 12.3282C15.2227 11.9879 14.924 11.6482 14.6342 11.3013C14.5168 11.1606 14.4683 11.1666 14.3977 11.3412C14.1588 11.9349 13.9959 12.5458 13.963 13.1847C13.9534 13.3725 13.9798 13.5692 14.0277 13.7516C14.1336 14.1521 14.2432 14.223 14.6617 14.223C15.8999 14.223 17.1387 14.223 18.3769 14.223C18.6575 14.223 18.7978 14.3665 18.7978 14.6533C18.7978 14.9597 18.805 15.2661 18.7954 15.5718C18.7906 15.7304 18.8756 15.7757 19.0062 15.8198C19.1636 15.8728 19.3031 15.8442 19.4151 15.7482C19.4935 15.6815 19.384 15.6308 19.3409 15.5903C19.0972 15.359 18.9415 15.0867 18.9271 14.7463C18.8972 14.0132 19.1948 13.5888 19.9324 13.3123C19.9324 13.2163 19.8426 13.199 19.7863 13.1573C19.1073 12.6572 18.8295 11.9885 18.9283 11.1582C18.9385 11.0742 18.9445 10.9675 19.0594 10.9812C19.1912 10.9967 19.1654 11.11 19.1511 11.2C19.0109 12.0505 19.5624 12.8092 20.2012 13.1233C20.4425 13.2419 20.4928 13.2139 20.5455 12.9636C20.6539 12.4474 20.7635 11.9319 20.8832 11.4187C20.9221 11.2506 20.9012 11.1439 20.7455 11.0325C20.4018 10.7863 20.321 10.3453 20.5156 9.96499C20.6922 9.61989 21.0946 9.46969 21.528 9.5877C21.846 9.67413 22.0968 10.0484 22.0765 10.406C22.0537 10.8155 21.7556 11.1427 21.343 11.1916C21.2137 11.2071 21.1514 11.2584 21.1251 11.3806C21.0006 11.9551 20.8718 12.5291 20.7467 13.1037C20.7191 13.2288 20.7658 13.2849 20.903 13.2843C21.8106 13.2825 22.4764 12.8104 22.768 11.9605C22.7962 11.8782 22.7896 11.7179 22.9333 11.7632C23.0728 11.8073 23.0081 11.9474 22.9788 12.0421C22.7537 12.7592 22.283 13.2348 21.5556 13.4488C21.4023 13.4935 21.2448 13.5233 21.061 13.5662C21.352 13.8618 21.5418 14.1884 21.5358 14.6069C21.5274 15.1904 21.2472 15.6237 20.7036 15.8341C20.5575 15.8907 20.5515 15.8996 20.6437 16.051C20.888 16.4504 21.2814 16.5982 21.6723 16.7704C22.0873 16.9534 22.4878 17.168 22.8698 17.4094C23.0333 17.5131 23.1219 17.4749 23.2392 17.351C23.4811 17.0947 23.7428 16.8563 23.9853 16.6C24.1104 16.4676 24.2014 16.4748 24.3265 16.6012C25.224 17.5035 26.1263 18.4018 27.0274 19.3006C27.5543 19.8257 28.0752 20.3567 28.6135 20.8699C28.7662 21.0153 28.7584 21.1041 28.6183 21.2382C28.3578 21.4874 28.1118 21.7508 27.8501 21.9994C27.7417 22.1025 27.731 22.1818 27.8088 22.3135C28.4452 23.3935 28.9596 24.5271 29.302 25.7353C29.3374 25.8604 29.3685 25.9868 29.4026 26.1126C29.4609 26.3291 29.6056 26.4376 29.8367 26.438C30.1367 26.438 30.4373 26.4493 30.7366 26.4344C30.9593 26.4231 31.0294 26.5047 31.0282 26.7241C31.0204 27.9263 31.0246 29.1285 31.0246 30.3306C31.0246 31.0888 31.0246 31.8469 31.0246 32.6045C31.0246 32.9305 31.0234 32.9311 30.6863 32.9317C30.363 32.9317 30.0403 32.9377 29.717 32.9299C29.5523 32.9257 29.4637 32.983 29.423 33.1481C29.0811 34.5225 28.5542 35.8224 27.8076 37.0306C27.7226 37.1683 27.7339 37.2541 27.8507 37.3638C28.1195 37.6153 28.3722 37.8841 28.638 38.1392C28.747 38.2435 28.7704 38.3216 28.6506 38.4402C27.1903 39.8879 25.7336 41.3393 24.278 42.7924C24.1757 42.8949 24.105 42.8812 24.0116 42.7852C23.7488 42.5164 23.4745 42.2589 23.2153 41.9866C23.1075 41.8733 23.0219 41.8513 22.8806 41.9365C21.8298 42.5713 20.709 43.0493 19.5324 43.3991C19.3708 43.4474 19.2085 43.5017 19.0427 43.5249C18.8475 43.5523 18.7894 43.6501 18.7948 43.8354C18.805 44.1799 18.7918 44.5244 18.7996 44.8689C18.8038 45.0483 18.7301 45.1115 18.5535 45.1097C17.9308 45.1038 17.3075 45.1068 16.6843 45.1085C16.4166 45.1091 16.3549 45.1664 16.4142 45.4209C16.4651 45.6402 16.3909 45.7898 16.2394 45.9299C16.0238 46.1295 15.7772 46.2869 15.5299 46.4395C15.1216 46.691 14.812 47.0331 14.6575 47.4766C14.4318 48.1227 13.9301 48.4695 13.3571 48.73C12.8278 48.9702 12.2704 49.0948 11.68 48.9154C11.3274 48.8081 11.1609 48.6489 11.1741 48.3599C11.1843 48.1334 11.304 47.9504 11.5166 47.926C11.9488 47.8759 12.1734 47.585 12.3817 47.2715C12.6823 46.8191 12.9146 46.3387 12.8841 45.7737C12.8751 45.608 12.9421 45.459 12.9888 45.3058C13.029 45.1753 12.9781 45.1145 12.8487 45.1109C12.7027 45.1068 12.5566 45.1032 12.4105 45.1085C12.2524 45.1145 12.1895 45.0448 12.1913 44.8892C12.1955 44.5215 12.1883 44.1543 12.1931 43.7866C12.1949 43.6393 12.135 43.569 11.9896 43.5332C10.6304 43.1965 9.34553 42.6762 8.14626 41.9556C7.98281 41.8572 7.88401 41.8679 7.75588 42.0074C7.5116 42.2726 7.24337 42.5152 6.99489 42.7757C6.88293 42.8931 6.80509 42.8854 6.69313 42.7739C5.24897 41.3309 3.80242 39.8903 2.35288 38.4533C2.23014 38.3317 2.23313 38.2495 2.35528 38.1338C2.62291 37.8811 2.87737 37.6141 3.14381 37.3602C3.24739 37.2612 3.27434 37.182 3.19351 37.0461C2.75882 36.3142 2.37204 35.5578 2.07926 34.7567C1.89006 34.2394 1.69966 33.722 1.5829 33.1832C1.54339 33.0008 1.45777 32.9246 1.26857 32.9293C0.914714 32.9383 0.56086 32.9257 0.207006 32.9341C0.0447484 32.9383 -0.00135439 32.8799 -0.00135439 32.7201C0.00343551 30.699 0.00403425 28.6773 -0.00195312 26.6561C-0.00195312 26.4803 0.0531307 26.4308 0.221975 26.435C0.583013 26.4445 0.94465 26.435 1.30629 26.4386C1.45298 26.4404 1.53501 26.3808 1.56794 26.2377C1.76672 25.3699 2.07986 24.5414 2.44149 23.729C2.65345 23.2522 2.90252 22.7957 3.17076 22.3492C3.26236 22.1973 3.25159 22.0971 3.11986 21.9755C2.85522 21.7306 2.60914 21.4659 2.34869 21.2168C2.23613 21.1089 2.22894 21.0296 2.3445 20.9152C3.79404 19.4782 5.24119 18.0382 6.68474 16.5952C6.80928 16.4706 6.8973 16.4778 7.00327 16.6041C7.10506 16.7257 7.21463 16.8408 7.33857 16.979L7.34156 16.9778ZM3.26476 0.341534C3.16297 0.445243 3.14621 0.550144 3.11388 0.648488C2.94862 1.15273 2.9576 1.67365 2.96778 2.19339C2.97078 2.33584 2.93904 2.45683 2.85642 2.57962C2.50556 3.10054 2.19302 3.64114 1.92598 4.21392C1.66733 4.76942 1.65356 5.34459 1.69966 5.91797C1.76193 6.6928 1.87748 7.46406 2.0104 8.23234C2.14272 9.00002 2.26427 9.77068 2.35707 10.5437C2.42353 11.0974 2.484 11.6506 2.60136 12.1971C2.65285 12.4367 2.78218 12.6078 2.97257 12.7556C4.41673 13.8737 5.87705 14.9704 7.35772 16.0403C7.62596 16.2346 7.69362 16.4474 7.68164 16.7543C7.66128 17.2878 7.64272 17.8242 7.81277 18.3451C8.01095 18.9525 8.35822 19.4007 9.01862 19.5461C9.13238 19.5712 9.34793 19.5032 9.32518 19.6856C9.30302 19.8668 9.10245 19.7696 8.97551 19.7714C8.91085 19.772 8.83122 19.7106 8.78811 19.7893C8.75578 19.8477 8.82463 19.899 8.84918 19.9532C8.86175 19.9812 8.87912 20.0069 8.89468 20.0331C9.67783 21.3324 10.4538 22.6359 11.2453 23.9305C11.889 24.9825 12.4865 26.0619 13.1804 27.0841C13.475 27.518 13.6193 27.9942 13.5846 28.536C13.5594 28.9324 13.4936 29.3281 13.5032 29.7233C13.5271 30.696 13.3984 31.6616 13.399 32.6331C13.399 33.129 13.3295 33.6243 13.3223 34.1202C13.3146 34.6512 13.2679 35.1823 13.4684 35.7062C13.6313 36.1318 13.7103 36.5883 13.8247 37.0318C14.0211 37.7941 13.9953 38.5785 14.0474 39.3545C14.1043 40.202 14.0839 41.0514 14.0881 41.9007C14.0923 42.7876 14.0103 43.6548 13.5906 44.4613C13.32 44.9804 13.1876 45.5341 13.0876 46.1164C12.9332 47.0152 12.6027 47.8538 11.5842 48.1548C11.483 48.1846 11.4208 48.2723 11.3998 48.3748C11.3764 48.4868 11.4651 48.5369 11.5423 48.5876C11.6603 48.6638 11.7878 48.7145 11.9303 48.7199C12.2919 48.733 12.6601 48.7568 13.0014 48.6197C13.6014 48.3783 14.1486 48.0726 14.4138 47.4247C14.6084 46.9491 14.903 46.5438 15.3569 46.2672C15.5922 46.1236 15.8125 45.9555 16.0352 45.7928C16.2346 45.6468 16.161 45.4316 16.1556 45.2397C16.1514 45.0793 15.9969 45.1234 15.9065 45.0919C15.5131 44.9524 15.2054 44.5495 15.2575 44.1835C15.3275 43.6918 15.5604 43.2859 15.9861 43.0105C16.4052 42.7393 16.8297 42.4771 17.2543 42.2148C17.6853 41.9484 18.117 41.6838 18.5517 41.4233C18.6313 41.3756 18.7194 41.2844 18.8217 41.3715C18.9122 41.4489 18.8475 41.5401 18.8205 41.626C18.8068 41.6695 18.8032 41.7177 18.7834 41.7583C18.6834 41.9627 18.8008 41.9574 18.9403 41.9168C19.1906 41.8435 19.4408 41.769 19.6875 41.6844C20.8964 41.2695 22.0082 40.6693 23.0422 39.9255C23.2207 39.7967 23.3326 39.8206 23.4691 39.9738C23.638 40.1621 23.829 40.3302 24.0038 40.5132C24.1008 40.6151 24.1751 40.6383 24.2876 40.5251C24.9857 39.823 25.6875 39.125 26.3916 38.4295C26.5 38.3228 26.491 38.2423 26.3844 38.1434C26.2162 37.9866 26.0599 37.8173 25.8928 37.6594C25.6396 37.4204 25.6336 37.4198 25.8324 37.1361C26.4646 36.2361 27.0143 35.292 27.4052 34.2608C27.7345 33.393 27.977 32.502 28.1231 31.5865C28.1591 31.3606 28.2668 31.2992 28.4788 31.3129C28.7165 31.3278 28.9554 31.3129 29.1937 31.3165C29.3332 31.3183 29.4104 31.2706 29.4098 31.1186C29.4074 30.1387 29.408 29.1583 29.4098 28.1784C29.4098 28.033 29.3416 27.9698 29.1985 27.9716C29.0141 27.974 28.829 27.9734 28.6446 27.9704C28.1327 27.962 28.1776 28.0544 28.0758 27.4858C28.0459 27.3183 27.9687 27.2551 27.8082 27.2313C27.3909 27.1705 26.9748 27.1014 26.5604 27.0245C26.3185 26.9798 26.3024 26.9851 26.3545 27.2277C26.6269 28.5014 26.7317 29.7841 26.5455 31.0787C26.3209 32.6403 25.8431 34.1178 24.9977 35.4618C23.6296 37.6367 21.746 39.1894 19.3199 40.0769C19.2031 40.1198 19.1205 40.1901 19.0696 40.2986C18.8319 40.7993 18.435 41.1581 17.9997 41.4793C17.3632 41.9496 16.6298 42.2703 16.0017 42.7542C15.6634 43.0153 15.2958 43.2483 15.0928 43.6465C15.0629 43.7049 15.0258 43.7556 14.9527 43.7389C14.8647 43.718 14.8372 43.6459 14.8282 43.5648C14.7425 42.8073 14.9024 42.1463 15.5826 41.6963C15.6868 41.6277 15.7365 41.5455 15.7604 41.4215C15.8604 40.9036 15.9508 40.385 16.0316 39.8641C16.1298 39.2287 16.2083 38.5922 16.1693 37.9485C16.1364 37.4019 15.9526 36.8881 15.7999 36.3678C15.6514 35.863 15.4796 35.3629 15.6023 34.8169C15.7538 34.1428 15.9706 33.4902 16.2214 32.8495C16.8447 31.2581 17.3872 29.6452 17.6321 27.9453C17.6644 27.7224 17.6309 27.6908 17.4129 27.7236C17.0082 27.7844 16.8208 27.5472 16.9393 27.1586C16.9573 27.1008 16.9705 27.0346 17.0076 26.9899C17.0956 26.885 17.1022 26.798 17.0088 26.6889C16.9058 26.5679 16.9034 26.4255 16.9663 26.2783C17.0627 26.053 17.1573 25.8271 17.3159 25.6345C17.5009 25.4098 17.6841 25.1834 17.865 24.9545C18.1092 24.6457 18.0913 24.2935 17.8117 24.0277C17.3506 23.589 16.8866 23.1527 16.4178 22.7224C16.2933 22.6085 16.2472 22.4839 16.2502 22.3183C16.2717 21.0791 16.2873 19.8394 16.3053 18.6002C16.3064 18.5084 16.3023 18.4155 16.3142 18.3249C16.334 18.1717 16.4112 18.102 16.5687 18.18C16.6304 18.2104 16.6962 18.2355 16.7543 18.2718C17.4375 18.6938 18.135 19.0681 18.9684 19.1104C19.1349 19.1188 19.2157 19.0991 19.251 18.9435C19.3019 18.72 19.3426 18.4935 19.4049 18.273C19.4444 18.1324 19.3953 18.0656 19.2756 18.0006C18.7277 17.7038 18.4954 17.2145 18.6379 16.6161C18.681 16.4355 18.6128 16.3908 18.4691 16.3437C17.9727 16.181 17.4716 16.0331 16.986 15.8406C16.1436 15.5063 15.2952 15.1898 14.5228 14.7016C14.0121 14.3786 13.7439 13.9387 13.7301 13.3415C13.7157 12.7461 13.8079 12.1548 14.0576 11.6243C14.3091 11.0903 14.2163 10.7321 13.8151 10.3077C13.0894 9.54002 12.4344 8.70618 11.7549 7.89558C11.6441 7.76327 11.5621 7.74956 11.4441 7.88188C11.3112 8.03029 11.1669 8.16856 11.0214 8.30505C10.9214 8.39923 10.9154 8.47552 11.0226 8.56969C11.2298 8.75207 11.4321 8.94042 11.6327 9.12996C11.6926 9.18598 11.7722 9.25274 11.686 9.34214C11.6016 9.42976 11.5303 9.35525 11.4687 9.30042C11.2801 9.13174 11.0867 8.96724 10.9112 8.78545C10.7813 8.65075 10.6861 8.63406 10.5586 8.78545C10.4209 8.94936 10.2646 9.09837 10.1137 9.25095C9.71615 9.65267 9.71376 9.65386 10.1227 10.0574C10.2388 10.1718 10.3137 10.269 10.2424 10.4549C10.1478 10.7023 10.1993 10.7595 10.4759 10.8352C10.5376 10.8519 10.6011 10.8739 10.6071 10.9455C10.6137 11.0301 10.546 11.0659 10.4777 11.0831C10.4191 11.098 10.3562 11.0992 10.2951 11.101C10.1987 11.1034 10.1377 11.138 10.1173 11.2411C10.0646 11.5111 10.0011 11.7787 9.95086 12.0493C9.92571 12.184 9.96283 12.2561 10.1269 12.2007C10.549 12.0588 10.9747 11.9271 11.3986 11.7918C11.962 11.6124 12.5254 11.433 13.09 11.2554C13.1727 11.2298 13.2703 11.2095 13.3026 11.3198C13.3313 11.4181 13.2391 11.4455 13.1691 11.4759C13.1337 11.4908 13.0966 11.501 13.0601 11.5123C12.344 11.7423 11.6285 11.9748 10.9112 12.2013C10.7945 12.2382 10.6987 12.2901 10.7382 12.4224C10.819 12.6936 10.7753 12.9684 10.7903 13.2414C10.8059 13.5382 10.6634 13.6747 10.3688 13.6085C9.81255 13.4839 9.26231 13.3242 8.75638 13.0655C8.04088 12.7002 7.29845 12.417 6.52967 12.1906C6.24707 12.1071 5.93872 12.0731 5.71838 11.8359C5.44656 11.5439 5.16335 11.2631 4.88973 10.9729C4.53288 10.5938 4.26106 10.1676 4.12394 9.65804C3.77249 8.35154 3.50246 7.02717 3.20608 5.70816C3.17734 5.58121 3.10609 5.42922 3.20907 5.30942C3.51443 4.953 3.6707 4.51909 3.86948 4.10604C4.0958 3.63578 4.49396 3.47008 4.9987 3.62147C5.06516 3.64114 5.12863 3.67094 5.19628 3.68465C5.25556 3.69717 5.3322 3.70909 5.36812 3.65425C5.40824 3.59286 5.34717 3.53922 5.30705 3.4975C5.17952 3.36458 5.02504 3.29068 4.83584 3.29246C4.44367 3.29604 4.0521 3.29783 3.65992 3.29843C3.58329 3.29843 3.50485 3.30021 3.43061 3.28472C3.34858 3.26743 3.28571 3.2126 3.31984 3.11962C3.34678 3.04511 3.41265 3.01889 3.48988 3.05525C3.6234 3.11842 3.75872 3.10174 3.89583 3.07313C4.28381 2.99088 4.6682 2.99505 5.05857 3.08147C5.18371 3.10948 5.40644 3.23644 5.44536 3.08684C5.48667 2.92829 5.26394 2.83531 5.10348 2.77452C5.08911 2.76915 5.07414 2.76498 5.05917 2.76081C4.80291 2.68869 4.54426 2.68094 4.28321 2.72803C4.05569 2.76915 3.82697 2.79836 3.59586 2.7769C3.50365 2.76856 3.42881 2.72326 3.4342 2.61836C3.44019 2.50452 3.52461 2.52776 3.60484 2.52776C3.78865 2.52776 3.97246 2.51465 4.15628 2.50809C4.50115 2.49617 4.84662 2.46339 5.1879 2.54981C5.24897 2.56531 5.3304 2.62372 5.37531 2.54326C5.41662 2.46935 5.33699 2.41988 5.29208 2.3716C5.05678 2.12068 4.74304 2.12127 4.43649 2.12783C4.15328 2.13379 3.87128 2.17193 3.58808 2.1922C3.40786 2.20472 3.30308 2.1326 3.27254 1.94008C3.24081 1.74101 3.24739 1.5473 3.25937 1.34763C3.27853 1.02458 3.26476 0.700342 3.26476 0.342726V0.341534ZM13.3122 28.865C13.3122 28.781 13.308 28.6963 13.3128 28.6123C13.3427 28.0973 13.275 27.6145 12.9583 27.1771C12.3733 26.3694 11.9099 25.4849 11.3872 24.638C10.9082 23.8626 10.4448 23.0776 9.98259 22.292C9.87721 22.1132 9.78381 22.0632 9.61437 22.2181C9.34254 22.4661 9.04197 22.6848 8.78452 22.9459C7.91515 23.8268 7.22421 24.8269 6.72785 25.9659C6.10517 27.394 5.90279 28.8859 5.99201 30.4212C6.02853 31.0524 6.15905 31.6753 6.33628 32.2886C6.73564 33.6654 7.41221 34.8909 8.3636 35.9565C9.74788 37.5068 11.4681 38.5058 13.5032 38.9617C13.7498 39.0171 13.8091 38.976 13.8049 38.7203C13.7918 37.8412 13.572 36.9978 13.3529 36.1538C13.2212 35.646 12.9936 35.1555 13.0667 34.6101C13.102 34.3443 13.1188 34.0785 13.1164 33.8103C13.1128 33.4056 13.1092 32.9979 13.1409 32.5973C13.2391 31.3546 13.2128 30.1071 13.3128 28.865H13.3122ZM1.59009 29.6148C1.59009 30.1048 1.59428 30.5947 1.58769 31.0846C1.5859 31.2497 1.64457 31.3248 1.81581 31.3171C1.98466 31.3093 2.1541 31.3159 2.32354 31.3159C2.63848 31.3159 2.83087 31.4663 2.90072 31.7671C2.9109 31.8118 2.92887 31.8547 2.93665 31.9C3.151 33.1373 3.55215 34.3139 4.12275 35.432C4.41493 36.0054 4.75561 36.5526 5.13162 37.0759C5.28809 37.2936 5.27452 37.4957 5.09091 37.682C4.93464 37.84 4.78016 38.0009 4.6173 38.1523C4.51133 38.2507 4.49816 38.3252 4.60892 38.4348C5.31364 39.1298 6.01476 39.8283 6.71348 40.5299C6.81407 40.6312 6.88712 40.6246 6.97992 40.5251C7.11045 40.385 7.25055 40.2533 7.38646 40.118C7.73912 39.7681 7.74152 39.7652 8.15165 40.0542C9.16172 40.7671 10.2484 41.3274 11.4232 41.7195C12.1386 41.9585 12.8697 42.1284 13.6121 42.253C13.7187 42.2709 13.8235 42.2893 13.8229 42.135C13.8217 41.6921 13.8151 41.2487 13.8121 40.8058C13.8109 40.6777 13.7546 40.6193 13.6211 40.5984C12.8218 40.4738 12.047 40.2527 11.301 39.9446C10.1496 39.4689 9.09346 38.8348 8.15824 38.0099C7.05177 37.0342 6.16085 35.8922 5.51062 34.5702C5.01786 33.5683 4.69993 32.5133 4.50893 31.4106C4.37302 30.6281 4.3371 29.8395 4.37961 29.0629C4.44367 27.8887 4.68556 26.7342 5.13282 25.6316C5.65971 24.3328 6.3758 23.1569 7.34934 22.1412C7.81696 21.6537 8.29595 21.1786 8.84978 20.7853C8.91504 20.7388 9.00844 20.6917 8.94438 20.585C8.71985 20.2107 8.51089 19.8269 8.25344 19.4728C8.15644 19.3399 8.04627 19.328 7.92653 19.44C7.78642 19.5712 7.67506 19.5294 7.55471 19.4031C7.36431 19.2034 7.15595 19.0204 6.96675 18.8196C6.87275 18.72 6.81707 18.732 6.72725 18.8225C6.02374 19.5294 5.31663 20.2333 4.60713 20.9343C4.50953 21.0308 4.49816 21.1035 4.60234 21.1995C4.73765 21.3241 4.86698 21.4558 4.99451 21.5887C5.41003 22.0214 5.41482 21.8587 5.05438 22.3761C3.91439 24.0128 3.17794 25.808 2.87917 27.7779C2.85702 27.9245 2.79295 27.974 2.65464 27.9722C2.38521 27.9686 2.11578 27.9817 1.84695 27.9686C1.63978 27.9585 1.58171 28.0419 1.5859 28.2374C1.59668 28.6963 1.58949 29.1559 1.58949 29.6154L1.59009 29.6148ZM25.0295 29.5326C25.048 28.8388 24.9127 28.0288 24.7103 27.2253C24.6762 27.0906 24.6097 27.0579 24.4858 27.0567C24.2619 27.0549 24.1379 27.1985 24.0236 27.3553C23.3099 28.3328 22.6351 29.3371 21.9657 30.3449C21.4107 31.18 20.8425 32.0061 20.3497 32.8816C20.1875 33.1701 19.9695 33.4205 19.7205 33.6398C19.3606 33.9563 18.9625 34.1124 18.4715 33.9605C17.7937 33.7501 17.2441 33.3382 16.7124 32.8948C16.525 32.7386 16.5196 32.7398 16.4292 32.9734C16.2544 33.4222 16.1011 33.8788 15.9718 34.3419C15.8448 34.7967 15.7077 35.2497 15.8604 35.7342C16.0232 36.2516 16.1663 36.7761 16.3029 37.3012C16.4382 37.8221 16.5028 38.3508 16.4023 38.889C16.3633 39.0964 16.413 39.1447 16.6358 39.1137C17.1752 39.038 17.7105 38.9343 18.2296 38.7734C20.5707 38.0462 22.392 36.6378 23.6679 34.5565C24.5834 33.0628 25.0414 31.4285 25.0289 29.5338L25.0295 29.5326ZM28.0668 26.8302C28.0279 26.6192 27.8543 26.4833 27.6789 26.3641C27.1149 25.9802 26.4958 25.7526 25.803 25.7591C25.4665 25.7621 25.1761 25.6655 24.9199 25.4349C24.6576 25.1989 24.3577 25.0087 24.0409 24.8472C23.935 24.7936 23.8452 24.7661 23.7703 24.899C23.3266 25.6816 22.7297 26.3575 22.2256 27.0978C21.8172 27.698 21.2724 28.0979 20.6024 28.362C20.0785 28.5688 19.6414 28.8996 19.3241 29.377C19.1337 29.6637 18.9277 29.9414 18.7176 30.2144C18.4954 30.5029 18.2338 30.5261 17.9691 30.277C17.8422 30.1572 17.7476 30.0046 17.635 29.8693C17.6039 29.8318 17.5931 29.7555 17.5237 29.7751C17.4758 29.7889 17.4776 29.8485 17.4656 29.8926C17.286 30.5732 17.0866 31.2473 16.8297 31.9036C16.6757 32.2969 16.7651 32.6267 17.098 32.893C17.5063 33.2214 17.9296 33.5265 18.429 33.7042C18.7822 33.8299 19.1151 33.8049 19.4271 33.5629C19.736 33.3233 19.9893 33.0342 20.1791 32.7028C20.6096 31.9512 21.085 31.2289 21.5664 30.5095C22.3118 29.3949 23.0363 28.266 23.8457 27.1949C23.9978 26.9941 24.1481 26.8171 24.4391 26.832C24.5894 26.8397 24.7427 26.7968 24.8941 26.773C25.36 26.7002 25.83 26.6752 26.2952 26.7372C26.8263 26.8081 27.3526 26.9154 27.88 27.0126C28.0207 27.0382 28.0615 26.9732 28.0662 26.8296L28.0668 26.8302ZM17.6147 29.3097C17.6171 29.4688 18.0697 30.1048 18.2368 30.1757C18.3523 30.2246 18.4332 30.1715 18.4984 30.0916C18.6194 29.9432 18.7499 29.799 18.8457 29.6351C19.2995 28.8543 19.9528 28.3191 20.7982 28.0026C21.0796 27.8971 21.3556 27.757 21.5514 27.5269C21.8639 27.1598 22.1471 26.7676 22.4447 26.3879C22.5189 26.2932 22.5052 26.2306 22.3974 26.1716C21.7891 25.8384 21.2418 25.3741 20.5054 25.3204C20.4371 25.3157 20.3389 25.3133 20.3288 25.2084C20.3186 25.1029 20.406 25.0647 20.4808 25.0296C20.8269 24.8669 21.1832 24.9026 21.54 24.9837C22.0106 25.0904 22.41 25.3645 22.8489 25.5451C22.9698 25.5946 23.047 25.5982 23.1141 25.4748C23.2009 25.3163 23.0536 25.3103 22.9794 25.274C22.5172 25.0492 22.0507 24.8311 21.5867 24.61C21.525 24.5808 21.449 24.5534 21.4484 24.4723C21.4484 24.3787 21.5304 24.3531 21.6023 24.3251C22.1196 24.1224 22.5423 24.2434 22.8866 24.6839C22.9854 24.8102 23.0991 24.9247 23.2099 25.0421C23.2512 25.0856 23.2967 25.1351 23.3686 25.0975C23.4931 25.0332 23.5925 24.6732 23.517 24.5522C23.3632 24.3048 23.1841 24.0753 23.0069 23.8441C22.5369 23.2332 21.9897 22.6997 21.3891 22.2193C21.1963 22.0649 21.1784 22.0715 21.0736 22.3022C21.0012 22.4619 20.9299 22.6228 20.8539 22.7814C20.5401 23.4382 20.0905 23.9985 19.5929 24.5236C19.5121 24.6094 19.4504 24.7024 19.4193 24.8162C19.3504 25.0665 19.2834 25.3181 19.2073 25.566C19.0409 26.1102 18.8762 26.6752 18.4517 27.068C18.0925 27.4006 17.8422 27.7296 17.8201 28.2386C17.8045 28.5926 17.6883 28.9419 17.6141 29.3102L17.6147 29.3097ZM27.7531 26.0822C27.6244 25.7102 27.5286 25.3979 27.41 25.0945C26.9939 24.0265 26.4275 23.0388 25.7569 22.1102C25.6647 21.9827 25.6779 21.8986 25.7863 21.7967C25.9868 21.6072 26.1748 21.4045 26.3754 21.215C26.4868 21.1101 26.5035 21.0261 26.3862 20.9104C25.6773 20.2107 24.972 19.5074 24.2679 18.8023C24.1828 18.7171 24.1206 18.7188 24.0385 18.8029C23.8619 18.9841 23.6805 19.1599 23.4991 19.3363C23.256 19.5735 23.2524 19.5765 22.9692 19.3733C22.5195 19.0514 22.0489 18.7635 21.5694 18.4894C21.5179 18.4602 21.4622 18.4053 21.4017 18.4375C21.3263 18.4775 21.3766 18.5496 21.3915 18.602C21.531 19.086 21.5388 19.5825 21.5226 20.079C21.5167 20.2661 21.5753 20.3847 21.7364 20.4938C23.5404 21.7175 24.8774 23.3285 25.739 25.327C25.7976 25.4635 25.8803 25.5231 26.0341 25.5273C26.3742 25.5374 26.7029 25.6137 27.0155 25.7514C27.2388 25.8497 27.4609 25.951 27.7531 26.0822ZM21.3299 19.8435C21.2993 19.387 21.2394 18.9102 21.0999 18.4465C21.0179 18.1741 20.615 17.9392 20.3395 18.0149C20.1611 18.0638 19.9857 18.1192 19.8007 18.1359C19.7246 18.1431 19.6642 18.1681 19.6468 18.248C19.5857 18.5239 19.5259 18.8005 19.4672 19.0777C19.4504 19.1563 19.4708 19.2207 19.5612 19.2278C19.7947 19.2475 19.8067 19.4096 19.818 19.5896C19.8396 19.9294 19.76 20.259 19.7312 20.5933C19.6342 21.73 19.3223 22.804 18.7768 23.8036C18.4751 24.3567 18.132 24.9008 18.0805 25.5332C18.0332 26.1191 17.6871 26.5071 17.3638 26.9285C17.3219 26.9834 17.2788 27.0376 17.2411 27.0948C17.1734 27.1979 17.0824 27.3147 17.1758 27.4292C17.2722 27.5472 17.4171 27.5019 17.5387 27.4518C17.8356 27.3296 18.0805 27.1347 18.2889 26.8934C18.7553 26.3528 18.9325 25.6852 19.1139 25.02C19.1972 24.7155 19.3073 24.4341 19.5414 24.1987C20.7323 23.0019 21.2496 21.5243 21.3293 19.8441L21.3299 19.8435ZM16.5094 22.1901C16.4699 22.3707 16.5286 22.4702 16.6238 22.5602C17.074 22.987 17.5219 23.4167 17.9709 23.8441C18.014 23.8852 18.0566 23.9472 18.1254 23.9204C18.1931 23.8947 18.1829 23.8202 18.1955 23.7612C18.3122 23.2087 18.4248 22.655 18.5475 22.1037C18.7313 21.277 18.9211 20.4521 19.1109 19.6266C19.154 19.44 19.1127 19.3405 18.8972 19.3226C18.6535 19.3024 18.4128 19.2487 18.1715 19.2052C17.6752 19.1164 17.2662 18.8392 16.8441 18.5901C16.5699 18.428 16.5477 18.4435 16.5412 18.751C16.5166 19.9121 16.5639 21.0737 16.5094 22.1895V22.1901ZM20.2294 13.537C19.6486 13.537 19.1301 14.0436 19.1301 14.6128C19.1301 15.1808 19.6522 15.694 20.2276 15.691C20.7964 15.6886 21.3215 15.1844 21.3251 14.6372C21.3293 14.0472 20.8215 13.537 20.2294 13.537ZM21.2568 6.47227C21.1676 6.4979 21.1173 6.50982 21.0688 6.52711C20.5012 6.73333 19.9162 6.83406 19.3121 6.83227C18.6056 6.82989 17.8991 6.82393 17.1932 6.83764C16.6471 6.84777 16.1508 7.01108 15.7556 7.40863C15.5916 7.57373 15.4604 7.76207 15.3688 7.99274C15.4245 7.99631 15.4413 8.00227 15.4538 7.9975C16.4909 7.62439 17.5818 7.56717 18.6631 7.47598C19.3678 7.41638 20.042 7.27989 20.6718 6.95624C20.8874 6.84538 21.091 6.71545 21.2562 6.47287L21.2568 6.47227ZM20.779 16.9099C20.8215 16.4671 20.3455 15.9271 19.8091 15.9622C19.2732 15.9974 18.8289 16.3711 18.8325 16.8545C18.8373 17.4439 19.2552 17.8904 19.8049 17.8922C20.3419 17.8939 20.7802 17.4517 20.7784 16.9099H20.779ZM15.0216 43.2305C15.2976 43.004 15.5269 42.8037 15.7694 42.6195C16.313 42.2053 16.9249 41.8966 17.5003 41.5306C18.0146 41.2034 18.4888 40.8297 18.8014 40.2909C18.8505 40.2068 18.9128 40.1234 18.9068 39.9648C18.2745 40.6628 17.468 40.9918 16.6872 41.3661C16.3352 41.5348 15.9754 41.6945 15.6628 41.9341C15.2509 42.2494 15.0264 42.6601 15.0216 43.2305ZM16.0873 10.4084C16.5256 10.4138 16.9405 10.0109 16.9381 9.58234C16.9357 9.17823 16.5352 8.77949 16.1184 8.76638C15.7053 8.75386 15.2838 9.15678 15.2712 9.57698C15.2587 9.99658 15.658 10.4031 16.0879 10.4084H16.0873ZM16.8519 44.2229C16.8531 43.8414 16.5675 43.5452 16.1939 43.5404C15.8412 43.5356 15.5113 43.8474 15.5107 44.1847C15.5101 44.5936 15.8023 44.9023 16.1903 44.9029C16.5591 44.9029 16.8507 44.6037 16.8519 44.2229ZM18.4481 23.7875C19.2001 22.5579 19.548 21.218 19.533 19.7851C19.5318 19.6898 19.6085 19.5211 19.4732 19.508C19.3271 19.4937 19.3355 19.6743 19.3073 19.7869C19.3037 19.8018 19.3031 19.8173 19.3001 19.8322C19.1696 20.436 19.0385 21.0398 18.908 21.6435C18.7541 22.3582 18.6008 23.0728 18.4475 23.7875H18.4481ZM21.8352 10.3661C21.834 10.0317 21.57 9.7689 21.2394 9.77128C20.9215 9.77367 20.6449 10.0592 20.6497 10.3792C20.6551 10.7112 20.9341 10.9627 21.2897 10.9562C21.5897 10.9508 21.8364 10.6838 21.8346 10.3655L21.8352 10.3661ZM17.5237 8.38134C18.5775 8.95353 19.457 8.87247 19.8522 8.15843C19.0582 8.18347 18.2949 8.32353 17.5237 8.38134ZM17.7752 40.5305C17.6003 40.5603 17.4943 40.5775 17.3896 40.5972C17.0734 40.6562 16.7555 40.6944 16.4322 40.7027C16.313 40.7057 16.1532 40.6956 16.1053 40.8553C16.0688 40.9781 16.055 41.108 16.037 41.235C16.0173 41.3715 16.0705 41.4001 16.1933 41.3393C16.3855 41.2445 16.5831 41.1611 16.7747 41.0651C17.0938 40.9042 17.4303 40.7748 17.7758 40.5305H17.7752ZM18.5128 41.7309C17.9488 42.0754 17.4375 42.3883 16.8782 42.7304C17.7662 42.815 18.323 42.4807 18.5128 41.7309ZM21.0784 25.1685C21.4544 25.3383 21.819 25.5261 22.1627 25.752C22.2902 25.836 22.4267 25.9069 22.5585 25.985C22.662 26.0458 22.7381 26.0041 22.7896 25.9147C22.8542 25.8026 22.7578 25.7669 22.6836 25.7299C22.4776 25.6286 22.2717 25.5261 22.0615 25.4325C21.749 25.2936 21.4352 25.1559 21.0784 25.1679V25.1685ZM16.1532 43.2752C16.3963 43.3336 16.6064 43.3926 16.7992 43.5052C16.8639 43.5428 16.9657 43.5326 17.0471 43.5213C17.2351 43.4951 17.1704 43.3395 17.1764 43.2299C17.1812 43.1375 17.2034 42.995 17.0567 43.0046C16.7489 43.0242 16.4358 43.0481 16.1532 43.2758V43.2752ZM17.7955 25.4367C17.5345 25.7281 17.3327 25.982 17.2165 26.292C17.1854 26.3748 17.1489 26.4875 17.2483 26.5387C17.3447 26.5882 17.3878 26.4779 17.4393 26.4177C17.6662 26.1555 17.7692 25.8461 17.7949 25.4367H17.7955Z" fill="#FFF9F9"/>
<path d="M50.9136 33.3531C50.9136 32.986 50.9077 32.6182 50.916 32.2517C50.9202 32.0758 50.858 31.9846 50.6765 32.0126C50.4562 32.0466 50.4341 31.9203 50.4508 31.7546C50.4664 31.6014 50.3826 31.394 50.67 31.4011C50.9771 31.4089 51.2849 31.4029 51.592 31.4029C51.6986 31.4029 51.795 31.4136 51.8034 31.5531C51.8141 31.7331 51.9058 31.6765 52.0021 31.6199C52.3255 31.4291 52.6679 31.3284 53.0517 31.3439C53.3152 31.3546 53.5367 31.4238 53.702 31.6258C53.7894 31.7325 53.8498 31.7283 53.9672 31.6592C54.3468 31.4339 54.7444 31.2772 55.209 31.3385C55.6604 31.3981 55.9394 31.6658 56.0017 32.1217C56.0766 32.6707 56.04 33.2214 56.0424 33.7709C56.0436 33.9736 56.0777 34.1005 56.3172 34.0719C56.4208 34.0594 56.4615 34.1101 56.4705 34.2191C56.5052 34.6411 56.4837 34.6685 56.04 34.7264C55.8879 34.746 55.7383 34.7734 55.5826 34.7436C55.2323 34.6763 55.1186 34.5577 55.1144 34.2078C55.1084 33.7107 55.112 33.2131 55.1114 32.716C55.1108 32.1241 54.8665 31.9489 54.2905 32.1265C53.975 32.2236 53.9588 32.2606 53.9624 32.5848C53.9702 33.2196 53.9624 33.855 53.9672 34.4897C53.9684 34.6441 53.9097 34.7168 53.7511 34.7121C53.59 34.7073 53.4277 34.7055 53.2667 34.7127C53.0847 34.721 53.0254 34.6381 53.0284 34.4641C53.0356 34.0207 53.0308 33.5766 53.0308 33.1332C53.0308 33.0181 53.0386 32.9031 53.029 32.7893C53.0086 32.5515 53.0679 32.2582 52.7937 32.1402C52.5201 32.0222 52.2363 32.105 51.9764 32.2445C51.8537 32.3107 51.8459 32.4209 51.8465 32.5395C51.8477 33.1672 51.8393 33.7942 51.8507 34.4218C51.8549 34.6393 51.7854 34.7198 51.5621 34.715C50.8083 34.7001 50.9226 34.786 50.913 34.0874C50.9101 33.8425 50.913 33.5975 50.9124 33.3531H50.9136Z" fill="#FFF9F9"/>
<path d="M49.7707 24.5957C50.0515 24.4246 50.3234 24.3006 50.6233 24.2571C50.9933 24.2029 51.3508 24.213 51.6142 24.5349C51.7106 24.6529 51.7927 24.598 51.8926 24.5402C52.3237 24.2917 52.7788 24.1528 53.2823 24.2732C53.6056 24.3507 53.7942 24.5581 53.881 24.8734C54.0343 25.4313 53.9481 26.0005 53.9643 26.5643C53.9703 26.7813 53.9439 26.9875 54.266 26.9678C54.3768 26.9613 54.3918 27.0692 54.3828 27.1556C54.3684 27.2969 54.4564 27.4798 54.2511 27.5526C53.9786 27.6491 53.6942 27.6765 53.4098 27.6306C53.1542 27.5895 53.0314 27.4077 53.029 27.1365C53.0231 26.5631 53.0686 25.988 53.0039 25.4158C52.962 25.0457 52.847 24.9586 52.474 24.9747C52.4129 24.9777 52.3507 24.9825 52.2908 24.995C51.8968 25.0796 51.8489 25.1386 51.8489 25.538C51.8483 26.1352 51.8435 26.7324 51.8519 27.3296C51.8549 27.5233 51.7956 27.6163 51.5891 27.5996C51.4514 27.5883 51.3119 27.5883 51.1742 27.5996C50.9664 27.6169 50.9095 27.5222 50.9119 27.329C50.9197 26.7092 50.9161 26.0887 50.9143 25.4688C50.9131 25.1059 50.7455 24.9551 50.3826 24.9777C50.2575 24.9855 50.1425 25.0272 50.027 25.0695C49.8162 25.147 49.7186 25.2805 49.7246 25.5207C49.7402 26.1406 49.7234 26.761 49.7342 27.3809C49.7372 27.5585 49.6767 27.6116 49.5091 27.6002C49.3486 27.5889 49.1858 27.5901 49.0247 27.5996C48.8313 27.611 48.7948 27.5067 48.7954 27.3433C48.7996 26.6388 48.793 25.9343 48.799 25.2304C48.8008 25.0278 48.799 24.8555 48.5188 24.8841C48.4271 24.8937 48.3799 24.8305 48.3775 24.7399C48.3751 24.6481 48.3763 24.5563 48.3745 24.4645C48.3721 24.3418 48.4289 24.2804 48.5547 24.281C48.9008 24.2821 49.2468 24.2827 49.5929 24.281C49.8096 24.2798 49.73 24.4562 49.7719 24.5963L49.7707 24.5957Z" fill="#FFF9F9"/>
<path d="M44.5873 33.3674C44.5873 32.9997 44.5831 32.6325 44.5891 32.2648C44.5915 32.0979 44.5442 32.0103 44.3562 32.0073C44.0784 32.0031 44.082 31.9811 44.0766 31.6431C44.073 31.4196 44.191 31.3958 44.367 31.3999C44.6592 31.4071 44.9514 31.4029 45.2436 31.4017C45.3591 31.4017 45.4627 31.4113 45.4693 31.5627C45.4759 31.7194 45.5597 31.6646 45.6363 31.6193C45.9746 31.4208 46.3327 31.3159 46.7326 31.3433C46.9667 31.3594 47.1829 31.4113 47.32 31.6026C47.4343 31.7629 47.52 31.7236 47.6547 31.639C48.0127 31.4125 48.3995 31.2807 48.8342 31.3338C49.3383 31.3958 49.6467 31.7027 49.6652 32.2111C49.6844 32.7464 49.6802 33.2828 49.6772 33.8186C49.676 33.9855 49.7167 34.0839 49.9077 34.0713C50.0059 34.0648 50.1334 34.0612 50.1328 34.2019C50.1322 34.3568 50.2304 34.5643 50.0113 34.6453C49.6898 34.7639 49.3539 34.8104 49.0198 34.693C48.8809 34.6441 48.8132 34.5279 48.7869 34.3771C48.7061 33.9199 48.7647 33.4604 48.7468 33.0027C48.7396 32.8268 48.7468 32.6504 48.7342 32.4752C48.7132 32.1927 48.5438 32.0472 48.2612 32.0663C48.1546 32.0735 48.0468 32.0931 47.9439 32.1223C47.602 32.2213 47.5595 32.2821 47.5595 32.6379C47.5595 33.2429 47.5547 33.8472 47.5625 34.4522C47.5649 34.6364 47.5056 34.7162 47.3122 34.7127C46.5374 34.6984 46.6799 34.8015 46.6686 34.0922C46.6614 33.6178 46.6584 33.1427 46.6692 32.6683C46.6823 32.0967 46.3901 32.0103 45.8782 32.1402C45.5208 32.2308 45.5208 32.2695 45.5214 32.6367C45.522 33.2339 45.516 33.8311 45.5244 34.4278C45.5274 34.6346 45.4549 34.7168 45.2436 34.7127C44.4598 34.6966 44.6029 34.8056 44.5891 34.0785C44.5843 33.8413 44.5885 33.6041 44.5885 33.3668L44.5873 33.3674Z" fill="#FFF9F9"/>
<path d="M76.1923 31.9131C76.3923 31.9131 76.5923 31.9179 76.7917 31.9113C76.9785 31.9053 77.0084 32.015 76.9982 32.1628C76.9892 32.2999 77.0419 32.4817 76.8036 32.4668C76.6324 32.4561 76.5498 32.5312 76.5186 32.6927C76.4354 33.12 76.2019 33.4699 75.9181 33.787C75.8199 33.8967 75.8319 33.9604 75.9337 34.0475C76.1271 34.2132 76.336 34.3568 76.5611 34.4718C76.7012 34.5434 76.7336 34.6143 76.6515 34.7579C76.43 35.1448 76.4384 35.143 76.0462 34.9081C75.8223 34.774 75.593 34.6465 75.396 34.4754C75.2774 34.3723 75.1769 34.3777 75.0433 34.4474C74.6027 34.6781 74.1339 34.7985 73.6315 34.7985C72.931 34.7985 72.2868 34.3574 72.1604 33.7673C72.0233 33.1254 72.273 32.6331 72.7729 32.2421C72.8154 32.2093 72.8609 32.1801 72.9059 32.1503C73.0827 32.0343 73.121 31.8853 73.0208 31.7033C72.7316 31.1782 72.8556 30.4951 73.292 30.2168C73.7159 29.9462 74.62 29.9808 74.9457 30.479C75.1685 30.8194 75.1571 31.2926 74.8793 31.6085C74.7272 31.782 74.5626 31.9441 74.3524 32.0484C74.2135 32.1169 74.2039 32.1974 74.2991 32.316C74.5865 32.6748 74.8757 33.0312 75.1876 33.3704C75.2661 33.4556 75.3271 33.4622 75.3912 33.3751C75.5547 33.154 75.7229 32.9359 75.8031 32.6647C75.8486 32.5103 75.7828 32.4763 75.6475 32.468C75.5559 32.4626 75.4205 32.524 75.3834 32.4C75.3451 32.2713 75.3517 32.1259 75.393 31.993C75.4181 31.9137 75.5008 31.9155 75.5696 31.9143C75.7774 31.9119 75.9846 31.9137 76.1923 31.9131ZM73.8764 34.1607C74.1099 34.1738 74.359 34.0832 74.5973 33.9491C74.6817 33.9014 74.7116 33.8585 74.6338 33.7757C74.2937 33.4127 73.9848 33.0229 73.6734 32.6361C73.6243 32.5753 73.5645 32.5097 73.4806 32.5711C73.2328 32.7523 72.9753 32.9299 72.94 33.2732C72.8855 33.7983 73.2507 34.1607 73.877 34.1607H73.8764ZM73.5944 31.0548C73.5758 31.2438 73.6992 31.3987 73.7884 31.5656C73.8279 31.6395 73.8866 31.6532 73.9608 31.6073C74.1111 31.5143 74.268 31.4243 74.362 31.2712C74.4638 31.1049 74.4841 30.9225 74.3632 30.7562C74.2404 30.5875 74.0596 30.5434 73.8704 30.6108C73.6794 30.6787 73.5788 30.8265 73.5944 31.0548Z" fill="#FFF9F9"/>
<path d="M45.1783 21.2597C44.9323 21.2597 44.6862 21.2531 44.4407 21.2615C44.2347 21.2686 44.218 21.1405 44.2287 20.9915C44.2389 20.8449 44.1653 20.6339 44.4347 20.6512C44.6514 20.6649 44.6868 20.5582 44.6856 20.3728C44.679 19.3935 44.679 18.4143 44.6856 17.4356C44.6868 17.2466 44.6401 17.1429 44.4299 17.1584C44.3006 17.168 44.2395 17.1 44.2269 16.9665C44.1886 16.5559 44.2168 16.5207 44.6311 16.5207C44.8389 16.5207 45.046 16.5183 45.2538 16.5213C45.3939 16.5231 45.5484 16.4837 45.5831 16.7055C45.6016 16.8223 45.6909 16.7341 45.7447 16.7084C46.0513 16.5618 46.3626 16.445 46.7135 16.4629C47.2003 16.4879 47.5811 16.6894 47.7775 17.1388C48.0684 17.8027 48.0391 18.4864 47.7727 19.148C47.5511 19.6987 46.9841 19.9669 46.3465 19.868C46.1579 19.8388 45.9645 19.8292 45.7855 19.7488C45.6639 19.6939 45.616 19.7518 45.6172 19.8727C45.619 20.0486 45.6232 20.225 45.6154 20.4002C45.6076 20.5737 45.6741 20.6488 45.8549 20.6512C46.1148 20.6547 46.1166 20.681 46.1219 21.0046C46.1255 21.2102 46.0387 21.2728 45.8453 21.2633C45.6232 21.252 45.3999 21.2609 45.1771 21.2603L45.1783 21.2597ZM45.6184 18.1854C45.6184 18.3922 45.6178 18.5984 45.6184 18.8053C45.6184 18.881 45.6166 18.9567 45.6783 19.0192C46.0202 19.3679 46.7752 19.198 46.9326 18.7337C47.0224 18.4697 47.0548 18.1967 47.0302 17.919C46.9913 17.4719 46.8027 17.2145 46.468 17.1453C46.2501 17.1006 46.0621 17.1942 45.8699 17.2717C45.6843 17.3462 45.5951 17.4714 45.6148 17.6806C45.6304 17.8474 45.6178 18.0167 45.6184 18.1854Z" fill="#FFF9F9"/>
<path d="M46.9003 39.1054C46.9003 39.7252 46.9057 40.3451 46.8967 40.965C46.8943 41.1307 46.9303 41.2058 47.1105 41.1933C47.3985 41.173 47.3093 41.3953 47.3248 41.5467C47.3422 41.7142 47.2841 41.8042 47.0949 41.7982C46.7955 41.7887 46.495 41.7946 46.1956 41.7964C46.095 41.7964 46.0154 41.7893 46.0118 41.6546C46.0082 41.5193 45.9256 41.5622 45.8537 41.6033C45.5334 41.7881 45.1903 41.8608 44.8185 41.8489C44.3802 41.8346 44.021 41.6629 43.8396 41.2773C43.4869 40.5281 43.5145 39.7467 43.8821 39.0184C44.1719 38.445 44.7419 38.3824 45.3232 38.4462C45.4747 38.4629 45.6268 38.498 45.7717 38.5457C45.91 38.5916 45.934 38.535 45.9328 38.4193C45.9304 38.2125 45.9256 38.0057 45.934 37.7995C45.9405 37.632 45.8741 37.57 45.7046 37.5688C45.431 37.567 45.434 37.5474 45.425 37.2291C45.419 37.0127 45.5077 36.9495 45.7124 36.9573C46.0196 36.9698 46.3279 36.9692 46.6351 36.9573C46.8357 36.9495 46.9069 37.0246 46.9045 37.2231C46.8967 37.8507 46.9015 38.4783 46.9015 39.106L46.9003 39.1054ZM45.9316 40.1335C45.9316 40.0036 45.9334 39.8736 45.9316 39.7437C45.9232 39.2526 46.0286 39.2639 45.4298 39.1113C45.1203 39.0327 44.8443 39.1536 44.6964 39.4362C44.5299 39.7538 44.5263 40.096 44.5527 40.4411C44.6036 41.1074 45.0466 41.3649 45.6615 41.0973C45.8525 41.0144 45.9591 40.9066 45.9358 40.6831C45.9172 40.5019 45.9322 40.3165 45.9322 40.1335H45.9316Z" fill="#FFF9F9"/>
<path d="M55.1108 25.3657C55.1108 24.7917 55.1054 24.2178 55.1138 23.6438C55.1168 23.4501 55.0551 23.3511 54.8504 23.3738C54.5965 23.4018 54.6139 23.2284 54.6121 23.0621C54.6103 22.897 54.6121 22.7545 54.8468 22.7635C55.1539 22.7754 55.4617 22.773 55.7694 22.7635C55.9556 22.7581 56.0083 22.8415 56.0047 23.0126C55.9975 23.403 56.0017 23.7934 56.0029 24.1838C56.0035 24.4693 56.0041 24.4669 56.2652 24.368C56.613 24.2362 56.9615 24.1468 57.3429 24.2374C57.8297 24.3531 58.1225 24.6564 58.2458 25.1202C58.3751 25.6053 58.3919 26.0953 58.2692 26.5923C58.1231 27.183 57.6656 27.5984 57.0537 27.6431C56.4873 27.6843 55.9365 27.6014 55.3946 27.4351C55.1898 27.3725 55.0994 27.27 55.106 27.0423C55.1228 26.4839 55.1114 25.9248 55.1114 25.3663L55.1108 25.3657ZM56.0023 25.9927V26.3134C56.0023 26.95 56.0628 27.0078 56.7076 26.9923C56.7154 26.9923 56.7232 26.9923 56.7304 26.9923C57.0298 26.997 57.2279 26.8528 57.3207 26.5751C57.4573 26.1662 57.4471 25.7484 57.3405 25.3389C57.2513 24.9956 56.9669 24.8299 56.6166 24.9002C56.4604 24.9312 56.3119 24.9998 56.1616 25.0558C56.0478 25.0981 55.9993 25.1821 56.0023 25.3055C56.0077 25.5344 56.0035 25.7639 56.0029 25.9933L56.0023 25.9927Z" fill="#FFF9F9"/>
<path d="M40.6663 25.4832C40.6663 24.8633 40.6609 24.2434 40.6693 23.6236C40.6717 23.4352 40.6088 23.3506 40.4166 23.3732C40.2652 23.3911 40.1718 23.3417 40.2059 23.1724C40.237 23.0174 40.0957 22.7683 40.416 22.7635C40.716 22.7593 41.016 22.7683 41.3153 22.7599C41.4938 22.7546 41.5626 22.8231 41.5596 23.0019C41.5524 23.4382 41.556 23.8739 41.5584 24.3102C41.5596 24.5677 41.583 24.579 41.8201 24.4646C42.1835 24.2893 42.5529 24.1534 42.9696 24.2369C43.463 24.3358 43.7504 24.6571 43.7612 25.1643C43.772 25.6614 43.772 26.1591 43.7618 26.6562C43.7576 26.8636 43.8097 26.9786 44.0426 26.9578C44.1563 26.9476 44.2713 26.9744 44.2671 27.1223C44.2623 27.2784 44.3473 27.4721 44.1162 27.552C43.8576 27.6414 43.5905 27.673 43.3211 27.6348C43.0092 27.5907 42.8421 27.3666 42.8349 26.9828C42.8271 26.5393 42.8349 26.0953 42.8313 25.6513C42.8301 25.5213 42.8236 25.3908 42.8062 25.2627C42.7846 25.1029 42.6918 24.9855 42.5278 24.9688C42.2577 24.9408 41.9937 24.9682 41.7482 25.1083C41.6129 25.1858 41.553 25.2805 41.5548 25.4391C41.5614 26.0816 41.5506 26.7247 41.562 27.3672C41.565 27.5508 41.5081 27.6015 41.3285 27.6021C40.6657 27.6033 40.6657 27.6086 40.6657 26.953C40.6657 26.4631 40.6657 25.9737 40.6657 25.4838L40.6663 25.4832Z" fill="#FFF9F9"/>
<path d="M36.2386 32.4513C36.2014 31.8648 36.2799 31.3177 36.6062 30.8319C36.9654 30.2979 37.4905 30.0392 38.1186 29.9868C38.5557 29.9504 38.9928 29.9701 39.4238 30.078C39.6226 30.128 39.7304 30.2121 39.7142 30.438C39.6957 30.6972 39.7041 30.9583 39.7118 31.2187C39.7166 31.3833 39.655 31.4649 39.4843 31.453C39.446 31.4506 39.4077 31.453 39.3688 31.453C39.1329 31.4534 39.0145 31.334 39.0137 31.0948C39.0125 30.7437 38.9963 30.7252 38.6467 30.6847C37.9599 30.6048 37.3696 31.0626 37.2648 31.7462C37.1989 32.1736 37.1989 32.598 37.2672 33.0247C37.3624 33.6142 37.8228 33.9897 38.4994 34.0171C38.8479 34.0314 39.1897 33.9676 39.5292 33.908C39.6675 33.8836 39.6987 33.9188 39.7328 34.035C39.8699 34.51 39.8705 34.5297 39.3909 34.6507C38.8048 34.7991 38.212 34.8509 37.6181 34.6852C36.7277 34.4367 36.3368 33.8419 36.2416 32.9645C36.2224 32.7905 36.2386 32.6129 36.2386 32.4525V32.4513Z" fill="#FFF9F9"/>
<path d="M42.1105 19.0854C42.259 18.6354 42.4069 18.189 42.5535 17.7413C42.5847 17.6466 42.6128 17.5512 42.6404 17.4558C42.6829 17.3056 42.7745 17.1411 42.4817 17.1423C42.3602 17.1423 42.3829 17.0082 42.3799 16.92C42.3707 16.653 42.4973 16.5193 42.7595 16.5189C43.0673 16.5189 43.375 16.5266 43.6822 16.5159C43.878 16.5088 43.9654 16.5737 43.954 16.7782C43.9432 16.9671 43.9947 17.1745 43.6929 17.1793C43.5936 17.1811 43.581 17.2973 43.5534 17.3724C43.3169 18.0274 43.0864 18.6843 42.8499 19.3399C42.6865 19.7929 42.5236 20.2464 42.3482 20.6952C42.1979 21.0791 41.9075 21.2668 41.489 21.2615C41.2196 21.2579 40.9525 21.2615 40.6897 21.1822C40.5759 21.1476 40.5364 21.094 40.5556 20.9867C40.5789 20.8592 40.6053 20.7322 40.6298 20.6052C40.6585 20.4533 40.7789 20.4956 40.8687 20.5045C41.0351 20.5218 41.1974 20.576 41.3674 20.5117C41.5237 20.4533 41.8321 19.9735 41.7991 19.8233C41.7812 19.741 41.7105 19.7392 41.653 19.7464C41.4447 19.7732 41.377 19.6528 41.3225 19.4799C41.1052 18.7868 40.8723 18.0978 40.6543 17.4046C40.6082 17.2574 40.5574 17.1513 40.3783 17.165C40.2646 17.1739 40.2101 17.1084 40.2101 16.9963C40.2101 16.8968 40.2101 16.7972 40.2095 16.6977C40.2083 16.5719 40.2753 16.5183 40.3963 16.5201C40.4424 16.5207 40.4885 16.5189 40.5346 16.5189C41.2974 16.5147 41.2884 16.5171 41.489 17.2538C41.6417 17.8141 41.8195 18.3678 41.9883 18.9239C42.0051 18.9799 42.0159 19.0454 42.1105 19.0848V19.0854Z" fill="#FFF9F9"/>
<path d="M36.2368 25.2853C36.2087 24.8639 36.2548 24.427 36.4458 24.0122C36.7344 23.3845 37.2259 23.0347 37.9067 22.9184C38.4396 22.8278 38.9593 22.8785 39.4802 22.9941C39.6388 23.0293 39.7185 23.0996 39.7125 23.2737C39.7023 23.5717 39.7059 23.8709 39.7107 24.1695C39.7131 24.3143 39.6526 24.3847 39.5059 24.3775C39.4832 24.3763 39.4598 24.3775 39.4365 24.3781C39.1559 24.3833 39.015 24.248 39.0138 23.9722C39.0126 23.6253 38.9958 23.6063 38.6503 23.6057C38.4516 23.6057 38.2492 23.5818 38.0552 23.6438C37.6702 23.7672 37.4439 24.0461 37.3331 24.4186C37.1559 25.0129 37.1469 25.6131 37.3589 26.1984C37.5307 26.6722 37.96 26.8987 38.4701 26.8743C38.8365 26.8564 39.206 26.8999 39.5676 26.801C39.6335 26.7831 39.6879 26.8004 39.7107 26.8767C39.7538 27.0239 39.7993 27.1693 39.8095 27.3243C39.8149 27.4065 39.7855 27.4554 39.7047 27.4763C39.0587 27.6431 38.4037 27.7218 37.7426 27.599C36.7757 27.4196 36.3129 26.7247 36.238 25.7949C36.2254 25.6351 36.2362 25.4736 36.2362 25.2847L36.2368 25.2853Z" fill="#FFF9F9"/>
<path d="M36.238 17.5918C36.2254 17.1817 36.2308 16.8324 36.3434 16.4903C36.6242 15.6356 37.2912 15.1403 38.2492 15.0962C38.6569 15.0777 39.0605 15.1105 39.4598 15.2047C39.6347 15.2458 39.7233 15.3268 39.7137 15.5194C39.7005 15.7864 39.7047 16.0552 39.7125 16.3228C39.7179 16.4945 39.661 16.5702 39.4766 16.5737C39.0233 16.5815 39.015 16.5886 39.0186 16.1368C39.0204 15.9354 38.9419 15.8543 38.7467 15.8198C38.0193 15.6898 37.3972 16.1059 37.2732 16.8312C37.2056 17.224 37.1876 17.6192 37.2529 18.0179C37.3948 18.8827 37.8516 19.0741 38.5354 19.1319C38.8521 19.1587 39.1617 19.0824 39.47 19.0312C39.6203 19.0061 39.6885 19.0198 39.7358 19.1778C39.8724 19.6355 39.87 19.6618 39.4101 19.7661C38.8437 19.8948 38.2695 19.9282 37.6959 19.8191C36.8751 19.6635 36.2805 18.9406 36.2392 18.0626C36.2308 17.8868 36.238 17.711 36.238 17.5923V17.5918Z" fill="#FFF9F9"/>
<path d="M63.0692 41.0991C63.1542 40.8273 63.2303 40.5734 63.3129 40.3213C63.4177 40.0018 63.5296 39.6847 63.635 39.3658C63.6757 39.2425 63.7099 39.1358 63.5021 39.1197C63.2249 39.0982 63.3608 38.8664 63.338 38.7227C63.3153 38.5791 63.3973 38.5183 63.5434 38.5201C63.9428 38.5243 64.3427 38.5243 64.7421 38.5201C64.8708 38.5189 64.9235 38.566 64.9139 38.6965C64.9073 38.7794 64.9169 38.8646 64.9271 38.948C64.9415 39.0631 64.8989 39.1316 64.7798 39.1245C64.611 39.1143 64.5595 39.2222 64.5128 39.3539C64.1368 40.4125 63.7458 41.4657 63.3835 42.5284C63.1848 43.1113 62.7824 43.3312 62.1238 43.2436C61.9717 43.2233 61.8196 43.2037 61.6676 43.1852C61.5562 43.1715 61.5173 43.116 61.5209 42.9992C61.5346 42.585 61.6209 42.495 62.034 42.4956C62.4615 42.4956 62.6992 42.2834 62.7567 41.856C62.7734 41.7327 62.7034 41.7005 62.6094 41.71C62.3914 41.7327 62.325 41.6105 62.2687 41.4263C62.0621 40.7546 61.8358 40.0894 61.6233 39.4195C61.5748 39.2669 61.5131 39.1549 61.3269 39.1626C61.2251 39.1668 61.176 39.0982 61.1724 39.0005C61.1694 38.9087 61.1712 38.8169 61.1682 38.7251C61.1634 38.5809 61.2281 38.5159 61.376 38.5207C61.5682 38.526 61.7616 38.535 61.952 38.5177C62.1639 38.4992 62.2489 38.5982 62.304 38.7865C62.5124 39.4976 62.7315 40.2056 62.9495 40.9137C62.9668 40.9692 62.962 41.0389 63.0686 41.0991H63.0692Z" fill="#FFF9F9"/>
<path d="M54.9815 17.8695C54.9815 18.2295 54.9857 18.5889 54.9797 18.9489C54.9773 19.1075 55.024 19.1992 55.2006 19.1903C55.3126 19.1849 55.4072 19.2201 55.3964 19.3548C55.3844 19.5032 55.479 19.6999 55.2623 19.7714C54.9599 19.8716 54.6468 19.89 54.333 19.8197C54.2372 19.7982 54.163 19.7309 54.1324 19.6433C54.0708 19.4651 53.9888 19.4967 53.86 19.5789C53.4696 19.828 53.0607 19.989 52.5793 19.8507C52.1638 19.7315 51.9309 19.4603 51.9273 19.0228C51.9225 18.4792 51.9219 17.9357 51.9279 17.3927C51.9297 17.2222 51.8902 17.1292 51.695 17.1584C51.5291 17.1835 51.4519 17.1024 51.4657 16.9337C51.4723 16.8503 51.4687 16.7657 51.4693 16.681C51.4699 16.5773 51.5244 16.5249 51.6261 16.5243C51.98 16.5225 52.3332 16.5225 52.6871 16.5231C52.8547 16.5231 52.8589 16.6411 52.8589 16.7621C52.8589 17.3593 52.8823 17.9571 52.8529 18.5525C52.8218 19.1855 53.09 19.2553 53.6768 19.0633C53.9085 18.9876 54.0516 18.8422 54.0241 18.5484C53.9894 18.1765 54.0121 17.7992 54.0169 17.4243C54.0187 17.2651 53.9864 17.1674 53.7942 17.1555C53.4882 17.1364 53.6235 16.8884 53.6014 16.7299C53.5786 16.5696 53.6744 16.5171 53.8247 16.5195C54.1324 16.5243 54.4402 16.5272 54.7474 16.5183C54.933 16.5129 54.9874 16.5964 54.9845 16.768C54.9773 17.1352 54.9821 17.5029 54.9827 17.8701L54.9815 17.8695Z" fill="#FFF9F9"/>
<path d="M51.11 39.8522C51.11 40.2044 51.1142 40.5567 51.1082 40.9083C51.1052 41.0669 51.1489 41.1575 51.328 41.1467C51.4615 41.139 51.6046 41.1384 51.6052 41.3315C51.6058 41.5091 51.6597 41.7022 51.3962 41.7714C51.146 41.8375 50.8963 41.853 50.6424 41.8381C50.4873 41.8292 50.3556 41.7654 50.2963 41.6122C50.2359 41.4561 50.1658 41.471 50.0443 41.5574C49.6868 41.8125 49.2881 41.924 48.8468 41.8518C48.3576 41.7714 48.1068 41.4906 48.0984 40.9876C48.0894 40.4595 48.0906 39.9314 48.0984 39.4034C48.1008 39.2192 48.0643 39.103 47.8475 39.125C47.6679 39.1435 47.6326 39.0374 47.6308 38.883C47.6272 38.5206 47.6218 38.5206 47.9834 38.5206C48.2373 38.5206 48.4912 38.5278 48.7444 38.5189C48.9228 38.5129 48.9911 38.5808 48.9887 38.7596C48.9815 39.28 48.9863 39.8003 48.9863 40.3212C48.9863 40.3904 48.9809 40.4595 48.9875 40.5281C49.0109 40.7605 48.9845 41.0246 49.2689 41.1271C49.5144 41.2153 50.0341 41.0329 50.1724 40.8314C50.2143 40.77 50.2161 40.7021 50.2161 40.6336C50.2167 40.205 50.2131 39.7765 50.2185 39.3479C50.2203 39.1947 50.1664 39.1232 50.0054 39.1244C49.7162 39.1268 49.8239 38.9027 49.8054 38.7555C49.785 38.5951 49.8521 38.5147 50.0263 38.5194C50.3107 38.5272 50.5951 38.5266 50.8795 38.5194C51.0484 38.5153 51.113 38.5832 51.11 38.7501C51.1034 39.1173 51.1082 39.485 51.1082 39.8522H51.1088H51.11Z" fill="#FFF9F9"/>
<path d="M39.6041 40.4548C39.6041 40.0876 39.5987 39.7198 39.6059 39.3527C39.6095 39.1763 39.5616 39.0696 39.3616 39.0863C39.1167 39.1071 39.1485 38.9325 39.1425 38.7793C39.1359 38.6196 39.1682 38.5129 39.3658 38.5195C39.673 38.529 39.9807 38.5212 40.2885 38.523C40.3723 38.523 40.4741 38.5165 40.4867 38.6309C40.507 38.8157 40.5968 38.7698 40.7052 38.7126C40.9022 38.6089 41.1016 38.5123 41.3231 38.4658C42.1787 38.2858 42.6918 38.684 42.702 39.547C42.7074 39.9982 42.7104 40.45 42.6996 40.9012C42.6954 41.0824 42.7337 41.1771 42.9391 41.1491C43.0624 41.1324 43.1888 41.1599 43.1672 41.3232C43.1462 41.4835 43.2846 41.7034 43.0055 41.7815C42.7643 41.8489 42.5194 41.856 42.2745 41.8375C42.044 41.8203 41.8943 41.6879 41.8224 41.4704C41.7841 41.353 41.7775 41.2308 41.7781 41.1074C41.7787 40.6252 41.7847 40.143 41.7739 39.6614C41.7656 39.2991 41.6225 39.1703 41.262 39.1542C41.0788 39.1459 40.9154 39.2144 40.7531 39.2818C40.6052 39.3432 40.5358 39.4487 40.5382 39.6209C40.5471 40.2485 40.5322 40.8761 40.5459 41.5032C40.5513 41.7404 40.4657 41.8036 40.2388 41.8006C39.6059 41.7928 39.6059 41.8012 39.6059 41.1664C39.6059 40.9292 39.6059 40.692 39.6059 40.4548H39.6041Z" fill="#FFF9F9"/>
<path d="M42.0476 31.323C43.2798 31.3325 43.7414 32.198 43.678 33.241C43.6187 34.2215 42.9319 34.8032 41.8644 34.7603C40.8609 34.7198 40.2903 34.0361 40.3466 32.9424C40.3987 31.9262 41.0806 31.2765 42.0476 31.3224V31.323ZM41.3273 33.12C41.3273 33.213 41.3147 33.3513 41.3297 33.4872C41.3662 33.8132 41.6051 34.0725 41.8847 34.1071C42.2422 34.1512 42.5236 33.9968 42.6338 33.6791C42.781 33.2535 42.7816 32.8226 42.62 32.4006C42.4458 31.9465 41.9266 31.8469 41.5734 32.1849C41.3105 32.4358 41.3082 32.7517 41.3273 33.1206V33.12Z" fill="#FFF9F9"/>
<path d="M67.0167 25.9713C66.9843 25.4218 67.1244 24.9366 67.5633 24.5742C68.2279 24.0259 69.4685 24.1397 69.9954 24.7781C70.4181 25.2901 70.4624 26.6979 69.8499 27.254C68.9536 28.0664 67.3813 27.6652 67.0538 26.5185C67.0017 26.3373 67.025 26.1537 67.0161 25.9713H67.0167ZM69.3733 25.9582C69.3799 25.7478 69.3721 25.5577 69.3104 25.3729C69.2074 25.0648 68.9817 24.8871 68.6895 24.8871C68.371 24.8871 68.1369 25.0505 68.0399 25.3681C67.9195 25.7621 67.9082 26.162 68.0369 26.5584C68.1291 26.8433 68.3662 27.0167 68.6554 27.0209C68.929 27.0251 69.1691 26.8564 69.2745 26.5894C69.3577 26.3796 69.3924 26.1632 69.3739 25.957L69.3733 25.9582Z" fill="#FFF9F9"/>
<path d="M47.5589 25.9331C47.5589 26.193 47.5679 26.4535 47.5559 26.7127C47.5475 26.8987 47.602 26.9887 47.802 26.9523C48.0241 26.9124 48.1289 27.0143 48.1463 27.2343C48.16 27.4047 48.1056 27.5096 47.9295 27.5537C47.6823 27.6157 47.4356 27.6652 47.1793 27.6425C46.9937 27.6259 46.8267 27.5758 46.7752 27.3678C46.7428 27.2361 46.6782 27.2808 46.6117 27.3302C46.2842 27.5746 45.919 27.6694 45.5094 27.6503C45.0161 27.627 44.7341 27.391 44.6155 26.86C44.5371 26.5083 44.7706 26.072 45.1328 25.898C45.4148 25.7621 45.7202 25.7287 46.0267 25.7066C46.1261 25.6995 46.2279 25.715 46.3261 25.7007C46.4554 25.681 46.6339 25.7609 46.683 25.5493C46.7422 25.2954 46.6554 25.0772 46.462 24.9765C46.2531 24.8674 46.0303 24.8758 45.8088 24.9014C45.6489 24.9199 45.4861 24.9431 45.3352 24.9944C45.1508 25.0576 45.0514 25.0331 45.0029 24.8257C44.9233 24.4866 44.9125 24.4818 45.1837 24.4049C45.7052 24.2571 46.2333 24.1886 46.7758 24.2792C47.2542 24.359 47.5439 24.6713 47.5565 25.1535C47.5631 25.4134 47.5577 25.6733 47.5577 25.9337H47.5595L47.5589 25.9331ZM46.7093 26.435C46.677 26.3325 46.7812 26.1096 46.5955 26.1107C46.3141 26.1125 46.01 26.0899 45.7537 26.2669C45.5226 26.4266 45.5376 26.8969 45.7771 27.0125C46.1836 27.2086 46.7093 26.8933 46.7093 26.435Z" fill="#FFF9F9"/>
<path d="M68.9117 33.2911C68.6351 33.2911 68.3578 33.2971 68.0812 33.2893C67.883 33.2834 67.8423 33.3847 67.8729 33.5504C67.9321 33.874 68.2076 34.0862 68.5973 34.1089C68.9177 34.1274 69.2236 34.0523 69.526 33.9623C69.6433 33.9271 69.7547 33.9038 69.7757 34.0523C69.7972 34.2042 70.0325 34.4015 69.7757 34.51C69.0871 34.8003 68.3776 34.9308 67.6621 34.5863C67.2987 34.4111 67.1035 34.1059 67.0071 33.7191C66.8933 33.2607 66.8999 32.8083 67.0334 32.3601C67.2442 31.6497 67.9112 31.2468 68.6788 31.3201C69.1781 31.3677 69.5841 31.534 69.8259 31.9989C70.0193 32.3709 69.9942 32.7696 69.9762 33.1666C69.9708 33.2929 69.8571 33.2887 69.7649 33.2893C69.4805 33.2917 69.1961 33.2899 68.9111 33.2899V33.2911H68.9117ZM68.4854 32.6826C68.6309 32.6826 68.777 32.6778 68.9219 32.6838C69.1009 32.6915 69.15 32.6093 69.1206 32.4436C69.0632 32.1193 68.8057 31.9322 68.45 31.9662C68.1872 31.9912 67.8711 32.3345 67.8818 32.5777C67.8866 32.6784 67.9561 32.6808 68.0261 32.6814C68.1794 32.6838 68.3327 32.682 68.486 32.6826H68.4854Z" fill="#FFF9F9"/>
<path d="M58.8978 33.2905C58.6283 33.2905 58.3595 33.2881 58.0901 33.2911C57.85 33.2941 57.8069 33.3596 57.8847 33.5897C58.002 33.9342 58.2086 34.0838 58.5882 34.1088C58.9014 34.1291 59.1989 34.0564 59.4935 33.9664C59.6288 33.9253 59.7486 33.8925 59.7851 34.0892C59.8162 34.2561 60.0162 34.4438 59.7001 34.5511C59.0415 34.7746 58.3834 34.9135 57.7081 34.6101C57.4027 34.473 57.177 34.2489 57.0752 33.9437C56.8387 33.2327 56.8471 32.5317 57.2758 31.8791C57.7254 31.1943 59.1768 31.0888 59.6977 31.7974C59.9276 32.1104 59.9719 32.471 59.9719 32.8435C59.9719 33.1411 59.8216 33.2899 59.521 33.2899C59.3133 33.2899 59.1055 33.2899 58.8978 33.2899V33.2905ZM58.4882 32.6831C58.5954 32.6831 58.7026 32.6831 58.8097 32.6831C59.1468 32.6825 59.2025 32.5985 59.0612 32.2892C59.0307 32.2218 58.981 32.1586 58.9277 32.1062C58.7666 31.9476 58.5056 31.9137 58.287 32.015C58.0853 32.1086 57.8691 32.4161 57.8775 32.5908C57.8817 32.6808 57.9428 32.6819 58.0056 32.6825C58.1667 32.6843 58.3272 32.6825 58.4882 32.6837V32.6831Z" fill="#FFF9F9"/>
<path d="M60.9126 26.1323C60.636 26.1323 60.3593 26.137 60.0827 26.1305C59.9211 26.1269 59.866 26.1996 59.8684 26.3522C59.8738 26.6949 60.0612 26.9178 60.4006 26.9649C60.7713 27.0162 61.1377 26.9893 61.4898 26.8654C61.649 26.8093 61.7227 26.8368 61.7807 26.9977C61.9143 27.3672 61.8945 27.397 61.5095 27.5162C61.0832 27.6485 60.6491 27.667 60.2109 27.6426C59.575 27.6068 59.12 27.189 58.9792 26.5638C58.8439 25.9636 58.8852 25.3938 59.2092 24.8627C59.6858 24.0813 61.1024 23.9693 61.6622 24.6642C61.9771 25.0552 61.9813 25.5261 61.9855 25.9928C61.9867 26.1162 61.8861 26.1305 61.7873 26.1305C61.4951 26.1305 61.2036 26.1305 60.9114 26.1305V26.1323H60.9126ZM60.4815 25.6083V25.6101C60.6042 25.6101 60.7264 25.6113 60.8491 25.6101C61.1054 25.6071 61.1718 25.51 61.0868 25.2656C60.9802 24.9587 60.7383 24.8264 60.3755 24.877C60.154 24.908 59.9055 25.1834 59.8809 25.4206C59.8678 25.5452 59.9145 25.6101 60.0444 25.6089C60.1899 25.6077 60.3354 25.6089 60.4809 25.6089L60.4815 25.6083Z" fill="#FFF9F9"/>
<path d="M71.7611 27.5978C71.5228 27.5978 71.2839 27.5907 71.0462 27.6002C70.863 27.6074 70.7929 27.5281 70.8079 27.3541C70.8121 27.3088 70.8115 27.2623 70.8079 27.2164C70.7929 27.0352 70.8642 26.9309 71.057 26.9559C71.2384 26.9792 71.2785 26.8975 71.2761 26.7336C71.2683 26.2055 71.2683 25.6774 71.2761 25.1494C71.2785 24.9688 71.2264 24.8722 71.0282 24.8889C70.9145 24.8984 70.8019 24.8817 70.8073 24.7274C70.8127 24.5855 70.7396 24.3996 70.9749 24.365C71.2097 24.3304 71.2935 24.2035 71.2785 23.9692C71.2677 23.8035 71.2941 23.6325 71.3252 23.468C71.409 23.0293 71.7084 22.7927 72.258 22.7283C72.5891 22.6896 72.9178 22.7313 73.2454 22.7778C73.3897 22.798 73.4501 22.8713 73.3855 23.0162C73.3795 23.0299 73.3753 23.0454 73.3717 23.0603C73.3154 23.3078 73.1587 23.4151 72.9017 23.3821C72.4095 23.319 72.1287 23.5878 72.1551 24.0866C72.1622 24.2196 72.2083 24.2839 72.3472 24.2803C72.5317 24.2756 72.7167 24.2839 72.9011 24.2792C73.0532 24.275 73.1352 24.3298 73.1256 24.4913C73.1214 24.5676 73.1208 24.6451 73.1274 24.7208C73.14 24.8561 73.0723 24.8943 72.949 24.8919C72.7568 24.8877 72.5646 24.8937 72.3724 24.8919C72.2275 24.8901 72.1593 24.9592 72.1587 25.0999C72.1581 25.6661 72.1587 26.2329 72.1563 26.7992C72.1557 26.9345 72.2233 26.9607 72.3461 26.9595C72.67 26.9559 72.8268 27.214 72.6927 27.5114C72.652 27.602 72.573 27.5931 72.4981 27.5984C72.4826 27.5996 72.4676 27.599 72.452 27.599C72.2215 27.599 71.9904 27.599 71.7599 27.599L71.7611 27.5978Z" fill="#FFF9F9"/>
<path d="M53.2864 41.8375C52.8991 41.8733 52.5243 41.8059 52.1542 41.6861C52.0327 41.6468 51.9728 41.5836 51.9746 41.4579C51.9764 41.282 51.9782 41.1056 51.9734 40.9298C51.9698 40.7933 52.0315 40.7325 52.1662 40.7367C52.2428 40.739 52.3201 40.739 52.3967 40.7367C52.5482 40.7313 52.6392 40.7939 52.6177 40.953C52.5913 41.1473 52.7272 41.1932 52.8637 41.22C53.0829 41.263 53.3074 41.2636 53.5283 41.232C53.7133 41.2057 53.8822 41.1241 53.9025 40.9173C53.9223 40.7081 53.7618 40.6002 53.5918 40.5382C53.3619 40.4541 53.1218 40.3969 52.8883 40.3224C52.7643 40.2831 52.6422 40.2348 52.5225 40.1841C52.1554 40.028 51.9854 39.7634 52.0129 39.3533C52.0393 38.9688 52.2285 38.7149 52.571 38.5844C53.2026 38.3442 53.8379 38.4032 54.466 38.6166C54.6013 38.6625 54.6599 38.7567 54.6528 38.8973C54.6492 38.9659 54.6528 39.035 54.6528 39.1041C54.6528 39.5124 54.6528 39.5094 54.2462 39.5029C54.1085 39.5005 54.0079 39.4814 53.9906 39.3145C53.9738 39.1506 53.8642 39.0803 53.702 39.0839C53.5714 39.0863 53.4397 39.0749 53.3104 39.0881C53.1487 39.1047 53.0014 39.1775 52.9667 39.3461C52.929 39.5285 53.0625 39.634 53.2152 39.6841C53.4918 39.7753 53.778 39.8379 54.0546 39.929C54.4516 40.0596 54.7701 40.2688 54.8587 40.7241C54.9384 41.1348 54.7587 41.5163 54.3726 41.6826C54.0259 41.8322 53.6619 41.8715 53.2864 41.8399V41.8375Z" fill="#FFF9F9"/>
<path d="M55.8042 19.1956C55.8042 19.1801 55.8042 19.1652 55.8042 19.1497C55.8042 18.7343 55.8036 18.7385 56.2245 18.7653C56.3592 18.7737 56.4245 18.8255 56.4179 18.9596C56.4095 19.1259 56.5155 19.1956 56.655 19.2177C56.9143 19.2588 57.1777 19.2517 57.4346 19.2105C57.5795 19.1873 57.7112 19.1062 57.7345 18.9334C57.7567 18.7689 57.6459 18.6801 57.5286 18.6038C57.3579 18.4929 57.1555 18.4673 56.9645 18.4101C56.6562 18.3177 56.3383 18.2444 56.0874 18.025C55.6827 17.6722 55.7527 16.9605 56.2149 16.684C56.5077 16.5088 56.8322 16.4491 57.1639 16.4426C57.5328 16.4348 57.8986 16.4772 58.2488 16.6113C58.3812 16.6619 58.4506 16.7412 58.4416 16.8848C58.4374 16.9534 58.4416 17.0225 58.4416 17.0911C58.4422 17.5119 58.4428 17.5083 58.0237 17.4976C57.8968 17.4946 57.8124 17.4719 57.8273 17.3205C57.8327 17.2669 57.8189 17.2144 57.7788 17.1721C57.6172 17.0023 56.9669 17.0541 56.8388 17.2484C56.7382 17.4004 56.7771 17.5375 56.961 17.6478C57.2094 17.7968 57.5058 17.7986 57.771 17.8987C58.0519 18.0042 58.3554 18.0846 58.5249 18.3529C58.826 18.8309 58.8099 19.6117 57.8662 19.8066C57.3292 19.9174 56.7819 19.9079 56.2473 19.7702C55.8018 19.6558 55.8042 19.6462 55.8042 19.195V19.1956Z" fill="#FFF9F9"/>
<path d="M37.0757 39.4648C37.0757 38.9981 37.0709 38.5314 37.0781 38.0647C37.0811 37.8883 37.0374 37.7828 36.8356 37.7989C36.6943 37.8102 36.6464 37.7261 36.6506 37.598C36.6524 37.5366 36.656 37.4752 36.6488 37.4144C36.626 37.2124 36.7177 37.1444 36.9152 37.1486C37.3685 37.1581 37.8223 37.1599 38.2756 37.1486C38.5139 37.1426 38.56 37.2612 38.551 37.4615C38.5426 37.6409 38.5755 37.837 38.2911 37.8012C38.0942 37.7762 38.0433 37.8734 38.0445 38.0551C38.0504 39.0118 38.0504 39.9678 38.0445 40.9244C38.0433 41.0955 38.0762 41.1867 38.2744 41.1491C38.4869 41.1092 38.557 41.2135 38.5522 41.4209C38.5438 41.7767 38.5438 41.7934 38.281 41.7952C37.8277 41.7976 37.3739 41.7869 36.9206 41.8C36.7039 41.8059 36.6398 41.7225 36.6452 41.5181C36.6506 41.3071 36.6326 41.1157 36.9422 41.1354C37.0799 41.1444 37.0733 41.0103 37.0733 40.9113C37.0745 40.4291 37.0739 39.9475 37.0739 39.4653L37.0757 39.4648Z" fill="#FFF9F9"/>
<path d="M66.294 31.962C66.294 32.0079 66.294 32.0538 66.294 32.0997C66.294 32.4788 66.2874 32.4782 65.9078 32.4722C65.7396 32.4698 65.6629 32.4066 65.6809 32.2409C65.7007 32.0532 65.6043 32.0091 65.4342 32.0079C64.9313 32.0037 64.663 32.2159 64.5666 32.7046C64.5247 32.9174 64.5223 33.1308 64.5493 33.3436C64.6169 33.8818 65.0133 34.1798 65.5558 34.097C65.7521 34.0672 65.9473 34.0231 66.1401 33.9736C66.2449 33.9468 66.3024 33.9736 66.3335 34.0719C66.3611 34.1596 66.391 34.246 66.4161 34.3342C66.4479 34.4456 66.4161 34.5362 66.3018 34.5744C65.6528 34.7901 64.9965 34.867 64.3481 34.5893C63.9889 34.4355 63.7751 34.1441 63.6883 33.7584C63.5626 33.2005 63.559 32.6486 63.8009 32.1217C64.0248 31.633 64.4463 31.3982 64.9636 31.3356C65.3462 31.2891 65.727 31.3386 66.103 31.4226C66.2383 31.453 66.2994 31.5275 66.2946 31.664C66.291 31.7635 66.294 31.8625 66.294 31.962Z" fill="#FFF9F9"/>
<path d="M62.874 25.9028C62.874 25.6274 62.8639 25.352 62.8782 25.0773C62.886 24.9336 62.8441 24.877 62.7034 24.8901C62.3915 24.9187 62.4693 24.6911 62.4549 24.52C62.4382 24.3221 62.5393 24.2703 62.719 24.2756C62.995 24.2846 63.2722 24.2881 63.5482 24.2744C63.7638 24.2637 63.8673 24.3328 63.844 24.5587C63.8386 24.613 63.8111 24.697 63.8853 24.7185C63.9212 24.7292 63.9787 24.6797 64.0212 24.6499C64.3068 24.452 64.6056 24.2852 64.9552 24.2238C65.1941 24.182 65.3271 24.2965 65.3013 24.5373C65.2905 24.6356 65.2672 24.7328 65.2408 24.8287C65.1343 25.2126 65.1109 25.2269 64.7139 25.215C64.4763 25.2084 64.238 25.212 63.9997 25.2078C63.8655 25.2054 63.8039 25.2632 63.8051 25.3997C63.8081 25.8587 63.8081 26.317 63.8051 26.776C63.8039 26.9124 63.8536 26.9697 63.9967 26.9577C64.0984 26.9494 64.238 26.9172 64.2763 27.0495C64.323 27.2093 64.332 27.3827 64.2631 27.543C64.2362 27.6056 64.1577 27.5961 64.0967 27.5961C63.6207 27.5973 63.1441 27.5943 62.6681 27.5979C62.525 27.5991 62.4627 27.5442 62.4549 27.397C62.437 27.0555 62.4358 27.0454 62.7776 26.9542C62.8872 26.925 62.8698 26.8457 62.8704 26.7736C62.8728 26.4833 62.8716 26.1924 62.8716 25.9022C62.8728 25.9022 62.874 25.9022 62.8752 25.9022L62.874 25.9028Z" fill="#FFF9F9"/>
<path d="M55.7101 40.2104C55.7101 39.9195 55.7053 39.6293 55.7113 39.3384C55.7149 39.1697 55.661 39.0756 55.4748 39.0857C55.3401 39.0934 55.2036 39.0952 55.2084 38.8967C55.212 38.7364 55.1784 38.5689 55.4227 38.5451C55.6616 38.5218 55.8131 38.3883 55.846 38.1386C55.8538 38.0784 55.8778 38.0206 55.8951 37.9622C55.9831 37.6689 56.1544 37.5652 56.4621 37.6064C56.5741 37.6213 56.5986 37.6886 56.5998 37.781C56.6016 37.9413 56.6088 38.1028 56.5998 38.2626C56.5903 38.4468 56.6603 38.5332 56.8531 38.5218C57.0142 38.5129 57.1764 38.5284 57.3369 38.5183C57.5081 38.5075 57.6063 38.5528 57.5728 38.746C57.5662 38.7829 57.5662 38.8234 57.5728 38.8604C57.6057 39.0529 57.5087 39.0988 57.3369 39.0887C57.1686 39.0785 56.9986 39.0905 56.8298 39.0863C56.6801 39.0827 56.5998 39.1375 56.601 39.2985C56.6052 39.7497 56.5915 40.2015 56.607 40.6521C56.6214 41.0877 56.8154 41.2093 57.3201 41.1336C57.6315 41.0866 57.7458 41.1926 57.7518 41.5205C57.7542 41.6391 57.7069 41.7094 57.5949 41.7404C57.1746 41.8554 56.7483 41.8983 56.3208 41.7934C55.9185 41.6945 55.7167 41.4239 55.7095 41.0138C55.7095 40.9983 55.7095 40.9834 55.7095 40.9679C55.7095 40.7158 55.7095 40.4631 55.7095 40.211L55.7101 40.2104Z" fill="#FFF9F9"/>
<path d="M59.542 40.298C59.542 40.5274 59.551 40.7575 59.539 40.9864C59.5306 41.1396 59.5887 41.1932 59.736 41.1914C59.83 41.1902 59.9605 41.1539 59.9953 41.279C60.0366 41.4251 60.0408 41.5842 59.9863 41.7308C59.9581 41.8059 59.8701 41.794 59.8025 41.7946C59.3259 41.7958 58.8493 41.7916 58.3727 41.7976C58.208 41.7994 58.1428 41.7219 58.1649 41.5741C58.1859 41.4298 58.0625 41.198 58.3511 41.195C58.5409 41.1932 58.5834 41.105 58.5816 40.9387C58.5756 40.4029 58.575 39.8671 58.5816 39.3312C58.584 39.1578 58.5283 39.0797 58.3451 39.0827C58.1062 39.0868 58.1757 38.8961 58.1655 38.7638C58.1553 38.6291 58.1799 38.5188 58.3577 38.5212C58.6882 38.5254 59.0187 38.5266 59.3492 38.52C59.5091 38.5165 59.5175 38.6065 59.5139 38.7269C59.5121 38.7984 59.4803 38.8967 59.5684 38.9319C59.636 38.9587 59.6935 38.8872 59.748 38.8484C60.0138 38.6607 60.2964 38.5087 60.6197 38.4455C60.9053 38.3895 60.988 38.4563 60.985 38.7423C60.9838 38.8562 60.9802 38.9742 60.9508 39.0833C60.8586 39.4254 60.7497 39.4808 60.3994 39.4391C60.1719 39.4117 59.9396 39.4176 59.7097 39.4075C59.5809 39.4016 59.5342 39.4582 59.5384 39.5875C59.5468 39.8247 59.5408 40.062 59.5408 40.2992C59.5408 40.2992 59.5408 40.2992 59.5414 40.2992L59.542 40.298Z" fill="#FFF9F9"/>
<path d="M49.8155 18.3129C49.8155 18.5347 49.8221 18.757 49.8131 18.9781C49.8059 19.148 49.8568 19.2457 50.0454 19.2243C50.1993 19.2064 50.2538 19.2779 50.237 19.4257C50.2286 19.5014 50.2328 19.5783 50.2334 19.6552C50.2352 19.781 50.1706 19.834 50.0484 19.8334C49.5718 19.8322 49.0958 19.8316 48.6192 19.834C48.4797 19.8346 48.4354 19.7649 48.427 19.6355C48.4043 19.2994 48.4139 19.2761 48.727 19.2219C48.845 19.2016 48.8791 19.1343 48.8791 19.0311C48.8791 18.4572 48.8791 17.8838 48.8809 17.3098C48.8809 17.1972 48.848 17.1328 48.7198 17.1537C48.5288 17.1847 48.4618 17.1 48.4624 16.9099C48.4636 16.5147 48.4558 16.5147 48.8492 16.5141C49.0797 16.5141 49.3102 16.5201 49.5407 16.5123C49.7071 16.507 49.7832 16.5696 49.773 16.7394C49.7694 16.8038 49.7431 16.8926 49.8143 16.929C49.8975 16.9713 49.9514 16.8872 50.0113 16.8443C50.2825 16.65 50.5717 16.4968 50.9088 16.4533C51.1806 16.4182 51.2429 16.47 51.2507 16.7364C51.2531 16.8121 51.2549 16.8908 51.2387 16.9641C51.1375 17.4201 51.0256 17.4952 50.5029 17.4564C50.3652 17.4463 50.2286 17.4249 50.0915 17.4052C49.9035 17.3778 49.7988 17.4296 49.8125 17.6466C49.8263 17.8677 49.8155 18.09 49.8155 18.3117V18.3129Z" fill="#FFF9F9"/>
<path d="M61.3868 34.7115C61.1563 34.7115 60.9258 34.7061 60.6952 34.7132C60.527 34.718 60.4522 34.6495 60.4671 34.482C60.4719 34.4289 60.4719 34.3747 60.4671 34.3217C60.4522 34.1709 60.4983 34.0862 60.6701 34.1083C60.8581 34.1327 60.9305 34.0451 60.9281 33.8568C60.921 33.3215 60.9228 32.7857 60.927 32.2505C60.9282 32.0913 60.8773 32.0097 60.7036 32.0079C60.4138 32.0049 60.5336 31.7766 60.5126 31.6324C60.4887 31.4679 60.5677 31.3964 60.7372 31.4005C61.006 31.4077 61.2754 31.4101 61.5437 31.3993C61.7335 31.3922 61.8406 31.444 61.8185 31.655C61.8125 31.7117 61.7957 31.7879 61.8634 31.8201C61.9292 31.8511 61.9753 31.7909 62.025 31.7575C62.3184 31.5597 62.6142 31.3683 62.9794 31.329C63.2267 31.3022 63.3453 31.4083 63.3201 31.6538C63.3015 31.8368 63.2393 32.0097 63.1614 32.1783C63.0938 32.3256 62.9884 32.3816 62.8315 32.3667C62.5717 32.3417 62.3118 32.3238 62.0526 32.2952C61.8981 32.2779 61.8179 32.3268 61.8185 32.4907C61.8203 32.9573 61.8221 33.424 61.8173 33.8907C61.8155 34.0666 61.9071 34.1256 62.0628 34.1083C62.3478 34.0767 62.3112 34.2692 62.322 34.448C62.334 34.6495 62.2544 34.724 62.0544 34.7138C61.8322 34.7025 61.6089 34.7115 61.3862 34.7109L61.3868 34.7115Z" fill="#FFF9F9"/>
<path d="M14.4379 19.5199C14.1062 19.4889 13.8045 19.4424 13.5261 19.3011C13.4422 19.2588 13.347 19.2076 13.4027 19.0937C13.4668 18.962 13.5542 19.0496 13.6326 19.089C14.0691 19.3077 14.5314 19.2535 14.9852 19.1879C15.1648 19.1623 15.3504 19.1492 15.5282 19.0979C15.5941 19.0788 15.6761 19.0848 15.6911 19.1772C15.7055 19.2648 15.6348 19.297 15.5672 19.3166C15.1906 19.4263 14.8002 19.4561 14.4379 19.5199Z" fill="#FFF9F9"/>
</g>
<defs>
<clipPath id="clip0_883_1626">
<rect width="77" height="49" fill="white"/>
</clipPath>
</defs>
</svg>
