<svg width="153" height="14" viewBox="0 0 153 14" fill="none" xmlns="http://www.w3.org/2000/svg">
<path d="M13.3654 13.2031C12.8153 13.0066 12.2153 12.795 11.7948 12.4168C10.2006 10.9814 9.11158 9.15941 7.95971 7.32714C8.19579 7.19082 8.38465 7.09014 8.56549 6.97654C9.64698 6.29094 10.3842 5.37859 10.4407 4.05416C10.5396 1.76749 8.82873 0.382924 6.41187 0.25908C4.28007 0.149045 2.13759 0.226114 0 0.220323V0.961609C0.411126 1.17811 0.966568 1.2926 1.20932 1.62939C2.42622 3.31956 3.5616 5.06808 4.79721 6.90393C3.8783 6.90393 3.06763 6.93199 2.26008 6.89457C1.62891 6.86561 1.4307 7.128 1.44273 7.72317C1.46901 9.07834 1.45297 10.4339 1.4503 11.7891C1.44763 13.0873 1.34518 13.1888 0 13.2574V13.9987H5.68004C5.95264 13.4815 5.72993 13.2944 5.20789 13.2352C4.15001 13.1167 4.01995 12.9541 4.01905 11.8724C4.01816 10.5235 4.01905 9.17412 4.01905 7.8488C4.94643 7.54765 5.48138 7.83454 5.9562 8.61058C6.99626 10.3092 8.14456 11.945 9.24298 13.6089C9.32093 13.7265 9.36057 13.8686 9.41803 13.9992H13.7533C14.0072 13.5479 13.8184 13.3652 13.3649 13.2035M7.09782 6.03256C5.95887 4.30363 4.89164 2.68608 3.7518 0.956263C4.49967 0.956263 5.11925 0.899686 5.72413 0.970518C6.58558 1.0712 7.2016 1.5443 7.38111 2.42458C7.61986 3.59754 7.68222 4.76872 7.09827 6.03256" fill="white"/>
<path d="M152.387 3.79529C151.628 1.79017 150.017 0.640818 147.941 0.438568C145.646 0.215825 143.319 0.301358 141.006 0.271066C140.798 0.268393 140.59 0.40382 140.226 0.527665C140.498 0.681802 140.589 0.767335 140.694 0.788273C141.872 1.02527 142.046 1.22173 142.047 2.40048C142.049 5.53536 142.05 8.67023 142.047 11.806C142.045 12.9055 141.877 13.1442 140.792 13.375C140.3 13.4792 140.411 13.7069 140.532 13.9996H147.111C147.346 13.9385 147.579 13.865 147.818 13.8191C149.769 13.4485 151.433 12.6235 152.238 10.7132C153.192 8.4466 153.26 6.10068 152.387 3.79529ZM149.97 10.2691C149.294 12.6751 147.292 13.4066 145.234 13.375C144.603 13.3656 144.381 12.9839 144.389 12.3967C144.401 11.5089 144.39 10.6201 144.39 9.73138C144.389 8.86714 144.39 8.00245 144.39 7.1391C144.39 5.43557 144.385 3.73248 144.392 2.02895C144.397 1.07427 144.675 0.810993 145.647 0.798519C147.654 0.773127 149.303 1.91669 149.89 3.95968C150.486 6.03385 150.563 8.15659 149.969 10.2691" fill="white"/>
<path d="M26.5927 13.999H16.7453C16.6842 13.537 16.8063 13.2559 17.3519 13.2118C18.0245 13.1561 18.3327 12.7761 18.3167 12.0683C18.2811 10.538 18.3216 9.00689 18.2989 7.4762C18.2904 6.8543 18.502 6.56296 19.1679 6.59949C19.453 6.61463 19.7376 6.61909 20.036 6.61909L20.9117 7.60495V10.3411C20.9117 10.9336 20.9336 11.527 20.9073 12.1186C20.8734 12.8412 21.2654 13.1927 21.9229 13.2189C22.6395 13.2479 23.3732 13.2452 24.0783 13.1294C24.5758 13.0474 25.0092 12.8764 25.3731 12.626L26.5927 13.9981V13.999Z" fill="white"/>
<path d="M129.022 13.9992H125.967L127.349 12.4079C127.612 12.8405 128.061 13.1171 128.771 13.3408C129.222 13.4829 129.297 13.6446 129.022 13.9992Z" fill="white"/>
<path d="M135.029 3.55889L135.734 2.74811C135.732 2.76147 135.731 2.77439 135.73 2.78865C135.646 4.21464 135.633 5.64598 135.621 7.07465C135.604 9.09893 135.624 11.1237 135.61 13.1479C135.608 13.4322 135.506 13.715 135.449 13.9993H134.851C133.494 12.1527 132.138 10.3075 130.778 8.45744L132.383 6.60734C132.939 7.34373 133.494 8.081 134.049 8.81783C134.327 9.18447 134.611 9.54665 135.041 10.1035C135.041 9.28069 135.041 8.6784 135.041 8.07744C135.037 6.57081 135.048 5.06463 135.029 3.55889Z" fill="white"/>
<path d="M137.921 0.650731C137.726 0.737155 137.539 0.848081 137.336 0.905548C137.336 0.905548 137.335 0.905845 137.334 0.906439L137.71 0.472092H137.862C137.881 0.532232 137.901 0.591481 137.921 0.650731" fill="white"/>
<path d="M22.529 0.945983H20.6181C21.6056 2.44147 22.5196 3.82426 23.5383 5.36652C23.5966 5.0137 23.5721 4.82081 23.6577 4.71567C23.7931 4.54995 24.0029 4.44214 24.1815 4.31028C24.2906 4.47867 24.4919 4.64529 24.4946 4.81546C24.5191 6.2967 24.5218 7.77838 24.4919 9.25961C24.4879 9.44003 24.251 9.61689 24.1222 9.79464C23.9623 9.63738 23.7102 9.50507 23.6577 9.31797C23.2844 7.98909 22.5018 7.42734 20.9134 7.49594V7.60508L20.0377 6.61923C20.4836 6.61923 20.9584 6.60809 21.5009 6.60809C20.2426 4.77581 19.085 3.0705 17.897 1.38701C17.7549 1.18476 17.4418 1.1068 17.2244 0.948656C17.0534 0.822584 16.9073 0.661764 16.7505 0.516091C16.95 0.412738 17.1483 0.223407 17.3496 0.219843C18.7941 0.194451 20.2395 0.202024 21.6849 0.206479C23.2292 0.21227 24.7735 0.246127 26.3173 0.225189C26.8309 0.218507 27.0264 0.384227 27.0407 0.889406C27.0643 1.72647 27.164 2.56175 27.1752 3.39882C27.1778 3.61221 26.9681 3.82782 26.8563 4.0421C26.6759 3.88618 26.4028 3.76367 26.3289 3.5681C25.5917 1.61466 24.6416 0.945983 22.5285 0.945983" fill="white"/>
<path d="M27.1885 9.73586C27.335 9.92875 27.6098 10.1243 27.6058 10.3145C27.584 11.2251 27.4865 12.1326 27.4187 13.0422C27.3951 13.3612 27.3782 13.6797 27.3586 13.9996H26.5912L25.3716 12.6271C26.0264 12.1793 26.4562 11.4804 26.629 10.5992C26.6571 10.4553 26.6695 10.2918 26.7484 10.1796C26.8669 10.0121 27.0392 9.88153 27.1885 9.73541" fill="white"/>
<path d="M42.9975 5.0653C42.4679 2.49931 40.9632 0.703117 38.2867 0.414889C35.803 0.146707 33.2761 0.272779 30.767 0.249169C30.645 0.248278 30.5198 0.475029 30.3964 0.596201C30.5657 0.712027 30.7212 0.897349 30.906 0.932096C31.8775 1.11341 32.0147 1.24705 32.0156 2.23024C32.0182 5.43862 32.0173 8.64566 32.0156 11.854C32.0156 12.8858 31.9216 13.0145 30.8842 13.2301C30.3857 13.3344 30.237 13.55 30.4958 13.9986H37.9713C38.182 13.9327 38.3909 13.8596 38.6034 13.8013C40.5744 13.2653 42.0398 12.1525 42.6879 10.1737C43.2344 8.50489 43.3516 6.78398 42.9975 5.0653ZM39.7802 10.7368C39.149 12.4421 36.9655 13.6084 35.1879 13.2301C34.6556 13.1165 34.6208 12.7468 34.6199 12.3396C34.6164 10.5884 34.6182 8.83811 34.6182 7.08736H34.6106C34.6106 5.41011 34.5995 3.73419 34.6142 2.05739C34.6235 1.09603 34.7945 0.948579 35.7576 0.945461C37.7682 0.937888 39.1873 1.89434 39.7913 3.7783C40.5325 6.08813 40.6376 8.42114 39.7802 10.7368Z" fill="white"/>
<path d="M66.0345 5.71698C65.8661 2.64626 63.4706 0.439329 60.3589 0.387653C58.3687 0.354687 56.3781 0.358696 54.3871 0.354687C54.1452 0.353796 53.9029 0.405472 53.6611 0.432646C53.772 0.678999 53.8829 0.769433 54.0054 0.789034C55.0285 0.956536 55.2552 1.16235 55.2597 2.15578C55.2757 5.43544 55.2748 8.71509 55.2597 11.9943C55.2552 12.9329 54.9915 13.2434 54.0758 13.3856C53.5564 13.4657 53.5649 13.6546 53.8201 13.999H59.2021C59.7438 13.9371 60.2854 13.8765 60.827 13.8128C63.4461 13.5005 65.3093 11.9702 65.8265 9.46173C66.0768 8.24823 66.1031 6.96078 66.0345 5.71743M63.0243 10.6966C62.3624 12.5382 60.1776 13.7508 58.2476 13.3838C57.591 13.2586 57.5536 12.7516 57.5509 12.2464C57.5416 10.5438 57.5474 8.84072 57.5474 7.13719C57.5465 5.45905 57.5398 3.78135 57.5492 2.10232C57.555 1.04519 57.8173 0.786361 58.8716 0.799726C60.7535 0.824227 62.4056 1.72321 63.0011 3.65795C63.7236 6.00477 63.8666 8.35247 63.0248 10.6962" fill="white"/>
<path d="M72.8046 13.9987H68.3197C68.0123 13.7051 67.9201 13.457 68.4796 13.4053C69.166 13.3416 69.423 12.9219 69.4239 12.3031C69.4288 8.8493 69.4315 5.39546 69.4203 1.94207C69.4185 1.27161 69.1326 0.804745 68.3615 0.784252C68.2564 0.780689 68.1535 0.651498 67.8716 0.460831H72.9539C72.9659 0.504043 72.9792 0.548146 72.9913 0.592694C72.887 0.660408 72.7846 0.784698 72.6799 0.785589C71.8448 0.793162 71.6136 1.34244 71.6096 2.01023C71.5918 5.41417 71.5926 8.81901 71.606 12.2239C71.6078 12.8747 71.8448 13.375 72.634 13.412C73.1824 13.4382 72.9859 13.7345 72.8051 14" fill="white"/>
<path d="M87.614 13.3837C87.3458 13.2906 87.0799 13.0416 86.9302 12.7921C86.6518 12.3315 86.4354 11.829 86.2363 11.3278C84.8933 7.9475 83.5628 4.56137 82.2235 1.17925C82.1117 0.897261 81.9584 0.630861 81.835 0.379608C81.0449 0.841576 80.338 1.25543 79.5968 1.688C79.9193 1.96999 80.4921 2.06978 80.2204 2.73978C78.9594 5.85194 77.7425 8.98236 76.4895 12.0985C76.2196 12.769 75.7154 13.2345 74.9773 13.3967C74.3662 13.5303 74.6 13.7588 74.902 13.9994H79.2373C79.4961 13.639 79.4574 13.4755 78.9625 13.3824C77.8302 13.1708 77.4222 12.5556 77.5746 11.4223C77.5973 11.2521 77.6356 11.0819 77.6913 10.9202C77.9162 10.2752 78.1501 9.63277 78.3901 8.96365C79.7972 8.96365 81.1642 8.94672 82.5299 8.98147C82.733 8.98726 83.0248 9.19485 83.1121 9.38419C83.4608 10.1384 83.7646 10.9162 84.0515 11.698C84.4238 12.712 84.2849 13.0167 83.2942 13.4127C82.8052 13.6092 83.1241 13.7994 83.2738 13.9994H87.7587C87.867 13.7615 88.0768 13.5441 87.614 13.3842M78.6489 8.34933C78.9977 7.46994 79.3335 6.62976 79.6654 5.78824C79.9879 4.96721 80.3077 4.14529 80.6885 3.17057C81.3967 4.95028 82.0578 6.60926 82.7508 8.34933H78.6485H78.6489Z" fill="white"/>
<path d="M106.744 13.9989H101.66C101.31 13.6799 101.214 13.4656 101.836 13.3855C102.772 13.2661 103.019 12.968 103.021 12.0218C103.027 9.13331 103.025 6.24479 103.021 3.35627C103.021 3.21148 102.984 3.06581 102.95 2.81901C102.529 3.88283 102.153 4.8179 101.786 5.75654C100.795 8.30382 99.8124 10.8547 98.812 13.3979C98.7407 13.5797 98.5505 13.716 98.416 13.8728C98.2797 13.7187 98.0895 13.5877 98.0155 13.4082C96.9256 10.7754 95.8561 8.1332 94.7693 5.49905C94.3751 4.54348 93.9466 3.60084 93.5337 2.65285C93.421 5.5534 93.3992 8.41652 93.4313 11.2788C93.4446 12.4009 94.017 13.0678 95.1916 13.3685C95.7483 13.5106 95.6299 13.6968 95.3827 13.9989H90.8977C90.5356 13.6848 90.4536 13.5071 91.0576 13.3708C92.2763 13.0972 92.854 12.3381 92.8575 11.0925C92.8669 8.10825 92.8509 5.1235 92.8696 2.14009C92.8754 1.38188 92.5489 1.00856 91.8014 0.921249C91.5814 0.895856 91.3774 0.739937 91.1658 0.642821C91.1845 0.560852 91.2032 0.479328 91.2224 0.397359C92.4705 0.397359 93.7203 0.37954 94.9671 0.422752C95.1092 0.427652 95.2793 0.759538 95.3697 0.969361C96.6655 3.97549 97.9492 6.98696 99.2369 9.9971C99.2716 10.0782 99.314 10.1561 99.4204 10.3744C100.057 8.72925 100.647 7.2106 101.232 5.68838C101.85 4.08463 102.451 2.47465 103.09 0.880264C103.172 0.677124 103.437 0.417406 103.629 0.408051C104.573 0.362166 105.52 0.38845 106.465 0.400478C106.544 0.401369 106.622 0.484229 106.694 0.524768C106.668 0.60941 106.665 0.68737 106.638 0.696725C105.714 1.01539 105.252 1.67412 105.251 2.67289C105.251 5.75609 105.25 8.83929 105.253 11.9216C105.254 13.0041 105.455 13.2442 106.56 13.3926C107.147 13.4714 107 13.7031 106.745 13.9993" fill="white"/>
<path d="M120.875 2.71411C118.597 -0.295581 114.94 -0.912577 112.095 1.41998C109.269 3.73828 108.658 7.85812 110.656 10.9048C112.298 13.4066 115.292 14.5297 117.754 13.5675C120.458 12.5085 122.247 9.90468 122.258 7.00903C122.262 5.52646 121.778 3.90712 120.875 2.71456M117.653 12.7335C116.165 13.865 114.449 13.5536 113.432 11.9499C112.169 9.95591 111.958 7.75388 112.172 5.47612C112.2 5.16962 112.266 4.8658 112.342 4.39359C113.221 5.47032 114.018 6.42901 114.795 7.40328C115.811 8.6787 116.805 9.97284 117.821 11.2492C118.385 11.9557 118.369 12.1887 117.653 12.7335M119.452 9.16517C119.442 9.31931 119.338 9.4681 119.251 9.68416C117.234 7.1351 115.261 4.63994 113.3 2.16171C114.56 0.0180404 116.864 -0.107141 118.287 1.85032C119.139 3.0215 119.522 4.37399 119.592 5.78172C119.647 6.90478 119.516 8.03721 119.451 9.16473" fill="white"/>
<path d="M127.017 3.33993C127.017 4.01706 127.016 4.62381 127.017 5.23056C127.02 7.15506 127 9.08044 127.033 11.0036C127.044 11.6095 127.136 12.0598 127.349 12.4078L125.967 13.999H124.387C124.141 13.7095 123.996 13.5148 124.555 13.3651C125.875 13.0096 126.348 12.4492 126.368 11.1078C126.409 8.31911 126.437 5.52859 126.361 2.74075C126.337 1.85735 125.583 1.31965 124.79 0.945893C124.588 0.851005 124.402 0.725824 124.209 0.614898C124.237 0.53872 124.264 0.463433 124.291 0.387255C125.35 0.387255 126.41 0.366763 127.468 0.406857C127.658 0.41443 127.88 0.644745 128.017 0.825612C129.477 2.74921 130.931 4.67816 132.384 6.60711L130.778 8.45721C129.528 6.7559 128.275 5.05148 127.017 3.33948" fill="white"/>
<path d="M137.705 0.472092L137.329 0.906884C136.4 1.17106 135.802 1.78449 135.731 2.74763L135.027 3.55841C135.026 3.41051 135.023 3.26305 135.021 3.1156C134.999 1.80543 134.509 1.20981 133.241 0.840507C133.075 0.791504 132.914 0.721118 132.751 0.661868C132.763 0.599055 132.775 0.535796 132.787 0.472983H137.705L137.705 0.472092Z" fill="white"/>
</svg>
