<svg width="42" height="42" viewBox="0 0 42 42" fill="none" xmlns="http://www.w3.org/2000/svg">
<circle cx="21" cy="21" r="21" fill="black" fill-opacity="0.15"/>
<path d="M32.001 18.7095C32.0505 17.2781 31.7374 15.8575 31.091 14.5795C30.6524 14.0551 30.0437 13.7012 29.371 13.5795C26.5885 13.327 23.7945 13.2235 21.001 13.2695C18.2176 13.2215 15.4337 13.3216 12.661 13.5695C12.1128 13.6692 11.6055 13.9263 11.201 14.3095C10.301 15.1395 10.201 16.5595 10.101 17.7595C9.95592 19.9171 9.95592 22.0819 10.101 24.2395C10.1299 24.9149 10.2305 25.5853 10.401 26.2395C10.5216 26.7446 10.7655 27.2118 11.111 27.5995C11.5183 28.003 12.0374 28.2747 12.601 28.3795C14.7569 28.6456 16.9292 28.7559 19.101 28.7095C22.601 28.7595 25.671 28.7095 29.301 28.4295C29.8785 28.3311 30.4122 28.059 30.831 27.6495C31.111 27.3694 31.3201 27.0266 31.441 26.6495C31.7986 25.5521 31.9743 24.4036 31.961 23.2495C32.001 22.6895 32.001 19.3095 32.001 18.7095ZM18.741 23.8495V17.6595L24.661 20.7695C23.001 21.6895 20.811 22.7295 18.741 23.8495Z" fill="#F6F6F5"/>
</svg>
